solid 
facet normal 0.4196293587384599 -0.7850709627059455 -0.45560375854541535
outer loop
vertex 0.0 0.0 35.0
vertex -9.714542388916016 14.538839340209961 1.0
vertex -6.691493034362793 16.154693603515625 1.0
endloop
endfacet
facet normal -0.40977190336014396 -0.7666290712066607 0.49433475944689315
outer loop
vertex 0.0 0.0 35.0
vertex -10.793935775756836 -16.154266357421875 1.0
vertex -7.434992790222168 -17.94965934753418 1.0
endloop
endfacet
facet normal 0.4196293587384599 0.7850709627059455 -0.45560375854541535
outer loop
vertex -9.714542388916016 -14.538839340209961 1.0
vertex 0.0 0.0 35.0
vertex -6.691493034362793 -16.154693603515625 1.0
endloop
endfacet
facet normal -0.2523360219154772 -0.8318411408887403 0.49433475334917615
outer loop
vertex 0.0 0.0 35.0
vertex -7.434992790222168 -17.94965934753418 1.0
vertex -3.7903261184692383 -19.055255889892578 1.0
endloop
endfacet
facet normal -0.7666290712066607 -0.40977190336014396 0.49433475944689315
outer loop
vertex -16.154266357421875 -10.793935775756836 1.0
vertex 0.0 0.0 35.0
vertex -17.94965934753418 -7.434992790222168 1.0
endloop
endfacet
facet normal 0.7850709627059455 0.4196293587384599 -0.45560375854541535
outer loop
vertex 0.0 0.0 35.0
vertex -14.538839340209961 -9.714542388916016 1.0
vertex -16.154693603515625 -6.691493034362793 1.0
endloop
endfacet
facet normal -0.8650858109939794 -0.08520380599394205 0.4943347560722749
outer loop
vertex 0.0 0.0 35.0
vertex -19.428571701049805 2.379313854771435e-15 1.0
vertex -19.055255889892578 -3.7903261184692383 1.0
endloop
endfacet
facet normal -0.8318411408887403 -0.2523360219154772 0.49433475334917615
outer loop
vertex -17.94965934753418 -7.434992790222168 1.0
vertex 0.0 0.0 35.0
vertex -19.055255889892578 -3.7903261184692383 1.0
endloop
endfacet
facet normal 0.8518517591522544 0.25840625817975466 -0.4556037600401776
outer loop
vertex 0.0 0.0 35.0
vertex -16.154693603515625 -6.691493034362793 1.0
vertex -17.149730682373047 -3.4112935066223145 1.0
endloop
endfacet
facet normal 0.8858962096800288 0.08725321068730985 -0.4556037564587396
outer loop
vertex 0.0 0.0 35.0
vertex -17.149730682373047 -3.4112935066223145 1.0
vertex -17.485713958740234 2.2953379495894597e-15 1.0
endloop
endfacet
facet normal 0.25840625817975466 0.8518517591522544 -0.4556037600401776
outer loop
vertex -6.691493034362793 -16.154693603515625 1.0
vertex 0.0 0.0 35.0
vertex -3.4112935066223145 -17.149730682373047 1.0
endloop
endfacet
facet normal -0.08520380599394217 -0.8650858109939794 0.4943347560722749
outer loop
vertex 0.0 0.0 35.0
vertex -3.7903261184692383 -19.055255889892578 1.0
vertex -3.568970358640679e-15 -19.428571701049805 1.0
endloop
endfacet
facet normal 0.08725321068730997 0.8858962096800287 -0.45560375645873946
outer loop
vertex 0.0 0.0 35.0
vertex -3.21207366158979e-15 -17.485713958740234 1.0
vertex -3.4112935066223145 -17.149730682373047 1.0
endloop
endfacet
facet normal -0.8650858109939794 0.08520380599394217 0.494334756072275
outer loop
vertex 0.0 0.0 35.0
vertex -19.055255889892578 3.7903261184692383 1.0
vertex -19.428571701049805 2.379313854771435e-15 1.0
endloop
endfacet
facet normal 0.8858962096800287 -0.08725321068730994 -0.45560375645873946
outer loop
vertex -17.149730682373047 3.4112935066223145 1.0
vertex 0.0 0.0 35.0
vertex -17.485713958740234 2.2953379495894597e-15 1.0
endloop
endfacet
facet normal -0.8318411408887403 0.2523360219154772 0.49433475334917615
outer loop
vertex 0.0 0.0 35.0
vertex -17.94965934753418 7.434992790222168 1.0
vertex -19.055255889892578 3.7903261184692383 1.0
endloop
endfacet
facet normal 0.8518517591522544 -0.25840625817975466 -0.4556037600401776
outer loop
vertex -16.154693603515625 6.691493034362793 1.0
vertex 0.0 0.0 35.0
vertex -17.149730682373047 3.4112935066223145 1.0
endloop
endfacet
facet normal -0.7666290712066607 0.40977190336014396 0.49433475944689315
outer loop
vertex 0.0 0.0 35.0
vertex -16.154266357421875 10.793935775756836 1.0
vertex -17.94965934753418 7.434992790222168 1.0
endloop
endfacet
facet normal 0.7850709627059455 -0.4196293587384599 -0.45560375854541535
outer loop
vertex -14.538839340209961 9.714542388916016 1.0
vertex 0.0 0.0 35.0
vertex -16.154693603515625 6.691493034362793 1.0
endloop
endfacet
facet normal -0.40977190336014396 0.7666290712066607 0.49433475944689315
outer loop
vertex -10.793935775756836 16.154266357421875 1.0
vertex 0.0 0.0 35.0
vertex -7.434992790222168 17.94965934753418 1.0
endloop
endfacet
facet normal 0.6881206587055017 -0.5647257482308116 -0.4556037624382139
outer loop
vertex -12.364267349243164 12.364267349243164 1.0
vertex 0.0 0.0 35.0
vertex -14.538839340209961 9.714542388916016 1.0
endloop
endfacet
facet normal -0.671956048470933 0.5514600792769472 0.49433475488497874
outer loop
vertex 0.0 0.0 35.0
vertex -13.73807430267334 13.73807430267334 1.0
vertex -16.154266357421875 10.793935775756836 1.0
endloop
endfacet
facet normal -0.5514600792769472 0.671956048470933 0.49433475488497874
outer loop
vertex -13.73807430267334 13.73807430267334 1.0
vertex 0.0 0.0 35.0
vertex -10.793935775756836 16.154266357421875 1.0
endloop
endfacet
facet normal 0.5647257482308116 -0.6881206587055017 -0.4556037624382139
outer loop
vertex 0.0 0.0 35.0
vertex -12.364267349243164 12.364267349243164 1.0
vertex -9.714542388916016 14.538839340209961 1.0
endloop
endfacet
facet normal 0.25840625817975466 -0.8518517591522544 -0.4556037600401776
outer loop
vertex 0.0 0.0 35.0
vertex -6.691493034362793 16.154693603515625 1.0
vertex -3.4112935066223145 17.149730682373047 1.0
endloop
endfacet
facet normal -0.671956048470933 -0.5514600792769472 0.49433475488497874
outer loop
vertex -13.73807430267334 -13.73807430267334 1.0
vertex 0.0 0.0 35.0
vertex -16.154266357421875 -10.793935775756836 1.0
endloop
endfacet
facet normal -0.5514600792769472 -0.671956048470933 0.49433475488497874
outer loop
vertex 0.0 0.0 35.0
vertex -13.73807430267334 -13.73807430267334 1.0
vertex -10.793935775756836 -16.154266357421875 1.0
endloop
endfacet
facet normal 0.6881206587055017 0.5647257482308116 -0.4556037624382139
outer loop
vertex 0.0 0.0 35.0
vertex -12.364267349243164 -12.364267349243164 1.0
vertex -14.538839340209961 -9.714542388916016 1.0
endloop
endfacet
facet normal 0.5647257482308116 0.6881206587055017 -0.4556037624382139
outer loop
vertex -12.364267349243164 -12.364267349243164 1.0
vertex 0.0 0.0 35.0
vertex -9.714542388916016 -14.538839340209961 1.0
endloop
endfacet
facet normal -0.2523360219154772 0.8318411408887403 0.49433475334917615
outer loop
vertex -7.434992790222168 17.94965934753418 1.0
vertex 0.0 0.0 35.0
vertex -3.7903261184692383 19.055255889892578 1.0
endloop
endfacet
facet normal 0.08725321068730987 -0.8858962096800287 -0.4556037564587395
outer loop
vertex 0.0 0.0 35.0
vertex -3.4112935066223145 17.149730682373047 1.0
vertex 1.0706912558229695e-15 17.485713958740234 1.0
endloop
endfacet
facet normal -0.08520380599394207 0.8650858109939794 0.4943347560722749
outer loop
vertex 0.0 0.0 35.0
vertex 1.1896569273857176e-15 19.428571701049805 1.0
vertex -3.7903261184692383 19.055255889892578 1.0
endloop
endfacet
facet normal 0.08520380599394203 -0.8650858109939794 0.494334756072275
outer loop
vertex 0.0 0.0 35.0
vertex -3.568970358640679e-15 -19.428571701049805 1.0
vertex 3.7903261184692383 -19.055255889892578 1.0
endloop
endfacet
facet normal -0.08725321068730983 0.8858962096800288 -0.45560375645873963
outer loop
vertex 0.0 0.0 35.0
vertex 3.4112935066223145 -17.149730682373047 1.0
vertex -3.21207366158979e-15 -17.485713958740234 1.0
endloop
endfacet
facet normal 0.2523360219154772 -0.8318411408887403 0.49433475334917615
outer loop
vertex 7.434992790222168 -17.94965934753418 1.0
vertex 0.0 0.0 35.0
vertex 3.7903261184692383 -19.055255889892578 1.0
endloop
endfacet
facet normal -0.25840625817975466 0.8518517591522544 -0.4556037600401776
outer loop
vertex 3.4112935066223145 -17.149730682373047 1.0
vertex 0.0 0.0 35.0
vertex 6.691493034362793 -16.154693603515625 1.0
endloop
endfacet
facet normal 0.40977190336014396 -0.7666290712066607 0.49433475944689315
outer loop
vertex 10.793935775756836 -16.154266357421875 1.0
vertex 0.0 0.0 35.0
vertex 7.434992790222168 -17.94965934753418 1.0
endloop
endfacet
facet normal -0.4196293587384599 0.7850709627059455 -0.45560375854541535
outer loop
vertex 0.0 0.0 35.0
vertex 9.714542388916016 -14.538839340209961 1.0
vertex 6.691493034362793 -16.154693603515625 1.0
endloop
endfacet
facet normal -0.5647257482308116 0.6881206587055017 -0.4556037624382139
outer loop
vertex 9.714542388916016 -14.538839340209961 1.0
vertex 0.0 0.0 35.0
vertex 12.364267349243164 -12.364267349243164 1.0
endloop
endfacet
facet normal 0.5514600792769472 -0.671956048470933 0.49433475488497874
outer loop
vertex 13.73807430267334 -13.73807430267334 1.0
vertex 0.0 0.0 35.0
vertex 10.793935775756836 -16.154266357421875 1.0
endloop
endfacet
facet normal 0.671956048470933 -0.5514600792769472 0.49433475488497874
outer loop
vertex 0.0 0.0 35.0
vertex 13.73807430267334 -13.73807430267334 1.0
vertex 16.154266357421875 -10.793935775756836 1.0
endloop
endfacet
facet normal -0.6881206587055017 0.5647257482308116 -0.4556037624382139
outer loop
vertex 12.364267349243164 -12.364267349243164 1.0
vertex 0.0 0.0 35.0
vertex 14.538839340209961 -9.714542388916016 1.0
endloop
endfacet
facet normal -0.7850709627059455 0.4196293587384599 -0.45560375854541535
outer loop
vertex 14.538839340209961 -9.714542388916016 1.0
vertex 0.0 0.0 35.0
vertex 16.154693603515625 -6.691493034362793 1.0
endloop
endfacet
facet normal 0.7666290712066607 -0.40977190336014396 0.49433475944689315
outer loop
vertex 0.0 0.0 35.0
vertex 16.154266357421875 -10.793935775756836 1.0
vertex 17.94965934753418 -7.434992790222168 1.0
endloop
endfacet
facet normal -0.8518517591522544 0.25840625817975466 -0.4556037600401776
outer loop
vertex 16.154693603515625 -6.691493034362793 1.0
vertex 0.0 0.0 35.0
vertex 17.149730682373047 -3.4112935066223145 1.0
endloop
endfacet
facet normal 0.8318411408887403 -0.2523360219154772 0.49433475334917615
outer loop
vertex 0.0 0.0 35.0
vertex 17.94965934753418 -7.434992790222168 1.0
vertex 19.055255889892578 -3.7903261184692383 1.0
endloop
endfacet
facet normal -0.8858962096800287 0.08725321068730989 -0.4556037564587395
outer loop
vertex 0.0 0.0 35.0
vertex 17.485713958740234 0.0 1.0
vertex 17.149730682373047 -3.4112935066223145 1.0
endloop
endfacet
facet normal 0.8650858109939793 -0.0852038059939421 0.4943347560722749
outer loop
vertex 0.0 0.0 35.0
vertex 19.055255889892578 -3.7903261184692383 1.0
vertex 19.428571701049805 3.498990865583803e-17 1.0
endloop
endfacet
facet normal -0.5647257482308116 -0.6881206587055017 -0.4556037624382139
outer loop
vertex 12.364267349243164 12.364267349243164 1.0
vertex 0.0 0.0 35.0
vertex 9.714542388916016 14.538839340209961 1.0
endloop
endfacet
facet normal -0.6881206587055017 -0.5647257482308116 -0.4556037624382139
outer loop
vertex 0.0 0.0 35.0
vertex 12.364267349243164 12.364267349243164 1.0
vertex 14.538839340209961 9.714542388916016 1.0
endloop
endfacet
facet normal 0.5514600792769472 0.671956048470933 0.49433475488497874
outer loop
vertex 0.0 0.0 35.0
vertex 13.73807430267334 13.73807430267334 1.0
vertex 10.793935775756836 16.154266357421875 1.0
endloop
endfacet
facet normal 0.671956048470933 0.5514600792769472 0.49433475488497874
outer loop
vertex 13.73807430267334 13.73807430267334 1.0
vertex 0.0 0.0 35.0
vertex 16.154266357421875 10.793935775756836 1.0
endloop
endfacet
facet normal -0.08725321068730992 -0.8858962096800287 -0.45560375645873946
outer loop
vertex 0.0 0.0 35.0
vertex 1.0706912558229695e-15 17.485713958740234 1.0
vertex 3.4112935066223145 17.149730682373047 1.0
endloop
endfacet
facet normal 0.08520380599394214 0.8650858109939794 0.494334756072275
outer loop
vertex 0.0 0.0 35.0
vertex 3.7903261184692383 19.055255889892578 1.0
vertex 1.1896569273857176e-15 19.428571701049805 1.0
endloop
endfacet
facet normal -0.25840625817975466 -0.8518517591522544 -0.4556037600401776
outer loop
vertex 0.0 0.0 35.0
vertex 3.4112935066223145 17.149730682373047 1.0
vertex 6.691493034362793 16.154693603515625 1.0
endloop
endfacet
facet normal 0.2523360219154772 0.8318411408887403 0.49433475334917615
outer loop
vertex 0.0 0.0 35.0
vertex 7.434992790222168 17.94965934753418 1.0
vertex 3.7903261184692383 19.055255889892578 1.0
endloop
endfacet
facet normal -0.4196293587384599 -0.7850709627059455 -0.45560375854541535
outer loop
vertex 9.714542388916016 14.538839340209961 1.0
vertex 0.0 0.0 35.0
vertex 6.691493034362793 16.154693603515625 1.0
endloop
endfacet
facet normal 0.40977190336014396 0.7666290712066607 0.49433475944689315
outer loop
vertex 0.0 0.0 35.0
vertex 10.793935775756836 16.154266357421875 1.0
vertex 7.434992790222168 17.94965934753418 1.0
endloop
endfacet
facet normal -0.8858962096800287 -0.08725321068730989 -0.4556037564587395
outer loop
vertex 0.0 0.0 35.0
vertex 17.149730682373047 3.4112935066223145 1.0
vertex 17.485713958740234 0.0 1.0
endloop
endfacet
facet normal -0.8518517591522544 -0.25840625817975466 -0.4556037600401776
outer loop
vertex 0.0 0.0 35.0
vertex 16.154693603515625 6.691493034362793 1.0
vertex 17.149730682373047 3.4112935066223145 1.0
endloop
endfacet
facet normal 0.8318411408887403 0.2523360219154772 0.49433475334917615
outer loop
vertex 17.94965934753418 7.434992790222168 1.0
vertex 0.0 0.0 35.0
vertex 19.055255889892578 3.7903261184692383 1.0
endloop
endfacet
facet normal 0.8650858109939793 0.0852038059939421 0.4943347560722749
outer loop
vertex 0.0 0.0 35.0
vertex 19.428571701049805 3.498990865583803e-17 1.0
vertex 19.055255889892578 3.7903261184692383 1.0
endloop
endfacet
facet normal -0.7850709627059455 -0.4196293587384599 -0.45560375854541535
outer loop
vertex 0.0 0.0 35.0
vertex 14.538839340209961 9.714542388916016 1.0
vertex 16.154693603515625 6.691493034362793 1.0
endloop
endfacet
facet normal 0.7666290712066607 0.40977190336014396 0.49433475944689315
outer loop
vertex 16.154266357421875 10.793935775756836 1.0
vertex 0.0 0.0 35.0
vertex 17.94965934753418 7.434992790222168 1.0
endloop
endfacet
facet normal 0.0 0.0 1.0
outer loop
vertex -19.055255889892578 -3.7903261184692383 1.0
vertex -19.428571701049805 2.379313854771435e-15 1.0
vertex -19.90369415283203 -1.9603427648544312 1.0
endloop
endfacet
facet normal -0.9987954466501192 -0.0490678688246094 0.0
outer loop
vertex -20.0 2.4492935992912173e-15 1.0
vertex -19.90369415283203 -1.9603427648544312 -1.0
vertex -19.90369415283203 -1.9603427648544312 1.0
endloop
endfacet
facet normal -0.9987954466501192 -0.0490678688246094 -0.0
outer loop
vertex -19.90369415283203 -1.9603427648544312 -1.0
vertex -20.0 2.4492935992912173e-15 1.0
vertex -20.0 2.4492935992912173e-15 -1.0
endloop
endfacet
facet normal 0.0 0.0 1.0
outer loop
vertex -19.428571701049805 2.379313854771435e-15 1.0
vertex -20.0 2.4492935992912173e-15 1.0
vertex -19.90369415283203 -1.9603427648544312 1.0
endloop
endfacet
facet normal -0.4275548950049313 -0.9039893869716181 0.0
outer loop
vertex -9.427934646606445 -17.638425827026367 -1.0
vertex -7.6536688804626465 -18.477590560913086 -1.0
vertex -9.427934646606445 -17.638425827026367 1.0
endloop
endfacet
facet normal -0.4275548950049313 -0.9039893869716181 0.0
outer loop
vertex -7.6536688804626465 -18.477590560913086 1.0
vertex -9.427934646606445 -17.638425827026367 1.0
vertex -7.6536688804626465 -18.477590560913086 -1.0
endloop
endfacet
facet normal -0.0 0.0 1.0
outer loop
vertex -9.427934646606445 -17.638425827026367 1.0
vertex -7.6536688804626465 -18.477590560913086 1.0
vertex -7.434992790222168 -17.94965934753418 1.0
endloop
endfacet
facet normal -0.5141028390402568 -0.8577285531511398 0.0
outer loop
vertex -11.111404418945312 -16.629392623901367 1.0
vertex -9.427934646606445 -17.638425827026367 -1.0
vertex -9.427934646606445 -17.638425827026367 1.0
endloop
endfacet
facet normal -0.0 -0.0 0.9999999999999999
outer loop
vertex -11.111404418945312 -16.629392623901367 1.0
vertex -7.434992790222168 -17.94965934753418 1.0
vertex -10.793935775756836 -16.154266357421875 1.0
endloop
endfacet
facet normal 0.0 0.0 1.0
outer loop
vertex -11.111404418945312 -16.629392623901367 1.0
vertex -9.427934646606445 -17.638425827026367 1.0
vertex -7.434992790222168 -17.94965934753418 1.0
endloop
endfacet
facet normal -0.3368901321161071 -0.9415439654539728 0.0
outer loop
vertex -7.6536688804626465 -18.477590560913086 1.0
vertex -5.805693626403809 -19.13880729675293 -1.0
vertex -5.805693626403809 -19.13880729675293 1.0
endloop
endfacet
facet normal -0.3368901321161071 -0.9415439654539728 0.0
outer loop
vertex -7.6536688804626465 -18.477590560913086 -1.0
vertex -5.805693626403809 -19.13880729675293 -1.0
vertex -7.6536688804626465 -18.477590560913086 1.0
endloop
endfacet
facet normal -0.0 -0.0 1.0
outer loop
vertex -7.6536688804626465 -18.477590560913086 1.0
vertex -3.7903261184692383 -19.055255889892578 1.0
vertex -7.434992790222168 -17.94965934753418 1.0
endloop
endfacet
facet normal -0.24297982421159142 -0.9700313422906005 0.0
outer loop
vertex -5.805693626403809 -19.13880729675293 -1.0
vertex -3.901806354522705 -19.615705490112305 -1.0
vertex -5.805693626403809 -19.13880729675293 1.0
endloop
endfacet
facet normal -0.0 0.0 1.0
outer loop
vertex -7.6536688804626465 -18.477590560913086 1.0
vertex -5.805693626403809 -19.13880729675293 1.0
vertex -3.7903261184692383 -19.055255889892578 1.0
endloop
endfacet
facet normal -0.24297982421159142 -0.9700313422906005 0.0
outer loop
vertex -3.901806354522705 -19.615705490112305 1.0
vertex -5.805693626403809 -19.13880729675293 1.0
vertex -3.901806354522705 -19.615705490112305 -1.0
endloop
endfacet
facet normal -0.0 0.0 1.0
outer loop
vertex -5.805693626403809 -19.13880729675293 1.0
vertex -3.901806354522705 -19.615705490112305 1.0
vertex -3.7903261184692383 -19.055255889892578 1.0
endloop
endfacet
facet normal -0.14673034676988297 -0.9891765289051241 0.0
outer loop
vertex -3.901806354522705 -19.615705490112305 -1.0
vertex -1.9603427648544312 -19.90369415283203 -1.0
vertex -3.901806354522705 -19.615705490112305 1.0
endloop
endfacet
facet normal -0.14673034676988297 -0.9891765289051241 0.0
outer loop
vertex -3.901806354522705 -19.615705490112305 1.0
vertex -1.9603427648544312 -19.90369415283203 -1.0
vertex -1.9603427648544312 -19.90369415283203 1.0
endloop
endfacet
facet normal 0.0 -0.0 1.0
outer loop
vertex -3.901806354522705 -19.615705490112305 1.0
vertex -3.568970358640679e-15 -19.428571701049805 1.0
vertex -3.7903261184692383 -19.055255889892578 1.0
endloop
endfacet
facet normal -0.049067868824609555 -0.9987954466501191 0.0
outer loop
vertex -1.9603427648544312 -19.90369415283203 -1.0
vertex -3.673940187178589e-15 -20.0 -1.0
vertex -1.9603427648544312 -19.90369415283203 1.0
endloop
endfacet
facet normal -0.0 0.0 1.0
outer loop
vertex -3.901806354522705 -19.615705490112305 1.0
vertex -1.9603427648544312 -19.90369415283203 1.0
vertex -3.568970358640679e-15 -19.428571701049805 1.0
endloop
endfacet
facet normal -0.049067868824609555 -0.9987954466501191 0.0
outer loop
vertex -1.9603427648544312 -19.90369415283203 1.0
vertex -3.673940187178589e-15 -20.0 -1.0
vertex -3.673940187178589e-15 -20.0 1.0
endloop
endfacet
facet normal -0.0 0.0 1.0
outer loop
vertex -1.9603427648544312 -19.90369415283203 1.0
vertex -3.673940187178589e-15 -20.0 1.0
vertex -3.568970358640679e-15 -19.428571701049805 1.0
endloop
endfacet
facet normal 0.0 0.0 -1.0
outer loop
vertex -11.111404418945312 -16.629392623901367 -1.0
vertex -12.687865257263184 -15.460208892822266 -1.0
vertex 19.90369415283203 1.9603427648544312 -1.0
endloop
endfacet
facet normal 0.0 0.0 1.0
outer loop
vertex 17.149730682373047 -3.4112935066223145 1.0
vertex -12.364267349243164 -12.364267349243164 1.0
vertex -9.714542388916016 -14.538839340209961 1.0
endloop
endfacet
facet normal 0.0 0.0 -1.0
outer loop
vertex -9.427934646606445 -17.638425827026367 -1.0
vertex -11.111404418945312 -16.629392623901367 -1.0
vertex 19.90369415283203 1.9603427648544312 -1.0
endloop
endfacet
facet normal 0.0 -0.0 -1.0
outer loop
vertex -18.477590560913086 -7.6536688804626465 -1.0
vertex 19.90369415283203 1.9603427648544312 -1.0
vertex -17.638425827026367 -9.427934646606445 -1.0
endloop
endfacet
facet normal 0.0 -0.0 -1.0
outer loop
vertex -19.615705490112305 -3.901806354522705 -1.0
vertex 19.90369415283203 1.9603427648544312 -1.0
vertex -19.13880729675293 -5.805693626403809 -1.0
endloop
endfacet
facet normal -0.0 0.0 -1.0
outer loop
vertex 19.90369415283203 1.9603427648544312 -1.0
vertex -18.477590560913086 -7.6536688804626465 -1.0
vertex -19.13880729675293 -5.805693626403809 -1.0
endloop
endfacet
facet normal 0.0 0.0 1.0
outer loop
vertex 17.149730682373047 -3.4112935066223145 1.0
vertex -17.149730682373047 -3.4112935066223145 1.0
vertex -16.154693603515625 -6.691493034362793 1.0
endloop
endfacet
facet normal -0.0 0.0 -1.0
outer loop
vertex 19.90369415283203 1.9603427648544312 -1.0
vertex -19.615705490112305 -3.901806354522705 -1.0
vertex -19.90369415283203 -1.9603427648544312 -1.0
endloop
endfacet
facet normal 0.0 0.0 1.0
outer loop
vertex 17.149730682373047 -3.4112935066223145 1.0
vertex -17.485713958740234 2.2953379495894597e-15 1.0
vertex -17.149730682373047 -3.4112935066223145 1.0
endloop
endfacet
facet normal 0.0 0.0 -0.9999999999999999
outer loop
vertex -14.142135620117188 -14.142135620117188 -1.0
vertex -15.460208892822266 -12.687865257263184 -1.0
vertex 19.90369415283203 1.9603427648544312 -1.0
endloop
endfacet
facet normal 0.0 0.0 1.0
outer loop
vertex 17.149730682373047 -3.4112935066223145 1.0
vertex -14.538839340209961 -9.714542388916016 1.0
vertex -12.364267349243164 -12.364267349243164 1.0
endloop
endfacet
facet normal -0.0 0.0 -1.0
outer loop
vertex 19.90369415283203 1.9603427648544312 -1.0
vertex -15.460208892822266 -12.687865257263184 -1.0
vertex -16.629392623901367 -11.111404418945312 -1.0
endloop
endfacet
facet normal 0.0 0.0 1.0
outer loop
vertex 17.149730682373047 -3.4112935066223145 1.0
vertex -16.154693603515625 -6.691493034362793 1.0
vertex -14.538839340209961 -9.714542388916016 1.0
endloop
endfacet
facet normal -0.0 0.0 -1.0
outer loop
vertex 19.90369415283203 1.9603427648544312 -1.0
vertex -16.629392623901367 -11.111404418945312 -1.0
vertex -17.638425827026367 -9.427934646606445 -1.0
endloop
endfacet
facet normal -0.0 0.0 -1.0
outer loop
vertex 19.90369415283203 1.9603427648544312 -1.0
vertex -12.687865257263184 -15.460208892822266 -1.0
vertex -14.142135620117188 -14.142135620117188 -1.0
endloop
endfacet
facet normal -0.9987954466501191 0.04906786882460952 0.0
outer loop
vertex -19.90369415283203 1.9603427648544312 1.0
vertex -20.0 2.4492935992912173e-15 -1.0
vertex -20.0 2.4492935992912173e-15 1.0
endloop
endfacet
facet normal -0.0 -0.0 1.0
outer loop
vertex -20.0 2.4492935992912173e-15 1.0
vertex -19.428571701049805 2.379313854771435e-15 1.0
vertex -19.90369415283203 1.9603427648544312 1.0
endloop
endfacet
facet normal -0.9987954466501191 0.04906786882460952 0.0
outer loop
vertex -20.0 2.4492935992912173e-15 -1.0
vertex -19.90369415283203 1.9603427648544312 1.0
vertex -19.90369415283203 1.9603427648544312 -1.0
endloop
endfacet
facet normal -0.0 0.0 1.0
outer loop
vertex -19.90369415283203 1.9603427648544312 1.0
vertex -19.428571701049805 2.379313854771435e-15 1.0
vertex -19.055255889892578 3.7903261184692383 1.0
endloop
endfacet
facet normal -0.9891765289051241 0.14673034676988297 0.0
outer loop
vertex -19.90369415283203 1.9603427648544312 -1.0
vertex -19.615705490112305 3.901806354522705 1.0
vertex -19.615705490112305 3.901806354522705 -1.0
endloop
endfacet
facet normal -0.9891765289051241 0.14673034676988297 0.0
outer loop
vertex -19.615705490112305 3.901806354522705 1.0
vertex -19.90369415283203 1.9603427648544312 -1.0
vertex -19.90369415283203 1.9603427648544312 1.0
endloop
endfacet
facet normal -0.0 0.0 1.0
outer loop
vertex -19.615705490112305 3.901806354522705 1.0
vertex -19.90369415283203 1.9603427648544312 1.0
vertex -19.055255889892578 3.7903261184692383 1.0
endloop
endfacet
facet normal -0.9700313422906005 0.24297982421159142 0.0
outer loop
vertex -19.615705490112305 3.901806354522705 1.0
vertex -19.13880729675293 5.805693626403809 1.0
vertex -19.615705490112305 3.901806354522705 -1.0
endloop
endfacet
facet normal -0.0 -0.0 1.0
outer loop
vertex -19.615705490112305 3.901806354522705 1.0
vertex -19.055255889892578 3.7903261184692383 1.0
vertex -19.13880729675293 5.805693626403809 1.0
endloop
endfacet
facet normal -0.9700313422906005 0.24297982421159142 0.0
outer loop
vertex -19.615705490112305 3.901806354522705 -1.0
vertex -19.13880729675293 5.805693626403809 1.0
vertex -19.13880729675293 5.805693626403809 -1.0
endloop
endfacet
facet normal 0.0 -0.0 1.0
outer loop
vertex -19.055255889892578 3.7903261184692383 1.0
vertex -18.477590560913086 7.6536688804626465 1.0
vertex -19.13880729675293 5.805693626403809 1.0
endloop
endfacet
facet normal -0.9415439654539728 0.3368901321161071 0.0
outer loop
vertex -18.477590560913086 7.6536688804626465 1.0
vertex -19.13880729675293 5.805693626403809 -1.0
vertex -19.13880729675293 5.805693626403809 1.0
endloop
endfacet
facet normal -0.9415439654539728 0.3368901321161071 0.0
outer loop
vertex -19.13880729675293 5.805693626403809 -1.0
vertex -18.477590560913086 7.6536688804626465 1.0
vertex -18.477590560913086 7.6536688804626465 -1.0
endloop
endfacet
facet normal 0.0 -0.0 1.0
outer loop
vertex -19.055255889892578 3.7903261184692383 1.0
vertex -17.94965934753418 7.434992790222168 1.0
vertex -18.477590560913086 7.6536688804626465 1.0
endloop
endfacet
facet normal -0.9039893869716181 0.4275548950049313 0.0
outer loop
vertex -18.477590560913086 7.6536688804626465 1.0
vertex -17.638425827026367 9.427934646606445 1.0
vertex -18.477590560913086 7.6536688804626465 -1.0
endloop
endfacet
facet normal -0.0 0.0 1.0
outer loop
vertex -18.477590560913086 7.6536688804626465 1.0
vertex -17.94965934753418 7.434992790222168 1.0
vertex -17.638425827026367 9.427934646606445 1.0
endloop
endfacet
facet normal -0.9039893869716181 0.4275548950049313 0.0
outer loop
vertex -18.477590560913086 7.6536688804626465 -1.0
vertex -17.638425827026367 9.427934646606445 1.0
vertex -17.638425827026367 9.427934646606445 -1.0
endloop
endfacet
facet normal 0.0 -0.0 1.0
outer loop
vertex -17.94965934753418 7.434992790222168 1.0
vertex -16.629392623901367 11.111404418945312 1.0
vertex -17.638425827026367 9.427934646606445 1.0
endloop
endfacet
facet normal -0.8577285531511398 0.5141028390402568 0.0
outer loop
vertex -16.629392623901367 11.111404418945312 1.0
vertex -17.638425827026367 9.427934646606445 -1.0
vertex -17.638425827026367 9.427934646606445 1.0
endloop
endfacet
facet normal 0.0 -0.0 0.9999999999999999
outer loop
vertex -17.94965934753418 7.434992790222168 1.0
vertex -16.154266357421875 10.793935775756836 1.0
vertex -16.629392623901367 11.111404418945312 1.0
endloop
endfacet
facet normal -0.8577285531511398 0.5141028390402568 0.0
outer loop
vertex -16.629392623901367 11.111404418945312 -1.0
vertex -17.638425827026367 9.427934646606445 -1.0
vertex -16.629392623901367 11.111404418945312 1.0
endloop
endfacet
facet normal -0.8032073634756708 0.5956995310208506 0.0
outer loop
vertex -16.629392623901367 11.111404418945312 -1.0
vertex -15.460208892822266 12.687865257263184 1.0
vertex -15.460208892822266 12.687865257263184 -1.0
endloop
endfacet
facet normal -0.8032073634756708 0.5956995310208506 0.0
outer loop
vertex -16.629392623901367 11.111404418945312 -1.0
vertex -16.629392623901367 11.111404418945312 1.0
vertex -15.460208892822266 12.687865257263184 1.0
endloop
endfacet
facet normal -0.0 0.0 1.0
outer loop
vertex -16.629392623901367 11.111404418945312 1.0
vertex -16.154266357421875 10.793935775756836 1.0
vertex -15.460208892822266 12.687865257263184 1.0
endloop
endfacet
facet normal 0.0 -0.0 1.0
outer loop
vertex -16.154266357421875 10.793935775756836 1.0
vertex -14.142135620117188 14.142135620117188 1.0
vertex -15.460208892822266 12.687865257263184 1.0
endloop
endfacet
facet normal -0.7409512657197663 0.6715587999782867 0.0
outer loop
vertex -14.142135620117188 14.142135620117188 1.0
vertex -15.460208892822266 12.687865257263184 -1.0
vertex -15.460208892822266 12.687865257263184 1.0
endloop
endfacet
facet normal -0.7409512657197663 0.6715587999782867 0.0
outer loop
vertex -14.142135620117188 14.142135620117188 -1.0
vertex -15.460208892822266 12.687865257263184 -1.0
vertex -14.142135620117188 14.142135620117188 1.0
endloop
endfacet
facet normal 0.0 -0.0 1.0
outer loop
vertex -16.154266357421875 10.793935775756836 1.0
vertex -13.73807430267334 13.73807430267334 1.0
vertex -14.142135620117188 14.142135620117188 1.0
endloop
endfacet
facet normal -0.6715587999782867 0.7409512657197663 0.0
outer loop
vertex -14.142135620117188 14.142135620117188 -1.0
vertex -14.142135620117188 14.142135620117188 1.0
vertex -12.687865257263184 15.460208892822266 1.0
endloop
endfacet
facet normal -0.0 0.0 1.0
outer loop
vertex -14.142135620117188 14.142135620117188 1.0
vertex -13.73807430267334 13.73807430267334 1.0
vertex -12.687865257263184 15.460208892822266 1.0
endloop
endfacet
facet normal -0.6715587999782867 0.7409512657197663 0.0
outer loop
vertex -14.142135620117188 14.142135620117188 -1.0
vertex -12.687865257263184 15.460208892822266 1.0
vertex -12.687865257263184 15.460208892822266 -1.0
endloop
endfacet
facet normal 0.0 -0.0 1.0
outer loop
vertex -13.73807430267334 13.73807430267334 1.0
vertex -11.111404418945312 16.629392623901367 1.0
vertex -12.687865257263184 15.460208892822266 1.0
endloop
endfacet
facet normal -0.5956995310208506 0.8032073634756708 0.0
outer loop
vertex -11.111404418945312 16.629392623901367 -1.0
vertex -12.687865257263184 15.460208892822266 -1.0
vertex -11.111404418945312 16.629392623901367 1.0
endloop
endfacet
facet normal 0.0 -0.0 0.9999999999999999
outer loop
vertex -13.73807430267334 13.73807430267334 1.0
vertex -10.793935775756836 16.154266357421875 1.0
vertex -11.111404418945312 16.629392623901367 1.0
endloop
endfacet
facet normal -0.5956995310208506 0.8032073634756708 0.0
outer loop
vertex -11.111404418945312 16.629392623901367 1.0
vertex -12.687865257263184 15.460208892822266 -1.0
vertex -12.687865257263184 15.460208892822266 1.0
endloop
endfacet
facet normal -0.0 0.0 1.0
outer loop
vertex -11.111404418945312 16.629392623901367 1.0
vertex -10.793935775756836 16.154266357421875 1.0
vertex -9.427934646606445 17.638425827026367 1.0
endloop
endfacet
facet normal -0.5141028390402568 0.8577285531511398 0.0
outer loop
vertex -11.111404418945312 16.629392623901367 -1.0
vertex -11.111404418945312 16.629392623901367 1.0
vertex -9.427934646606445 17.638425827026367 1.0
endloop
endfacet
facet normal -0.0 0.0 -1.0
outer loop
vertex 19.90369415283203 1.9603427648544312 -1.0
vertex -19.90369415283203 -1.9603427648544312 -1.0
vertex -20.0 2.4492935992912173e-15 -1.0
endloop
endfacet
facet normal -0.0 0.0 -1.0
outer loop
vertex 19.90369415283203 1.9603427648544312 -1.0
vertex -20.0 2.4492935992912173e-15 -1.0
vertex -19.90369415283203 1.9603427648544312 -1.0
endloop
endfacet
facet normal -0.0 -0.0 0.9999999999999999
outer loop
vertex -17.485713958740234 2.2953379495894597e-15 1.0
vertex 17.485713958740234 0.0 1.0
vertex -17.149730682373047 3.4112935066223145 1.0
endloop
endfacet
facet normal 0.0 0.0 -1.0
outer loop
vertex 19.90369415283203 1.9603427648544312 -1.0
vertex -19.90369415283203 1.9603427648544312 -1.0
vertex -19.615705490112305 3.901806354522705 -1.0
endloop
endfacet
facet normal 0.0 0.0 -1.0
outer loop
vertex 19.90369415283203 1.9603427648544312 -1.0
vertex -19.615705490112305 3.901806354522705 -1.0
vertex -19.13880729675293 5.805693626403809 -1.0
endloop
endfacet
facet normal 0.0 0.0 1.0
outer loop
vertex -16.154693603515625 6.691493034362793 1.0
vertex -17.149730682373047 3.4112935066223145 1.0
vertex 17.485713958740234 0.0 1.0
endloop
endfacet
facet normal 0.0 0.0 -1.0
outer loop
vertex 19.90369415283203 1.9603427648544312 -1.0
vertex -19.13880729675293 5.805693626403809 -1.0
vertex -18.477590560913086 7.6536688804626465 -1.0
endloop
endfacet
facet normal 0.0 0.0 -0.9999999999999999
outer loop
vertex 19.90369415283203 1.9603427648544312 -1.0
vertex -18.477590560913086 7.6536688804626465 -1.0
vertex -17.638425827026367 9.427934646606445 -1.0
endloop
endfacet
facet normal 0.0 0.0 1.0
outer loop
vertex -14.538839340209961 9.714542388916016 1.0
vertex -16.154693603515625 6.691493034362793 1.0
vertex 17.485713958740234 0.0 1.0
endloop
endfacet
facet normal 0.0 0.0 -1.0
outer loop
vertex 19.90369415283203 1.9603427648544312 -1.0
vertex -17.638425827026367 9.427934646606445 -1.0
vertex -16.629392623901367 11.111404418945312 -1.0
endloop
endfacet
facet normal 0.0 0.0 1.0
outer loop
vertex -12.364267349243164 12.364267349243164 1.0
vertex -14.538839340209961 9.714542388916016 1.0
vertex 17.485713958740234 0.0 1.0
endloop
endfacet
facet normal 0.0 0.0 -1.0
outer loop
vertex 19.90369415283203 1.9603427648544312 -1.0
vertex -16.629392623901367 11.111404418945312 -1.0
vertex -15.460208892822266 12.687865257263184 -1.0
endloop
endfacet
facet normal 0.0 0.0 -1.0
outer loop
vertex 19.90369415283203 1.9603427648544312 -1.0
vertex -15.460208892822266 12.687865257263184 -1.0
vertex -14.142135620117188 14.142135620117188 -1.0
endloop
endfacet
facet normal 0.0 0.0 1.0
outer loop
vertex -9.714542388916016 14.538839340209961 1.0
vertex -12.364267349243164 12.364267349243164 1.0
vertex 17.485713958740234 0.0 1.0
endloop
endfacet
facet normal -0.5141028390402568 0.8577285531511398 0.0
outer loop
vertex -9.427934646606445 17.638425827026367 -1.0
vertex -11.111404418945312 16.629392623901367 -1.0
vertex -9.427934646606445 17.638425827026367 1.0
endloop
endfacet
facet normal 0.0 -0.0 1.0
outer loop
vertex -10.793935775756836 16.154266357421875 1.0
vertex -7.6536688804626465 18.477590560913086 1.0
vertex -9.427934646606445 17.638425827026367 1.0
endloop
endfacet
facet normal -0.4275548950049313 0.9039893869716181 0.0
outer loop
vertex -7.6536688804626465 18.477590560913086 1.0
vertex -9.427934646606445 17.638425827026367 -1.0
vertex -9.427934646606445 17.638425827026367 1.0
endloop
endfacet
facet normal -0.4275548950049313 0.9039893869716181 0.0
outer loop
vertex -9.427934646606445 17.638425827026367 -1.0
vertex -7.6536688804626465 18.477590560913086 1.0
vertex -7.6536688804626465 18.477590560913086 -1.0
endloop
endfacet
facet normal 0.0 -0.0 1.0
outer loop
vertex -10.793935775756836 16.154266357421875 1.0
vertex -7.434992790222168 17.94965934753418 1.0
vertex -7.6536688804626465 18.477590560913086 1.0
endloop
endfacet
facet normal -0.3368901321161071 0.9415439654539728 0.0
outer loop
vertex -7.6536688804626465 18.477590560913086 -1.0
vertex -7.6536688804626465 18.477590560913086 1.0
vertex -5.805693626403809 19.13880729675293 1.0
endloop
endfacet
facet normal -0.0 0.0 1.0
outer loop
vertex -7.6536688804626465 18.477590560913086 1.0
vertex -7.434992790222168 17.94965934753418 1.0
vertex -5.805693626403809 19.13880729675293 1.0
endloop
endfacet
facet normal -0.3368901321161071 0.9415439654539728 0.0
outer loop
vertex -7.6536688804626465 18.477590560913086 -1.0
vertex -5.805693626403809 19.13880729675293 1.0
vertex -5.805693626403809 19.13880729675293 -1.0
endloop
endfacet
facet normal 0.0 -0.0 1.0
outer loop
vertex -7.434992790222168 17.94965934753418 1.0
vertex -3.901806354522705 19.615705490112305 1.0
vertex -5.805693626403809 19.13880729675293 1.0
endloop
endfacet
facet normal -0.24297982421159142 0.9700313422906005 0.0
outer loop
vertex -3.901806354522705 19.615705490112305 1.0
vertex -5.805693626403809 19.13880729675293 -1.0
vertex -5.805693626403809 19.13880729675293 1.0
endloop
endfacet
facet normal 0.0 -0.0 1.0
outer loop
vertex -7.434992790222168 17.94965934753418 1.0
vertex -3.7903261184692383 19.055255889892578 1.0
vertex -3.901806354522705 19.615705490112305 1.0
endloop
endfacet
facet normal 0.0 0.0 -1.0
outer loop
vertex 19.90369415283203 1.9603427648544312 -1.0
vertex -14.142135620117188 14.142135620117188 -1.0
vertex -12.687865257263184 15.460208892822266 -1.0
endloop
endfacet
facet normal 0.0 0.0 -1.0
outer loop
vertex 19.90369415283203 1.9603427648544312 -1.0
vertex -12.687865257263184 15.460208892822266 -1.0
vertex -11.111404418945312 16.629392623901367 -1.0
endloop
endfacet
facet normal 0.0 0.0 -0.9999999999999999
outer loop
vertex 19.90369415283203 1.9603427648544312 -1.0
vertex -11.111404418945312 16.629392623901367 -1.0
vertex -9.427934646606445 17.638425827026367 -1.0
endloop
endfacet
facet normal -0.24297982421159142 0.9700313422906005 0.0
outer loop
vertex -5.805693626403809 19.13880729675293 -1.0
vertex -3.901806354522705 19.615705490112305 1.0
vertex -3.901806354522705 19.615705490112305 -1.0
endloop
endfacet
facet normal -0.14673034676988297 0.9891765289051241 0.0
outer loop
vertex -3.901806354522705 19.615705490112305 -1.0
vertex -1.9603427648544312 19.90369415283203 1.0
vertex -1.9603427648544312 19.90369415283203 -1.0
endloop
endfacet
facet normal -0.14673034676988297 0.9891765289051241 0.0
outer loop
vertex -3.901806354522705 19.615705490112305 -1.0
vertex -3.901806354522705 19.615705490112305 1.0
vertex -1.9603427648544312 19.90369415283203 1.0
endloop
endfacet
facet normal -0.0 0.0 1.0
outer loop
vertex -3.901806354522705 19.615705490112305 1.0
vertex -3.7903261184692383 19.055255889892578 1.0
vertex -1.9603427648544312 19.90369415283203 1.0
endloop
endfacet
facet normal 0.0 -0.0 1.0
outer loop
vertex -3.7903261184692383 19.055255889892578 1.0
vertex 1.2246467996456087e-15 20.0 1.0
vertex -1.9603427648544312 19.90369415283203 1.0
endloop
endfacet
facet normal -0.04906786882460942 0.9987954466501191 0.0
outer loop
vertex 1.2246467996456087e-15 20.0 1.0
vertex -1.9603427648544312 19.90369415283203 -1.0
vertex -1.9603427648544312 19.90369415283203 1.0
endloop
endfacet
facet normal 0.0 0.0 1.0
outer loop
vertex -3.7903261184692383 19.055255889892578 1.0
vertex 1.1896569273857176e-15 19.428571701049805 1.0
vertex 1.2246467996456087e-15 20.0 1.0
endloop
endfacet
facet normal -0.04906786882460942 0.9987954466501191 0.0
outer loop
vertex 1.2246467996456087e-15 20.0 -1.0
vertex -1.9603427648544312 19.90369415283203 -1.0
vertex 1.2246467996456087e-15 20.0 1.0
endloop
endfacet
facet normal 0.04906786882460937 -0.9987954466501192 0.0
outer loop
vertex -3.673940187178589e-15 -20.0 1.0
vertex -3.673940187178589e-15 -20.0 -1.0
vertex 1.9603427648544312 -19.90369415283203 -1.0
endloop
endfacet
facet normal 0.04906786882460937 -0.9987954466501192 0.0
outer loop
vertex -3.673940187178589e-15 -20.0 1.0
vertex 1.9603427648544312 -19.90369415283203 -1.0
vertex 1.9603427648544312 -19.90369415283203 1.0
endloop
endfacet
facet normal 0.0 -0.0 1.0
outer loop
vertex -3.673940187178589e-15 -20.0 1.0
vertex 3.7903261184692383 -19.055255889892578 1.0
vertex -3.568970358640679e-15 -19.428571701049805 1.0
endloop
endfacet
facet normal 0.0 0.0 1.0
outer loop
vertex -3.673940187178589e-15 -20.0 1.0
vertex 1.9603427648544312 -19.90369415283203 1.0
vertex 3.7903261184692383 -19.055255889892578 1.0
endloop
endfacet
facet normal 0.14673034676988297 -0.9891765289051241 0.0
outer loop
vertex 1.9603427648544312 -19.90369415283203 -1.0
vertex 3.901806354522705 -19.615705490112305 -1.0
vertex 1.9603427648544312 -19.90369415283203 1.0
endloop
endfacet
facet normal 0.14673034676988297 -0.9891765289051241 0.0
outer loop
vertex 3.901806354522705 -19.615705490112305 1.0
vertex 1.9603427648544312 -19.90369415283203 1.0
vertex 3.901806354522705 -19.615705490112305 -1.0
endloop
endfacet
facet normal 0.0 -0.0 1.0
outer loop
vertex 1.9603427648544312 -19.90369415283203 1.0
vertex 3.901806354522705 -19.615705490112305 1.0
vertex 3.7903261184692383 -19.055255889892578 1.0
endloop
endfacet
facet normal 0.24297982421159142 -0.9700313422906005 0.0
outer loop
vertex 3.901806354522705 -19.615705490112305 -1.0
vertex 5.805693626403809 -19.13880729675293 -1.0
vertex 3.901806354522705 -19.615705490112305 1.0
endloop
endfacet
facet normal 0.0 0.0 -1.0
outer loop
vertex -7.6536688804626465 -18.477590560913086 -1.0
vertex -9.427934646606445 -17.638425827026367 -1.0
vertex 19.90369415283203 1.9603427648544312 -1.0
endloop
endfacet
facet normal 0.0 0.0 1.0
outer loop
vertex 17.149730682373047 -3.4112935066223145 1.0
vertex -9.714542388916016 -14.538839340209961 1.0
vertex -6.691493034362793 -16.154693603515625 1.0
endloop
endfacet
facet normal 0.0 0.0 -1.0
outer loop
vertex -5.805693626403809 -19.13880729675293 -1.0
vertex -7.6536688804626465 -18.477590560913086 -1.0
vertex 19.90369415283203 1.9603427648544312 -1.0
endloop
endfacet
facet normal 0.0 -0.0 1.0
outer loop
vertex -3.4112935066223145 -17.149730682373047 1.0
vertex 17.149730682373047 -3.4112935066223145 1.0
vertex -6.691493034362793 -16.154693603515625 1.0
endloop
endfacet
facet normal 0.0 0.0 -1.0
outer loop
vertex -1.9603427648544312 -19.90369415283203 -1.0
vertex -3.901806354522705 -19.615705490112305 -1.0
vertex 19.90369415283203 1.9603427648544312 -1.0
endloop
endfacet
facet normal 0.0 -0.0 1.0
outer loop
vertex -3.21207366158979e-15 -17.485713958740234 1.0
vertex 17.149730682373047 -3.4112935066223145 1.0
vertex -3.4112935066223145 -17.149730682373047 1.0
endloop
endfacet
facet normal 0.0 0.0 -1.0
outer loop
vertex -3.901806354522705 -19.615705490112305 -1.0
vertex -5.805693626403809 -19.13880729675293 -1.0
vertex 19.90369415283203 1.9603427648544312 -1.0
endloop
endfacet
facet normal 0.24297982421159142 -0.9700313422906005 0.0
outer loop
vertex 3.901806354522705 -19.615705490112305 1.0
vertex 5.805693626403809 -19.13880729675293 -1.0
vertex 5.805693626403809 -19.13880729675293 1.0
endloop
endfacet
facet normal 0.0 -0.0 1.0
outer loop
vertex 3.901806354522705 -19.615705490112305 1.0
vertex 7.434992790222168 -17.94965934753418 1.0
vertex 3.7903261184692383 -19.055255889892578 1.0
endloop
endfacet
facet normal 0.0 0.0 1.0
outer loop
vertex 3.901806354522705 -19.615705490112305 1.0
vertex 5.805693626403809 -19.13880729675293 1.0
vertex 7.434992790222168 -17.94965934753418 1.0
endloop
endfacet
facet normal 0.3368901321161071 -0.9415439654539728 0.0
outer loop
vertex 5.805693626403809 -19.13880729675293 -1.0
vertex 7.6536688804626465 -18.477590560913086 -1.0
vertex 5.805693626403809 -19.13880729675293 1.0
endloop
endfacet
facet normal 0.3368901321161071 -0.9415439654539728 0.0
outer loop
vertex 7.6536688804626465 -18.477590560913086 1.0
vertex 5.805693626403809 -19.13880729675293 1.0
vertex 7.6536688804626465 -18.477590560913086 -1.0
endloop
endfacet
facet normal 0.0 -0.0 1.0
outer loop
vertex 5.805693626403809 -19.13880729675293 1.0
vertex 7.6536688804626465 -18.477590560913086 1.0
vertex 7.434992790222168 -17.94965934753418 1.0
endloop
endfacet
facet normal 0.4275548950049313 -0.9039893869716181 0.0
outer loop
vertex 7.6536688804626465 -18.477590560913086 -1.0
vertex 9.427934646606445 -17.638425827026367 -1.0
vertex 7.6536688804626465 -18.477590560913086 1.0
endloop
endfacet
facet normal 0.0 -0.0 1.0
outer loop
vertex 7.6536688804626465 -18.477590560913086 1.0
vertex 10.793935775756836 -16.154266357421875 1.0
vertex 7.434992790222168 -17.94965934753418 1.0
endloop
endfacet
facet normal 0.4275548950049313 -0.9039893869716181 0.0
outer loop
vertex 7.6536688804626465 -18.477590560913086 1.0
vertex 9.427934646606445 -17.638425827026367 -1.0
vertex 9.427934646606445 -17.638425827026367 1.0
endloop
endfacet
facet normal 0.5141028390402568 -0.8577285531511398 0.0
outer loop
vertex 9.427934646606445 -17.638425827026367 -1.0
vertex 11.111404418945312 -16.629392623901367 -1.0
vertex 9.427934646606445 -17.638425827026367 1.0
endloop
endfacet
facet normal 0.0 0.0 1.0
outer loop
vertex 7.6536688804626465 -18.477590560913086 1.0
vertex 9.427934646606445 -17.638425827026367 1.0
vertex 10.793935775756836 -16.154266357421875 1.0
endloop
endfacet
facet normal 0.0 0.0 -1.0
outer loop
vertex -3.673940187178589e-15 -20.0 -1.0
vertex -1.9603427648544312 -19.90369415283203 -1.0
vertex 19.90369415283203 1.9603427648544312 -1.0
endloop
endfacet
facet normal 0.0 -0.0 -1.0
outer loop
vertex -3.673940187178589e-15 -20.0 -1.0
vertex 19.90369415283203 1.9603427648544312 -1.0
vertex 1.9603427648544312 -19.90369415283203 -1.0
endloop
endfacet
facet normal 0.0 -0.0 1.0
outer loop
vertex 3.4112935066223145 -17.149730682373047 1.0
vertex 17.149730682373047 -3.4112935066223145 1.0
vertex -3.21207366158979e-15 -17.485713958740234 1.0
endloop
endfacet
facet normal 0.0 -0.0 -1.0
outer loop
vertex 1.9603427648544312 -19.90369415283203 -1.0
vertex 19.90369415283203 1.9603427648544312 -1.0
vertex 3.901806354522705 -19.615705490112305 -1.0
endloop
endfacet
facet normal 0.0 -0.0 -1.0
outer loop
vertex 3.901806354522705 -19.615705490112305 -1.0
vertex 19.90369415283203 1.9603427648544312 -1.0
vertex 5.805693626403809 -19.13880729675293 -1.0
endloop
endfacet
facet normal -0.0 0.0 1.0
outer loop
vertex 17.149730682373047 -3.4112935066223145 1.0
vertex 3.4112935066223145 -17.149730682373047 1.0
vertex 6.691493034362793 -16.154693603515625 1.0
endloop
endfacet
facet normal -0.7409512657197663 -0.6715587999782867 0.0
outer loop
vertex -15.460208892822266 -12.687865257263184 -1.0
vertex -14.142135620117188 -14.142135620117188 -1.0
vertex -15.460208892822266 -12.687865257263184 1.0
endloop
endfacet
facet normal -0.0 -0.0 1.0
outer loop
vertex -15.460208892822266 -12.687865257263184 1.0
vertex -13.73807430267334 -13.73807430267334 1.0
vertex -16.629392623901367 -11.111404418945312 1.0
endloop
endfacet
facet normal -0.8577285531511398 -0.5141028390402568 0.0
outer loop
vertex -16.629392623901367 -11.111404418945312 -1.0
vertex -16.629392623901367 -11.111404418945312 1.0
vertex -17.638425827026367 -9.427934646606445 1.0
endloop
endfacet
facet normal -0.0 0.0 1.0
outer loop
vertex -17.638425827026367 -9.427934646606445 1.0
vertex -16.629392623901367 -11.111404418945312 1.0
vertex -16.154266357421875 -10.793935775756836 1.0
endloop
endfacet
facet normal -0.8032073634756708 -0.5956995310208506 0.0
outer loop
vertex -16.629392623901367 -11.111404418945312 -1.0
vertex -15.460208892822266 -12.687865257263184 -1.0
vertex -16.629392623901367 -11.111404418945312 1.0
endloop
endfacet
facet normal -0.8032073634756708 -0.5956995310208506 0.0
outer loop
vertex -16.629392623901367 -11.111404418945312 1.0
vertex -15.460208892822266 -12.687865257263184 -1.0
vertex -15.460208892822266 -12.687865257263184 1.0
endloop
endfacet
facet normal 0.0 0.0 1.0
outer loop
vertex 17.485713958740234 0.0 1.0
vertex -17.485713958740234 2.2953379495894597e-15 1.0
vertex 17.149730682373047 -3.4112935066223145 1.0
endloop
endfacet
facet normal -0.0 -0.0 0.9999999999999999
outer loop
vertex -16.629392623901367 -11.111404418945312 1.0
vertex -13.73807430267334 -13.73807430267334 1.0
vertex -16.154266357421875 -10.793935775756836 1.0
endloop
endfacet
facet normal -0.6715587999782867 -0.7409512657197663 0.0
outer loop
vertex -14.142135620117188 -14.142135620117188 1.0
vertex -12.687865257263184 -15.460208892822266 -1.0
vertex -12.687865257263184 -15.460208892822266 1.0
endloop
endfacet
facet normal -0.0 -0.0 1.0
outer loop
vertex -12.687865257263184 -15.460208892822266 1.0
vertex -10.793935775756836 -16.154266357421875 1.0
vertex -14.142135620117188 -14.142135620117188 1.0
endloop
endfacet
facet normal -0.5956995310208506 -0.8032073634756708 0.0
outer loop
vertex -12.687865257263184 -15.460208892822266 -1.0
vertex -11.111404418945312 -16.629392623901367 -1.0
vertex -12.687865257263184 -15.460208892822266 1.0
endloop
endfacet
facet normal 0.5141028390402568 -0.8577285531511398 0.0
outer loop
vertex 11.111404418945312 -16.629392623901367 -1.0
vertex 11.111404418945312 -16.629392623901367 1.0
vertex 9.427934646606445 -17.638425827026367 1.0
endloop
endfacet
facet normal 0.0 -0.0 1.0
outer loop
vertex 9.427934646606445 -17.638425827026367 1.0
vertex 11.111404418945312 -16.629392623901367 1.0
vertex 10.793935775756836 -16.154266357421875 1.0
endloop
endfacet
facet normal 0.5956995310208506 -0.8032073634756708 0.0
outer loop
vertex 11.111404418945312 -16.629392623901367 -1.0
vertex 12.687865257263184 -15.460208892822266 -1.0
vertex 11.111404418945312 -16.629392623901367 1.0
endloop
endfacet
facet normal 0.5956995310208506 -0.8032073634756708 0.0
outer loop
vertex 11.111404418945312 -16.629392623901367 1.0
vertex 12.687865257263184 -15.460208892822266 -1.0
vertex 12.687865257263184 -15.460208892822266 1.0
endloop
endfacet
facet normal 0.0 -0.0 0.9999999999999999
outer loop
vertex 11.111404418945312 -16.629392623901367 1.0
vertex 13.73807430267334 -13.73807430267334 1.0
vertex 10.793935775756836 -16.154266357421875 1.0
endloop
endfacet
facet normal 0.6715587999782867 -0.7409512657197663 0.0
outer loop
vertex 12.687865257263184 -15.460208892822266 -1.0
vertex 14.142135620117188 -14.142135620117188 -1.0
vertex 12.687865257263184 -15.460208892822266 1.0
endloop
endfacet
facet normal 0.0 0.0 1.0
outer loop
vertex 11.111404418945312 -16.629392623901367 1.0
vertex 12.687865257263184 -15.460208892822266 1.0
vertex 13.73807430267334 -13.73807430267334 1.0
endloop
endfacet
facet normal -0.0 0.0 -1.0
outer loop
vertex 7.6536688804626465 -18.477590560913086 -1.0
vertex 5.805693626403809 -19.13880729675293 -1.0
vertex 19.90369415283203 1.9603427648544312 -1.0
endloop
endfacet
facet normal -0.0 0.0 1.0
outer loop
vertex 16.154693603515625 -6.691493034362793 1.0
vertex 6.691493034362793 -16.154693603515625 1.0
vertex 9.714542388916016 -14.538839340209961 1.0
endloop
endfacet
facet normal -0.0 0.0 -0.9999999999999999
outer loop
vertex 9.427934646606445 -17.638425827026367 -1.0
vertex 7.6536688804626465 -18.477590560913086 -1.0
vertex 19.90369415283203 1.9603427648544312 -1.0
endloop
endfacet
facet normal 0.6715587999782867 -0.7409512657197663 0.0
outer loop
vertex 14.142135620117188 -14.142135620117188 -1.0
vertex 14.142135620117188 -14.142135620117188 1.0
vertex 12.687865257263184 -15.460208892822266 1.0
endloop
endfacet
facet normal 0.0 -0.0 1.0
outer loop
vertex 12.687865257263184 -15.460208892822266 1.0
vertex 14.142135620117188 -14.142135620117188 1.0
vertex 13.73807430267334 -13.73807430267334 1.0
endloop
endfacet
facet normal 0.7409512657197663 -0.6715587999782867 0.0
outer loop
vertex 14.142135620117188 -14.142135620117188 -1.0
vertex 15.460208892822266 -12.687865257263184 -1.0
vertex 14.142135620117188 -14.142135620117188 1.0
endloop
endfacet
facet normal 0.0 -0.0 1.0
outer loop
vertex 14.142135620117188 -14.142135620117188 1.0
vertex 16.154266357421875 -10.793935775756836 1.0
vertex 13.73807430267334 -13.73807430267334 1.0
endloop
endfacet
facet normal -0.0 0.0 -1.0
outer loop
vertex 11.111404418945312 -16.629392623901367 -1.0
vertex 9.427934646606445 -17.638425827026367 -1.0
vertex 19.90369415283203 1.9603427648544312 -1.0
endloop
endfacet
facet normal 0.0 -0.0 0.9999999999999999
outer loop
vertex 12.364267349243164 -12.364267349243164 1.0
vertex 16.154693603515625 -6.691493034362793 1.0
vertex 9.714542388916016 -14.538839340209961 1.0
endloop
endfacet
facet normal 0.0 -0.0 -1.0
outer loop
vertex 11.111404418945312 -16.629392623901367 -1.0
vertex 19.90369415283203 1.9603427648544312 -1.0
vertex 12.687865257263184 -15.460208892822266 -1.0
endloop
endfacet
facet normal 0.7409512657197663 -0.6715587999782867 0.0
outer loop
vertex 14.142135620117188 -14.142135620117188 1.0
vertex 15.460208892822266 -12.687865257263184 -1.0
vertex 15.460208892822266 -12.687865257263184 1.0
endloop
endfacet
facet normal 0.0 0.0 1.0
outer loop
vertex 14.142135620117188 -14.142135620117188 1.0
vertex 15.460208892822266 -12.687865257263184 1.0
vertex 16.154266357421875 -10.793935775756836 1.0
endloop
endfacet
facet normal 0.8032073634756708 -0.5956995310208506 0.0
outer loop
vertex 15.460208892822266 -12.687865257263184 -1.0
vertex 16.629392623901367 -11.111404418945312 -1.0
vertex 15.460208892822266 -12.687865257263184 1.0
endloop
endfacet
facet normal 0.8032073634756708 -0.5956995310208506 0.0
outer loop
vertex 16.629392623901367 -11.111404418945312 -1.0
vertex 16.629392623901367 -11.111404418945312 1.0
vertex 15.460208892822266 -12.687865257263184 1.0
endloop
endfacet
facet normal -0.0 0.0 1.0
outer loop
vertex 16.154266357421875 -10.793935775756836 1.0
vertex 15.460208892822266 -12.687865257263184 1.0
vertex 16.629392623901367 -11.111404418945312 1.0
endloop
endfacet
facet normal 0.8577285531511398 -0.5141028390402568 0.0
outer loop
vertex 16.629392623901367 -11.111404418945312 -1.0
vertex 17.638425827026367 -9.427934646606445 -1.0
vertex 16.629392623901367 -11.111404418945312 1.0
endloop
endfacet
facet normal 0.0 -0.0 0.9999999999999999
outer loop
vertex 16.154693603515625 -6.691493034362793 1.0
vertex 17.149730682373047 -3.4112935066223145 1.0
vertex 6.691493034362793 -16.154693603515625 1.0
endloop
endfacet
facet normal -0.0 0.0 1.0
outer loop
vertex 16.154693603515625 -6.691493034362793 1.0
vertex 12.364267349243164 -12.364267349243164 1.0
vertex 14.538839340209961 -9.714542388916016 1.0
endloop
endfacet
facet normal -0.0 0.0 -1.0
outer loop
vertex 14.142135620117188 -14.142135620117188 -1.0
vertex 12.687865257263184 -15.460208892822266 -1.0
vertex 19.90369415283203 1.9603427648544312 -1.0
endloop
endfacet
facet normal 0.8577285531511398 -0.5141028390402568 0.0
outer loop
vertex 16.629392623901367 -11.111404418945312 1.0
vertex 17.638425827026367 -9.427934646606445 -1.0
vertex 17.638425827026367 -9.427934646606445 1.0
endloop
endfacet
facet normal 0.0 -0.0 0.9999999999999999
outer loop
vertex 16.629392623901367 -11.111404418945312 1.0
vertex 17.94965934753418 -7.434992790222168 1.0
vertex 16.154266357421875 -10.793935775756836 1.0
endloop
endfacet
facet normal -0.0 0.0 1.0
outer loop
vertex 17.94965934753418 -7.434992790222168 1.0
vertex 16.629392623901367 -11.111404418945312 1.0
vertex 17.638425827026367 -9.427934646606445 1.0
endloop
endfacet
facet normal -0.0 0.0 -1.0
outer loop
vertex 15.460208892822266 -12.687865257263184 -1.0
vertex 14.142135620117188 -14.142135620117188 -1.0
vertex 19.90369415283203 1.9603427648544312 -1.0
endloop
endfacet
facet normal -0.0 0.0 -1.0
outer loop
vertex 16.629392623901367 -11.111404418945312 -1.0
vertex 15.460208892822266 -12.687865257263184 -1.0
vertex 19.90369415283203 1.9603427648544312 -1.0
endloop
endfacet
facet normal 0.9039893869716181 -0.4275548950049313 0.0
outer loop
vertex 17.638425827026367 -9.427934646606445 -1.0
vertex 18.477590560913086 -7.6536688804626465 -1.0
vertex 17.638425827026367 -9.427934646606445 1.0
endloop
endfacet
facet normal 0.9039893869716181 -0.4275548950049313 0.0
outer loop
vertex 18.477590560913086 -7.6536688804626465 1.0
vertex 17.638425827026367 -9.427934646606445 1.0
vertex 18.477590560913086 -7.6536688804626465 -1.0
endloop
endfacet
facet normal 0.9415439654539728 -0.3368901321161071 0.0
outer loop
vertex 19.13880729675293 -5.805693626403809 -1.0
vertex 18.477590560913086 -7.6536688804626465 1.0
vertex 18.477590560913086 -7.6536688804626465 -1.0
endloop
endfacet
facet normal -0.0 0.0 1.0
outer loop
vertex 17.94965934753418 -7.434992790222168 1.0
vertex 17.638425827026367 -9.427934646606445 1.0
vertex 19.055255889892578 -3.7903261184692383 1.0
endloop
endfacet
facet normal -0.0 0.0 0.9999999999999999
outer loop
vertex 19.055255889892578 -3.7903261184692383 1.0
vertex 17.638425827026367 -9.427934646606445 1.0
vertex 18.477590560913086 -7.6536688804626465 1.0
endloop
endfacet
facet normal -0.0 0.0 -1.0
outer loop
vertex 17.638425827026367 -9.427934646606445 -1.0
vertex 16.629392623901367 -11.111404418945312 -1.0
vertex 19.90369415283203 1.9603427648544312 -1.0
endloop
endfacet
facet normal 0.0 -0.0 -0.9999999999999999
outer loop
vertex 17.638425827026367 -9.427934646606445 -1.0
vertex 19.90369415283203 1.9603427648544312 -1.0
vertex 18.477590560913086 -7.6536688804626465 -1.0
endloop
endfacet
facet normal 0.9415439654539728 -0.3368901321161071 0.0
outer loop
vertex 18.477590560913086 -7.6536688804626465 1.0
vertex 19.13880729675293 -5.805693626403809 -1.0
vertex 19.13880729675293 -5.805693626403809 1.0
endloop
endfacet
facet normal 0.9700313422906005 -0.24297982421159142 0.0
outer loop
vertex 19.13880729675293 -5.805693626403809 -1.0
vertex 19.615705490112305 -3.901806354522705 -1.0
vertex 19.13880729675293 -5.805693626403809 1.0
endloop
endfacet
facet normal 0.0 -0.0 -0.9999999999999999
outer loop
vertex 18.477590560913086 -7.6536688804626465 -1.0
vertex 19.90369415283203 1.9603427648544312 -1.0
vertex 19.13880729675293 -5.805693626403809 -1.0
endloop
endfacet
facet normal -0.0 0.0 1.0
outer loop
vertex 20.0 0.0 1.0
vertex 18.477590560913086 -7.6536688804626465 1.0
vertex 19.13880729675293 -5.805693626403809 1.0
endloop
endfacet
facet normal -0.0 0.0 1.0
outer loop
vertex 19.055255889892578 -3.7903261184692383 1.0
vertex 18.477590560913086 -7.6536688804626465 1.0
vertex 20.0 0.0 1.0
endloop
endfacet
facet normal 0.9700313422906005 -0.24297982421159142 0.0
outer loop
vertex 19.615705490112305 -3.901806354522705 1.0
vertex 19.13880729675293 -5.805693626403809 1.0
vertex 19.615705490112305 -3.901806354522705 -1.0
endloop
endfacet
facet normal 0.9891765289051241 -0.14673034676988297 0.0
outer loop
vertex 19.90369415283203 -1.9603427648544312 -1.0
vertex 19.615705490112305 -3.901806354522705 1.0
vertex 19.615705490112305 -3.901806354522705 -1.0
endloop
endfacet
facet normal 0.0 -0.0 -1.0
outer loop
vertex 19.13880729675293 -5.805693626403809 -1.0
vertex 19.90369415283203 1.9603427648544312 -1.0
vertex 19.615705490112305 -3.901806354522705 -1.0
endloop
endfacet
facet normal -0.0 0.0 1.0
outer loop
vertex 20.0 0.0 1.0
vertex 19.13880729675293 -5.805693626403809 1.0
vertex 19.615705490112305 -3.901806354522705 1.0
endloop
endfacet
facet normal 0.9891765289051241 -0.14673034676988297 0.0
outer loop
vertex 19.615705490112305 -3.901806354522705 1.0
vertex 19.90369415283203 -1.9603427648544312 -1.0
vertex 19.90369415283203 -1.9603427648544312 1.0
endloop
endfacet
facet normal 0.0 0.0 -1.0
outer loop
vertex 19.615705490112305 -3.901806354522705 -1.0
vertex 19.90369415283203 1.9603427648544312 -1.0
vertex 19.90369415283203 -1.9603427648544312 -1.0
endloop
endfacet
facet normal 0.998795446650119 -0.04906786882460946 0.0
outer loop
vertex 19.90369415283203 -1.9603427648544312 -1.0
vertex 20.0 0.0 -1.0
vertex 19.90369415283203 -1.9603427648544312 1.0
endloop
endfacet
facet normal -0.0 0.0 1.0
outer loop
vertex 20.0 0.0 1.0
vertex 19.615705490112305 -3.901806354522705 1.0
vertex 19.90369415283203 -1.9603427648544312 1.0
endloop
endfacet
facet normal 0.0 -0.0 1.0
outer loop
vertex 19.055255889892578 -3.7903261184692383 1.0
vertex 20.0 0.0 1.0
vertex 19.428571701049805 3.498990865583803e-17 1.0
endloop
endfacet
facet normal 0.998795446650119 -0.04906786882460946 0.0
outer loop
vertex 19.90369415283203 -1.9603427648544312 1.0
vertex 20.0 0.0 -1.0
vertex 20.0 0.0 1.0
endloop
endfacet
facet normal -0.5956995310208506 -0.8032073634756708 0.0
outer loop
vertex -11.111404418945312 -16.629392623901367 -1.0
vertex -11.111404418945312 -16.629392623901367 1.0
vertex -12.687865257263184 -15.460208892822266 1.0
endloop
endfacet
facet normal -0.0 0.0 1.0
outer loop
vertex -12.687865257263184 -15.460208892822266 1.0
vertex -11.111404418945312 -16.629392623901367 1.0
vertex -10.793935775756836 -16.154266357421875 1.0
endloop
endfacet
facet normal -0.5141028390402568 -0.8577285531511398 0.0
outer loop
vertex -11.111404418945312 -16.629392623901367 -1.0
vertex -9.427934646606445 -17.638425827026367 -1.0
vertex -11.111404418945312 -16.629392623901367 1.0
endloop
endfacet
facet normal -0.7409512657197663 -0.6715587999782867 0.0
outer loop
vertex -14.142135620117188 -14.142135620117188 -1.0
vertex -14.142135620117188 -14.142135620117188 1.0
vertex -15.460208892822266 -12.687865257263184 1.0
endloop
endfacet
facet normal -0.0 0.0 1.0
outer loop
vertex -15.460208892822266 -12.687865257263184 1.0
vertex -14.142135620117188 -14.142135620117188 1.0
vertex -13.73807430267334 -13.73807430267334 1.0
endloop
endfacet
facet normal -0.6715587999782867 -0.7409512657197663 0.0
outer loop
vertex -14.142135620117188 -14.142135620117188 -1.0
vertex -12.687865257263184 -15.460208892822266 -1.0
vertex -14.142135620117188 -14.142135620117188 1.0
endloop
endfacet
facet normal -0.0 -0.0 1.0
outer loop
vertex -14.142135620117188 -14.142135620117188 1.0
vertex -10.793935775756836 -16.154266357421875 1.0
vertex -13.73807430267334 -13.73807430267334 1.0
endloop
endfacet
facet normal -0.9039893869716181 -0.4275548950049313 0.0
outer loop
vertex -18.477590560913086 -7.6536688804626465 1.0
vertex -17.638425827026367 -9.427934646606445 -1.0
vertex -17.638425827026367 -9.427934646606445 1.0
endloop
endfacet
facet normal -0.9039893869716181 -0.4275548950049313 -0.0
outer loop
vertex -17.638425827026367 -9.427934646606445 -1.0
vertex -18.477590560913086 -7.6536688804626465 1.0
vertex -18.477590560913086 -7.6536688804626465 -1.0
endloop
endfacet
facet normal -0.0 -0.0 1.0
outer loop
vertex -18.477590560913086 -7.6536688804626465 1.0
vertex -16.154266357421875 -10.793935775756836 1.0
vertex -17.94965934753418 -7.434992790222168 1.0
endloop
endfacet
facet normal 0.0 0.0 1.0
outer loop
vertex -6.691493034362793 16.154693603515625 1.0
vertex -9.714542388916016 14.538839340209961 1.0
vertex 17.485713958740234 0.0 1.0
endloop
endfacet
facet normal 0.0 0.0 1.0
outer loop
vertex -3.4112935066223145 17.149730682373047 1.0
vertex -6.691493034362793 16.154693603515625 1.0
vertex 17.485713958740234 0.0 1.0
endloop
endfacet
facet normal 0.0 0.0 -1.0
outer loop
vertex 19.90369415283203 1.9603427648544312 -1.0
vertex -9.427934646606445 17.638425827026367 -1.0
vertex -7.6536688804626465 18.477590560913086 -1.0
endloop
endfacet
facet normal 0.0 0.0 -1.0
outer loop
vertex 19.90369415283203 1.9603427648544312 -1.0
vertex -7.6536688804626465 18.477590560913086 -1.0
vertex -5.805693626403809 19.13880729675293 -1.0
endloop
endfacet
facet normal -0.0 -0.0 1.0
outer loop
vertex -3.4112935066223145 17.149730682373047 1.0
vertex 17.485713958740234 0.0 1.0
vertex 1.0706912558229695e-15 17.485713958740234 1.0
endloop
endfacet
facet normal 0.0 0.0 -1.0
outer loop
vertex 19.90369415283203 1.9603427648544312 -1.0
vertex -5.805693626403809 19.13880729675293 -1.0
vertex -3.901806354522705 19.615705490112305 -1.0
endloop
endfacet
facet normal 0.0 0.0 -1.0
outer loop
vertex 19.90369415283203 1.9603427648544312 -1.0
vertex -3.901806354522705 19.615705490112305 -1.0
vertex -1.9603427648544312 19.90369415283203 -1.0
endloop
endfacet
facet normal 0.0490678688246095 0.9987954466501192 0.0
outer loop
vertex 1.2246467996456087e-15 20.0 1.0
vertex 1.9603427648544312 19.90369415283203 1.0
vertex 1.2246467996456087e-15 20.0 -1.0
endloop
endfacet
facet normal -0.0 0.0 1.0
outer loop
vertex 1.2246467996456087e-15 20.0 1.0
vertex 1.1896569273857176e-15 19.428571701049805 1.0
vertex 1.9603427648544312 19.90369415283203 1.0
endloop
endfacet
facet normal 0.0490678688246095 0.9987954466501192 0.0
outer loop
vertex 1.9603427648544312 19.90369415283203 -1.0
vertex 1.2246467996456087e-15 20.0 -1.0
vertex 1.9603427648544312 19.90369415283203 1.0
endloop
endfacet
facet normal 0.0 -0.0 1.0
outer loop
vertex 1.1896569273857176e-15 19.428571701049805 1.0
vertex 3.901806354522705 19.615705490112305 1.0
vertex 1.9603427648544312 19.90369415283203 1.0
endloop
endfacet
facet normal 0.14673034676988297 0.9891765289051241 0.0
outer loop
vertex 1.9603427648544312 19.90369415283203 -1.0
vertex 3.901806354522705 19.615705490112305 1.0
vertex 3.901806354522705 19.615705490112305 -1.0
endloop
endfacet
facet normal -0.0 0.0 1.0
outer loop
vertex 1.1896569273857176e-15 19.428571701049805 1.0
vertex 3.7903261184692383 19.055255889892578 1.0
vertex 3.901806354522705 19.615705490112305 1.0
endloop
endfacet
facet normal 0.14673034676988297 0.9891765289051241 -0.0
outer loop
vertex 3.901806354522705 19.615705490112305 1.0
vertex 1.9603427648544312 19.90369415283203 -1.0
vertex 1.9603427648544312 19.90369415283203 1.0
endloop
endfacet
facet normal -0.0 0.0 1.0
outer loop
vertex 3.901806354522705 19.615705490112305 1.0
vertex 3.7903261184692383 19.055255889892578 1.0
vertex 5.805693626403809 19.13880729675293 1.0
endloop
endfacet
facet normal 0.24297982421159142 0.9700313422906005 -0.0
outer loop
vertex 3.901806354522705 19.615705490112305 -1.0
vertex 3.901806354522705 19.615705490112305 1.0
vertex 5.805693626403809 19.13880729675293 1.0
endloop
endfacet
facet normal -0.0 -0.0 1.0
outer loop
vertex 1.0706912558229695e-15 17.485713958740234 1.0
vertex 17.485713958740234 0.0 1.0
vertex 3.4112935066223145 17.149730682373047 1.0
endloop
endfacet
facet normal 0.0 0.0 -1.0
outer loop
vertex 19.90369415283203 1.9603427648544312 -1.0
vertex -1.9603427648544312 19.90369415283203 -1.0
vertex 1.2246467996456087e-15 20.0 -1.0
endloop
endfacet
facet normal 0.0 0.0 -1.0
outer loop
vertex 19.90369415283203 1.9603427648544312 -1.0
vertex 1.2246467996456087e-15 20.0 -1.0
vertex 1.9603427648544312 19.90369415283203 -1.0
endloop
endfacet
facet normal -0.0 -0.0 1.0
outer loop
vertex 3.4112935066223145 17.149730682373047 1.0
vertex 17.485713958740234 0.0 1.0
vertex 6.691493034362793 16.154693603515625 1.0
endloop
endfacet
facet normal 0.0 0.0 -1.0
outer loop
vertex 19.90369415283203 1.9603427648544312 -1.0
vertex 1.9603427648544312 19.90369415283203 -1.0
vertex 3.901806354522705 19.615705490112305 -1.0
endloop
endfacet
facet normal 0.0 0.0 -1.0
outer loop
vertex 19.90369415283203 1.9603427648544312 -1.0
vertex 3.901806354522705 19.615705490112305 -1.0
vertex 5.805693626403809 19.13880729675293 -1.0
endloop
endfacet
facet normal 0.24297982421159142 0.9700313422906005 0.0
outer loop
vertex 5.805693626403809 19.13880729675293 -1.0
vertex 3.901806354522705 19.615705490112305 -1.0
vertex 5.805693626403809 19.13880729675293 1.0
endloop
endfacet
facet normal -0.0 -0.0 1.0
outer loop
vertex 3.7903261184692383 19.055255889892578 1.0
vertex 7.6536688804626465 18.477590560913086 1.0
vertex 5.805693626403809 19.13880729675293 1.0
endloop
endfacet
facet normal 0.3368901321161071 0.9415439654539728 0.0
outer loop
vertex 5.805693626403809 19.13880729675293 -1.0
vertex 7.6536688804626465 18.477590560913086 1.0
vertex 7.6536688804626465 18.477590560913086 -1.0
endloop
endfacet
facet normal -0.0 0.0 1.0
outer loop
vertex 3.7903261184692383 19.055255889892578 1.0
vertex 7.434992790222168 17.94965934753418 1.0
vertex 7.6536688804626465 18.477590560913086 1.0
endloop
endfacet
facet normal 0.3368901321161071 0.9415439654539728 -0.0
outer loop
vertex 7.6536688804626465 18.477590560913086 1.0
vertex 5.805693626403809 19.13880729675293 -1.0
vertex 5.805693626403809 19.13880729675293 1.0
endloop
endfacet
facet normal -0.0 -0.0 1.0
outer loop
vertex 7.434992790222168 17.94965934753418 1.0
vertex 11.111404418945312 16.629392623901367 1.0
vertex 9.427934646606445 17.638425827026367 1.0
endloop
endfacet
facet normal 0.5141028390402568 0.8577285531511398 -0.0
outer loop
vertex 11.111404418945312 16.629392623901367 1.0
vertex 9.427934646606445 17.638425827026367 -1.0
vertex 9.427934646606445 17.638425827026367 1.0
endloop
endfacet
facet normal -0.0 0.0 0.9999999999999999
outer loop
vertex 7.434992790222168 17.94965934753418 1.0
vertex 10.793935775756836 16.154266357421875 1.0
vertex 11.111404418945312 16.629392623901367 1.0
endloop
endfacet
facet normal 0.0 0.0 1.0
outer loop
vertex 7.6536688804626465 18.477590560913086 1.0
vertex 7.434992790222168 17.94965934753418 1.0
vertex 9.427934646606445 17.638425827026367 1.0
endloop
endfacet
facet normal 0.4275548950049313 0.9039893869716181 -0.0
outer loop
vertex 7.6536688804626465 18.477590560913086 -1.0
vertex 7.6536688804626465 18.477590560913086 1.0
vertex 9.427934646606445 17.638425827026367 1.0
endloop
endfacet
facet normal 0.4275548950049313 0.9039893869716181 0.0
outer loop
vertex 7.6536688804626465 18.477590560913086 -1.0
vertex 9.427934646606445 17.638425827026367 1.0
vertex 9.427934646606445 17.638425827026367 -1.0
endloop
endfacet
facet normal -0.9415439654539728 -0.3368901321161071 -0.0
outer loop
vertex -18.477590560913086 -7.6536688804626465 -1.0
vertex -19.13880729675293 -5.805693626403809 1.0
vertex -19.13880729675293 -5.805693626403809 -1.0
endloop
endfacet
facet normal -0.0 -0.0 1.0
outer loop
vertex -19.13880729675293 -5.805693626403809 1.0
vertex -17.94965934753418 -7.434992790222168 1.0
vertex -19.615705490112305 -3.901806354522705 1.0
endloop
endfacet
facet normal -0.9700313422906005 -0.24297982421159142 0.0
outer loop
vertex -19.615705490112305 -3.901806354522705 1.0
vertex -19.13880729675293 -5.805693626403809 -1.0
vertex -19.13880729675293 -5.805693626403809 1.0
endloop
endfacet
facet normal -0.0 -0.0 1.0
outer loop
vertex -19.615705490112305 -3.901806354522705 1.0
vertex -17.94965934753418 -7.434992790222168 1.0
vertex -19.055255889892578 -3.7903261184692383 1.0
endloop
endfacet
facet normal -0.9415439654539728 -0.3368901321161071 0.0
outer loop
vertex -18.477590560913086 -7.6536688804626465 1.0
vertex -19.13880729675293 -5.805693626403809 1.0
vertex -18.477590560913086 -7.6536688804626465 -1.0
endloop
endfacet
facet normal -0.0 0.0 1.0
outer loop
vertex -19.13880729675293 -5.805693626403809 1.0
vertex -18.477590560913086 -7.6536688804626465 1.0
vertex -17.94965934753418 -7.434992790222168 1.0
endloop
endfacet
facet normal -0.0 -0.0 1.0
outer loop
vertex 6.691493034362793 16.154693603515625 1.0
vertex 17.485713958740234 0.0 1.0
vertex 17.149730682373047 3.4112935066223145 1.0
endloop
endfacet
facet normal -0.0 -0.0 1.0
outer loop
vertex 12.364267349243164 12.364267349243164 1.0
vertex 17.149730682373047 3.4112935066223145 1.0
vertex 14.538839340209961 9.714542388916016 1.0
endloop
endfacet
facet normal -0.0 0.0 -1.0
outer loop
vertex 20.0 0.0 -1.0
vertex 19.90369415283203 -1.9603427648544312 -1.0
vertex 19.90369415283203 1.9603427648544312 -1.0
endloop
endfacet
facet normal 0.998795446650119 0.04906786882460946 0.0
outer loop
vertex 20.0 0.0 -1.0
vertex 19.90369415283203 1.9603427648544312 -1.0
vertex 20.0 0.0 1.0
endloop
endfacet
facet normal 0.998795446650119 0.04906786882460946 -0.0
outer loop
vertex 20.0 0.0 1.0
vertex 19.90369415283203 1.9603427648544312 -1.0
vertex 19.90369415283203 1.9603427648544312 1.0
endloop
endfacet
facet normal 0.0 0.0 1.0
outer loop
vertex 20.0 0.0 1.0
vertex 19.055255889892578 3.7903261184692383 1.0
vertex 19.428571701049805 3.498990865583803e-17 1.0
endloop
endfacet
facet normal 0.0 0.0 1.0
outer loop
vertex 19.90369415283203 1.9603427648544312 1.0
vertex 19.615705490112305 3.901806354522705 1.0
vertex 20.0 0.0 1.0
endloop
endfacet
facet normal 0.9891765289051241 0.14673034676988297 0.0
outer loop
vertex 19.90369415283203 1.9603427648544312 -1.0
vertex 19.615705490112305 3.901806354522705 -1.0
vertex 19.90369415283203 1.9603427648544312 1.0
endloop
endfacet
facet normal 0.9891765289051241 0.14673034676988297 0.0
outer loop
vertex 19.615705490112305 3.901806354522705 1.0
vertex 19.90369415283203 1.9603427648544312 1.0
vertex 19.615705490112305 3.901806354522705 -1.0
endloop
endfacet
facet normal 0.0 0.0 1.0
outer loop
vertex 19.615705490112305 3.901806354522705 1.0
vertex 19.13880729675293 5.805693626403809 1.0
vertex 20.0 0.0 1.0
endloop
endfacet
facet normal 0.0 0.0 -1.0
outer loop
vertex 19.90369415283203 1.9603427648544312 -1.0
vertex 19.13880729675293 5.805693626403809 -1.0
vertex 19.615705490112305 3.901806354522705 -1.0
endloop
endfacet
facet normal 0.9700313422906005 0.24297982421159142 0.0
outer loop
vertex 19.13880729675293 5.805693626403809 -1.0
vertex 19.615705490112305 3.901806354522705 1.0
vertex 19.615705490112305 3.901806354522705 -1.0
endloop
endfacet
facet normal 0.0 0.0 1.0
outer loop
vertex 20.0 0.0 1.0
vertex 18.477590560913086 7.6536688804626465 1.0
vertex 19.055255889892578 3.7903261184692383 1.0
endloop
endfacet
facet normal 0.0 0.0 1.0
outer loop
vertex 19.13880729675293 5.805693626403809 1.0
vertex 18.477590560913086 7.6536688804626465 1.0
vertex 20.0 0.0 1.0
endloop
endfacet
facet normal 0.0 0.0 1.0
outer loop
vertex 16.154693603515625 6.691493034362793 1.0
vertex 14.538839340209961 9.714542388916016 1.0
vertex 17.149730682373047 3.4112935066223145 1.0
endloop
endfacet
facet normal 0.0 0.0 -1.0
outer loop
vertex 19.90369415283203 1.9603427648544312 -1.0
vertex 15.460208892822266 12.687865257263184 -1.0
vertex 16.629392623901367 11.111404418945312 -1.0
endloop
endfacet
facet normal -0.0 -0.0 -1.0
outer loop
vertex 15.460208892822266 12.687865257263184 -1.0
vertex 19.90369415283203 1.9603427648544312 -1.0
vertex 14.142135620117188 14.142135620117188 -1.0
endloop
endfacet
facet normal 0.8577285531511398 0.5141028390402568 0.0
outer loop
vertex 17.638425827026367 9.427934646606445 -1.0
vertex 16.629392623901367 11.111404418945312 -1.0
vertex 17.638425827026367 9.427934646606445 1.0
endloop
endfacet
facet normal 0.0 0.0 0.9999999999999999
outer loop
vertex 17.638425827026367 9.427934646606445 1.0
vertex 16.154266357421875 10.793935775756836 1.0
vertex 17.94965934753418 7.434992790222168 1.0
endloop
endfacet
facet normal 0.0 0.0 -1.0
outer loop
vertex 19.90369415283203 1.9603427648544312 -1.0
vertex 16.629392623901367 11.111404418945312 -1.0
vertex 17.638425827026367 9.427934646606445 -1.0
endloop
endfacet
facet normal 0.0 0.0 -1.0
outer loop
vertex 19.90369415283203 1.9603427648544312 -1.0
vertex 17.638425827026367 9.427934646606445 -1.0
vertex 18.477590560913086 7.6536688804626465 -1.0
endloop
endfacet
facet normal 0.0 0.0 1.0
outer loop
vertex 18.477590560913086 7.6536688804626465 1.0
vertex 17.94965934753418 7.434992790222168 1.0
vertex 19.055255889892578 3.7903261184692383 1.0
endloop
endfacet
facet normal 0.9415439654539728 0.3368901321161071 0.0
outer loop
vertex 18.477590560913086 7.6536688804626465 1.0
vertex 19.13880729675293 5.805693626403809 1.0
vertex 18.477590560913086 7.6536688804626465 -1.0
endloop
endfacet
facet normal -0.0 -0.0 -1.0
outer loop
vertex 19.13880729675293 5.805693626403809 -1.0
vertex 19.90369415283203 1.9603427648544312 -1.0
vertex 18.477590560913086 7.6536688804626465 -1.0
endloop
endfacet
facet normal 0.9700313422906005 0.24297982421159142 -0.0
outer loop
vertex 19.615705490112305 3.901806354522705 1.0
vertex 19.13880729675293 5.805693626403809 -1.0
vertex 19.13880729675293 5.805693626403809 1.0
endloop
endfacet
facet normal 0.9415439654539728 0.3368901321161071 0.0
outer loop
vertex 19.13880729675293 5.805693626403809 -1.0
vertex 18.477590560913086 7.6536688804626465 -1.0
vertex 19.13880729675293 5.805693626403809 1.0
endloop
endfacet
facet normal 0.9039893869716181 0.4275548950049313 0.0
outer loop
vertex 17.638425827026367 9.427934646606445 -1.0
vertex 18.477590560913086 7.6536688804626465 1.0
vertex 18.477590560913086 7.6536688804626465 -1.0
endloop
endfacet
facet normal 0.0 0.0 1.0
outer loop
vertex 18.477590560913086 7.6536688804626465 1.0
vertex 17.638425827026367 9.427934646606445 1.0
vertex 17.94965934753418 7.434992790222168 1.0
endloop
endfacet
facet normal 0.9039893869716181 0.4275548950049313 -0.0
outer loop
vertex 18.477590560913086 7.6536688804626465 1.0
vertex 17.638425827026367 9.427934646606445 -1.0
vertex 17.638425827026367 9.427934646606445 1.0
endloop
endfacet
facet normal -0.8577285531511398 -0.5141028390402568 -0.0
outer loop
vertex -16.629392623901367 -11.111404418945312 -1.0
vertex -17.638425827026367 -9.427934646606445 1.0
vertex -17.638425827026367 -9.427934646606445 -1.0
endloop
endfacet
facet normal -0.0 -0.0 1.0
outer loop
vertex -17.638425827026367 -9.427934646606445 1.0
vertex -16.154266357421875 -10.793935775756836 1.0
vertex -18.477590560913086 -7.6536688804626465 1.0
endloop
endfacet
facet normal -0.9700313422906005 -0.24297982421159142 -0.0
outer loop
vertex -19.13880729675293 -5.805693626403809 -1.0
vertex -19.615705490112305 -3.901806354522705 1.0
vertex -19.615705490112305 -3.901806354522705 -1.0
endloop
endfacet
facet normal -0.9891765289051241 -0.14673034676988297 -0.0
outer loop
vertex -19.615705490112305 -3.901806354522705 -1.0
vertex -19.90369415283203 -1.9603427648544312 1.0
vertex -19.90369415283203 -1.9603427648544312 -1.0
endloop
endfacet
facet normal -0.9891765289051241 -0.14673034676988297 0.0
outer loop
vertex -19.615705490112305 -3.901806354522705 1.0
vertex -19.90369415283203 -1.9603427648544312 1.0
vertex -19.615705490112305 -3.901806354522705 -1.0
endloop
endfacet
facet normal 0.0 0.0 1.0
outer loop
vertex -19.055255889892578 -3.7903261184692383 1.0
vertex -19.90369415283203 -1.9603427648544312 1.0
vertex -19.615705490112305 -3.901806354522705 1.0
endloop
endfacet
facet normal -0.0 -0.0 1.0
outer loop
vertex 6.691493034362793 16.154693603515625 1.0
vertex 17.149730682373047 3.4112935066223145 1.0
vertex 9.714542388916016 14.538839340209961 1.0
endloop
endfacet
facet normal 0.0 0.0 -1.0
outer loop
vertex 19.90369415283203 1.9603427648544312 -1.0
vertex 5.805693626403809 19.13880729675293 -1.0
vertex 7.6536688804626465 18.477590560913086 -1.0
endloop
endfacet
facet normal 0.0 0.0 -1.0
outer loop
vertex 19.90369415283203 1.9603427648544312 -1.0
vertex 7.6536688804626465 18.477590560913086 -1.0
vertex 9.427934646606445 17.638425827026367 -1.0
endloop
endfacet
facet normal 0.0 0.0 1.0
outer loop
vertex 12.364267349243164 12.364267349243164 1.0
vertex 9.714542388916016 14.538839340209961 1.0
vertex 17.149730682373047 3.4112935066223145 1.0
endloop
endfacet
facet normal 0.0 0.0 -0.9999999999999999
outer loop
vertex 19.90369415283203 1.9603427648544312 -1.0
vertex 9.427934646606445 17.638425827026367 -1.0
vertex 11.111404418945312 16.629392623901367 -1.0
endloop
endfacet
facet normal 0.0 0.0 -1.0
outer loop
vertex 19.90369415283203 1.9603427648544312 -1.0
vertex 11.111404418945312 16.629392623901367 -1.0
vertex 12.687865257263184 15.460208892822266 -1.0
endloop
endfacet
facet normal 0.6715587999782867 0.7409512657197663 0.0
outer loop
vertex 14.142135620117188 14.142135620117188 -1.0
vertex 12.687865257263184 15.460208892822266 -1.0
vertex 14.142135620117188 14.142135620117188 1.0
endloop
endfacet
facet normal -0.0 0.0 1.0
outer loop
vertex 10.793935775756836 16.154266357421875 1.0
vertex 13.73807430267334 13.73807430267334 1.0
vertex 14.142135620117188 14.142135620117188 1.0
endloop
endfacet
facet normal 0.7409512657197663 0.6715587999782867 -0.0
outer loop
vertex 14.142135620117188 14.142135620117188 -1.0
vertex 14.142135620117188 14.142135620117188 1.0
vertex 15.460208892822266 12.687865257263184 1.0
endloop
endfacet
facet normal 0.0 0.0 1.0
outer loop
vertex 14.142135620117188 14.142135620117188 1.0
vertex 13.73807430267334 13.73807430267334 1.0
vertex 15.460208892822266 12.687865257263184 1.0
endloop
endfacet
facet normal 0.5141028390402568 0.8577285531511398 0.0
outer loop
vertex 11.111404418945312 16.629392623901367 -1.0
vertex 9.427934646606445 17.638425827026367 -1.0
vertex 11.111404418945312 16.629392623901367 1.0
endloop
endfacet
facet normal 0.5956995310208506 0.8032073634756708 0.0
outer loop
vertex 12.687865257263184 15.460208892822266 -1.0
vertex 11.111404418945312 16.629392623901367 -1.0
vertex 12.687865257263184 15.460208892822266 1.0
endloop
endfacet
facet normal 0.5956995310208506 0.8032073634756708 -0.0
outer loop
vertex 11.111404418945312 16.629392623901367 -1.0
vertex 11.111404418945312 16.629392623901367 1.0
vertex 12.687865257263184 15.460208892822266 1.0
endloop
endfacet
facet normal 0.0 0.0 1.0
outer loop
vertex 11.111404418945312 16.629392623901367 1.0
vertex 10.793935775756836 16.154266357421875 1.0
vertex 12.687865257263184 15.460208892822266 1.0
endloop
endfacet
facet normal -0.0 -0.0 1.0
outer loop
vertex 10.793935775756836 16.154266357421875 1.0
vertex 14.142135620117188 14.142135620117188 1.0
vertex 12.687865257263184 15.460208892822266 1.0
endloop
endfacet
facet normal 0.6715587999782867 0.7409512657197663 -0.0
outer loop
vertex 14.142135620117188 14.142135620117188 1.0
vertex 12.687865257263184 15.460208892822266 -1.0
vertex 12.687865257263184 15.460208892822266 1.0
endloop
endfacet
facet normal -0.0 -0.0 -1.0
outer loop
vertex 14.142135620117188 14.142135620117188 -1.0
vertex 19.90369415283203 1.9603427648544312 -1.0
vertex 12.687865257263184 15.460208892822266 -1.0
endloop
endfacet
facet normal 0.8032073634756708 0.5956995310208506 0.0
outer loop
vertex 16.629392623901367 11.111404418945312 -1.0
vertex 15.460208892822266 12.687865257263184 -1.0
vertex 16.629392623901367 11.111404418945312 1.0
endloop
endfacet
facet normal 0.0 -0.0 0.9999999999999999
outer loop
vertex 16.154266357421875 10.793935775756836 1.0
vertex 16.629392623901367 11.111404418945312 1.0
vertex 13.73807430267334 13.73807430267334 1.0
endloop
endfacet
facet normal 0.8032073634756708 0.5956995310208506 -0.0
outer loop
vertex 16.629392623901367 11.111404418945312 1.0
vertex 15.460208892822266 12.687865257263184 -1.0
vertex 15.460208892822266 12.687865257263184 1.0
endloop
endfacet
facet normal 0.0 0.0 1.0
outer loop
vertex 17.638425827026367 9.427934646606445 1.0
vertex 16.629392623901367 11.111404418945312 1.0
vertex 16.154266357421875 10.793935775756836 1.0
endloop
endfacet
facet normal 0.8577285531511398 0.5141028390402568 -0.0
outer loop
vertex 16.629392623901367 11.111404418945312 -1.0
vertex 16.629392623901367 11.111404418945312 1.0
vertex 17.638425827026367 9.427934646606445 1.0
endloop
endfacet
facet normal 0.7409512657197663 0.6715587999782867 0.0
outer loop
vertex 15.460208892822266 12.687865257263184 -1.0
vertex 14.142135620117188 14.142135620117188 -1.0
vertex 15.460208892822266 12.687865257263184 1.0
endloop
endfacet
facet normal 0.0 0.0 1.0
outer loop
vertex 16.629392623901367 11.111404418945312 1.0
vertex 15.460208892822266 12.687865257263184 1.0
vertex 13.73807430267334 13.73807430267334 1.0
endloop
endfacet

endsolid
