solid 
facet normal 0.0 0.0 -1.0
outer loop
vertex -8.333553314208984 -12.472043991088867 -20.0
vertex -10.60660171508789 -10.60660171508789 -20.0
vertex -7.222413063049316 -10.809104919433594 -20.0
endloop
endfacet
facet normal 0.0 -0.0 -1.0
outer loop
vertex -12.472043991088867 -8.333553314208984 -20.0
vertex -9.192388534545898 -9.192388534545898 -20.0
vertex -10.60660171508789 -10.60660171508789 -20.0
endloop
endfacet
facet normal 0.0 0.0 -1.0
outer loop
vertex -9.192388534545898 -9.192388534545898 -20.0
vertex -12.472043991088867 -8.333553314208984 -20.0
vertex -10.809104919433594 -7.222413063049316 -20.0
endloop
endfacet
facet normal 0.0 0.0 -1.0
outer loop
vertex -7.222413063049316 -10.809104919433594 -20.0
vertex -10.60660171508789 -10.60660171508789 -20.0
vertex -9.192388534545898 -9.192388534545898 -20.0
endloop
endfacet
facet normal 0.7730105886439769 0.6343931193229418 0.0
outer loop
vertex -9.192388534545898 -9.192388534545898 -3.0
vertex -9.192388534545898 -9.192388534545898 -20.0
vertex -10.809104919433594 -7.222413063049316 -20.0
endloop
endfacet
facet normal 0.6343931193229418 0.7730105886439769 0.0
outer loop
vertex -7.222413063049316 -10.809104919433594 -3.0
vertex -7.222413063049316 -10.809104919433594 -20.0
vertex -9.192388534545898 -9.192388534545898 -20.0
endloop
endfacet
facet normal -0.7730105095858146 -0.6343932156556211 0.0
outer loop
vertex -12.472043991088867 -8.333553314208984 -20.0
vertex -10.60660171508789 -10.60660171508789 -20.0
vertex -12.472043991088867 -8.333553314208984 20.0
endloop
endfacet
facet normal -0.6343932156556211 -0.7730105095858146 0.0
outer loop
vertex -10.60660171508789 -10.60660171508789 -20.0
vertex -8.333553314208984 -12.472043991088867 -20.0
vertex -10.60660171508789 -10.60660171508789 20.0
endloop
endfacet
facet normal 0.7730105886439769 0.6343931193229418 -0.0
outer loop
vertex -10.809104919433594 -7.222413063049316 -20.0
vertex -10.809104919433594 -7.222413063049316 -3.0
vertex -9.192388534545898 -9.192388534545898 -3.0
endloop
endfacet
facet normal 0.6343931193229418 0.7730105886439769 -0.0
outer loop
vertex -9.192388534545898 -9.192388534545898 -20.0
vertex -9.192388534545898 -9.192388534545898 -3.0
vertex -7.222413063049316 -10.809104919433594 -3.0
endloop
endfacet
facet normal -0.0 0.0 -1.0
outer loop
vertex -10.809104919433594 -7.222413063049316 -20.0
vertex -12.472043991088867 -8.333553314208984 -20.0
vertex -13.858193397521973 -5.740251541137695 -20.0
endloop
endfacet
facet normal 0.0 0.0 -1.0
outer loop
vertex -10.809104919433594 -7.222413063049316 -20.0
vertex -13.858193397521973 -5.740251541137695 -20.0
vertex -12.0104341506958 -4.974884510040283 -20.0
endloop
endfacet
facet normal -0.0 0.0 -0.9999999999999999
outer loop
vertex -12.0104341506958 -4.974884510040283 -20.0
vertex -13.858193397521973 -5.740251541137695 -20.0
vertex -12.750208854675293 -2.5361742973327637 -20.0
endloop
endfacet
facet normal 0.9569403304265127 0.2902846947449978 0.0
outer loop
vertex -12.750208854675293 -2.5361742973327637 -20.0
vertex -12.0104341506958 -4.974884510040283 -3.0
vertex -12.0104341506958 -4.974884510040283 -20.0
endloop
endfacet
facet normal -0.0 0.0 -1.0
outer loop
vertex -12.750208854675293 -2.5361742973327637 -20.0
vertex -13.858193397521973 -5.740251541137695 -20.0
vertex -14.711779594421387 -2.9263548851013184 -20.0
endloop
endfacet
facet normal -0.0 0.0 -1.0
outer loop
vertex -12.750208854675293 -2.5361742973327637 -20.0
vertex -14.711779594421387 -2.9263548851013184 -20.0
vertex -15.0 1.8369700935892946e-15 -20.0
endloop
endfacet
facet normal 0.0 0.0 -1.0
outer loop
vertex -15.0 1.8369700935892946e-15 -20.0
vertex -13.0 1.5920408818909386e-15 -20.0
vertex -12.750208854675293 -2.5361742973327637 -20.0
endloop
endfacet
facet normal 0.995184735107454 0.09801705468492075 0.0
outer loop
vertex -12.750208854675293 -2.5361742973327637 -20.0
vertex -13.0 1.5920408818909386e-15 -20.0
vertex -12.750208854675293 -2.5361742973327637 -3.0
endloop
endfacet
facet normal 0.8819212331391941 0.47139679521422634 0.0
outer loop
vertex -10.809104919433594 -7.222413063049316 -3.0
vertex -10.809104919433594 -7.222413063049316 -20.0
vertex -12.0104341506958 -4.974884510040283 -20.0
endloop
endfacet
facet normal -0.8819211611615521 -0.47139692987487697 0.0
outer loop
vertex -13.858193397521973 -5.740251541137695 -20.0
vertex -12.472043991088867 -8.333553314208984 -20.0
vertex -13.858193397521973 -5.740251541137695 20.0
endloop
endfacet
facet normal -0.9569403377843428 -0.29028467048948303 0.0
outer loop
vertex -14.711779594421387 -2.9263548851013184 -20.0
vertex -13.858193397521973 -5.740251541137695 -20.0
vertex -14.711779594421387 -2.9263548851013184 20.0
endloop
endfacet
facet normal 0.8819212331391941 0.47139679521422634 -0.0
outer loop
vertex -12.0104341506958 -4.974884510040283 -20.0
vertex -12.0104341506958 -4.974884510040283 -3.0
vertex -10.809104919433594 -7.222413063049316 -3.0
endloop
endfacet
facet normal -0.9951847397348536 -0.09801700770209049 -0.0
outer loop
vertex -14.711779594421387 -2.9263548851013184 -20.0
vertex -15.0 1.8369700935892946e-15 20.0
vertex -15.0 1.8369700935892946e-15 -20.0
endloop
endfacet
facet normal 0.9569403304265127 0.2902846947449978 -0.0
outer loop
vertex -12.750208854675293 -2.5361742973327637 -20.0
vertex -12.750208854675293 -2.5361742973327637 -3.0
vertex -12.0104341506958 -4.974884510040283 -3.0
endloop
endfacet
facet normal 0.995184735107454 0.09801705468492075 -3.000902931791373e-19
outer loop
vertex -13.0 1.5920408818909386e-15 -20.0
vertex -13.0 1.6440883036426368e-15 -3.0
vertex -12.750208854675293 -2.5361742973327637 -3.0
endloop
endfacet
facet normal 0.0 0.0 -0.9999999999999999
outer loop
vertex -8.333553314208984 -12.472043991088867 -20.0
vertex -7.222413063049316 -10.809104919433594 -20.0
vertex -4.974884510040283 -12.0104341506958 -20.0
endloop
endfacet
facet normal 0.0 -0.0 -1.0
outer loop
vertex -8.333553314208984 -12.472043991088867 -20.0
vertex -4.974884510040283 -12.0104341506958 -20.0
vertex -5.740251541137695 -13.858193397521973 -20.0
endloop
endfacet
facet normal 0.0 -0.0 -0.9999999999999999
outer loop
vertex -4.974884510040283 -12.0104341506958 -20.0
vertex -2.5361742973327637 -12.750208854675293 -20.0
vertex -5.740251541137695 -13.858193397521973 -20.0
endloop
endfacet
facet normal 0.47139679521422634 0.8819212331391941 0.0
outer loop
vertex -4.974884510040283 -12.0104341506958 -3.0
vertex -4.974884510040283 -12.0104341506958 -20.0
vertex -7.222413063049316 -10.809104919433594 -20.0
endloop
endfacet
facet normal 0.0 -0.0 -1.0
outer loop
vertex -5.740251541137695 -13.858193397521973 -20.0
vertex -2.5361742973327637 -12.750208854675293 -20.0
vertex -2.9263548851013184 -14.711779594421387 -20.0
endloop
endfacet
facet normal 0.0 -0.0 -1.0
outer loop
vertex -2.9263548851013184 -14.711779594421387 -20.0
vertex -2.3880611640177303e-15 -13.0 -20.0
vertex -2.7554553521421787e-15 -15.0 -20.0
endloop
endfacet
facet normal -0.0 0.0 -1.0
outer loop
vertex -2.3880611640177303e-15 -13.0 -20.0
vertex -2.9263548851013184 -14.711779594421387 -20.0
vertex -2.5361742973327637 -12.750208854675293 -20.0
endloop
endfacet
facet normal 0.2902846947449978 0.9569403304265127 0.0
outer loop
vertex -2.5361742973327637 -12.750208854675293 -20.0
vertex -4.974884510040283 -12.0104341506958 -20.0
vertex -2.5361742973327637 -12.750208854675293 -3.0
endloop
endfacet
facet normal 0.09801705468492088 0.9951847351074539 0.0
outer loop
vertex -2.3880611640177303e-15 -13.0 -20.0
vertex -2.5361742973327637 -12.750208854675293 -20.0
vertex -2.3880611640177303e-15 -13.0 -3.0
endloop
endfacet
facet normal -0.47139692987487697 -0.8819211611615521 0.0
outer loop
vertex -8.333553314208984 -12.472043991088867 -20.0
vertex -5.740251541137695 -13.858193397521973 -20.0
vertex -8.333553314208984 -12.472043991088867 20.0
endloop
endfacet
facet normal -0.29028467048948303 -0.9569403377843428 0.0
outer loop
vertex -5.740251541137695 -13.858193397521973 -20.0
vertex -2.9263548851013184 -14.711779594421387 -20.0
vertex -5.740251541137695 -13.858193397521973 20.0
endloop
endfacet
facet normal 0.2902846947449978 0.9569403304265127 -0.0
outer loop
vertex -4.974884510040283 -12.0104341506958 -20.0
vertex -4.974884510040283 -12.0104341506958 -3.0
vertex -2.5361742973327637 -12.750208854675293 -3.0
endloop
endfacet
facet normal 0.47139679521422634 0.8819212331391941 -0.0
outer loop
vertex -7.222413063049316 -10.809104919433594 -20.0
vertex -7.222413063049316 -10.809104919433594 -3.0
vertex -4.974884510040283 -12.0104341506958 -3.0
endloop
endfacet
facet normal -0.09801700770209064 -0.9951847397348537 0.0
outer loop
vertex -2.9263548851013184 -14.711779594421387 -20.0
vertex -2.7554553521421787e-15 -15.0 -20.0
vertex -2.9263548851013184 -14.711779594421387 20.0
endloop
endfacet
facet normal 0.09801705468492088 0.9951847351074539 -0.0
outer loop
vertex -2.5361742973327637 -12.750208854675293 -20.0
vertex -2.5361742973327637 -12.750208854675293 -3.0
vertex -2.3880611640177303e-15 -13.0 -3.0
endloop
endfacet
facet normal 0.8819211611615521 0.47139692987487697 -0.0
outer loop
vertex 13.858193397521973 5.740251541137695 20.0
vertex 12.472043991088867 8.333553314208984 -20.0
vertex 12.472043991088867 8.333553314208984 20.0
endloop
endfacet
facet normal 0.9569403377843428 0.29028467048948303 -0.0
outer loop
vertex 14.711779594421387 2.9263548851013184 20.0
vertex 13.858193397521973 5.740251541137695 -20.0
vertex 13.858193397521973 5.740251541137695 20.0
endloop
endfacet
facet normal -0.995184735107454 -0.09801705468492082 0.0
outer loop
vertex 13.0 0.0 -1.0
vertex 13.0 0.0 20.0
vertex 12.750208854675293 2.5361742973327637 20.0
endloop
endfacet
facet normal -0.9569403304265128 -0.2902846947449978 0.0
outer loop
vertex 12.750208854675293 2.5361742973327637 -1.0
vertex 12.750208854675293 2.5361742973327637 20.0
vertex 12.0104341506958 4.974884510040283 20.0
endloop
endfacet
facet normal -0.0 0.0 1.0
outer loop
vertex 12.750208854675293 2.5361742973327637 20.0
vertex 13.0 0.0 20.0
vertex 15.0 0.0 20.0
endloop
endfacet
facet normal 0.0 0.0 1.0
outer loop
vertex 12.0104341506958 4.974884510040283 20.0
vertex 12.750208854675293 2.5361742973327637 20.0
vertex 15.0 0.0 20.0
endloop
endfacet
facet normal 0.0 0.0 1.0
outer loop
vertex 14.711779594421387 2.9263548851013184 20.0
vertex 13.858193397521973 5.740251541137695 20.0
vertex 15.0 0.0 20.0
endloop
endfacet
facet normal 0.0 -0.0 -0.9999999999999999
outer loop
vertex -13.858193397521973 5.740251541137695 -20.0
vertex -12.0104341506958 4.974884510040283 -20.0
vertex -12.750208854675293 2.5361742973327637 -20.0
endloop
endfacet
facet normal -0.8819212331391941 -0.47139679521422634 0.0
outer loop
vertex 10.809104919433594 7.222413063049316 20.0
vertex 12.0104341506958 4.974884510040283 -1.0
vertex 12.0104341506958 4.974884510040283 20.0
endloop
endfacet
facet normal -0.6343932156556211 -0.7730105095858146 0.0
outer loop
vertex -10.60660171508789 -10.60660171508789 20.0
vertex -8.333553314208984 -12.472043991088867 -20.0
vertex -8.333553314208984 -12.472043991088867 20.0
endloop
endfacet
facet normal -0.7730105095858146 -0.6343932156556211 0.0
outer loop
vertex -12.472043991088867 -8.333553314208984 20.0
vertex -10.60660171508789 -10.60660171508789 -20.0
vertex -10.60660171508789 -10.60660171508789 20.0
endloop
endfacet
facet normal 0.773010588643977 0.6343931193229418 -0.0
outer loop
vertex -9.192388534545898 -9.192388534545898 -1.0
vertex -10.809104919433594 -7.222413063049316 -1.0
vertex -10.809104919433594 -7.222413063049316 20.0
endloop
endfacet
facet normal 0.6343931193229418 0.773010588643977 0.0
outer loop
vertex -7.222413063049316 -10.809104919433594 20.0
vertex -7.222413063049316 -10.809104919433594 -1.0
vertex -9.192388534545898 -9.192388534545898 -1.0
endloop
endfacet
facet normal -0.0 -0.0 1.0
outer loop
vertex -12.472043991088867 -8.333553314208984 20.0
vertex -10.60660171508789 -10.60660171508789 20.0
vertex -10.809104919433594 -7.222413063049316 20.0
endloop
endfacet
facet normal 0.773010588643977 0.6343931193229418 0.0
outer loop
vertex -9.192388534545898 -9.192388534545898 20.0
vertex -9.192388534545898 -9.192388534545898 -1.0
vertex -10.809104919433594 -7.222413063049316 20.0
endloop
endfacet
facet normal 0.6343931193229418 0.773010588643977 0.0
outer loop
vertex -9.192388534545898 -9.192388534545898 20.0
vertex -7.222413063049316 -10.809104919433594 20.0
vertex -9.192388534545898 -9.192388534545898 -1.0
endloop
endfacet
facet normal -0.0 -0.0 1.0
outer loop
vertex -10.60660171508789 -10.60660171508789 20.0
vertex -8.333553314208984 -12.472043991088867 20.0
vertex -9.192388534545898 -9.192388534545898 20.0
endloop
endfacet
facet normal -0.0 0.0 1.0
outer loop
vertex -10.809104919433594 -7.222413063049316 20.0
vertex -10.60660171508789 -10.60660171508789 20.0
vertex -9.192388534545898 -9.192388534545898 20.0
endloop
endfacet
facet normal 0.0 0.0 1.0
outer loop
vertex -7.222413063049316 -10.809104919433594 20.0
vertex -9.192388534545898 -9.192388534545898 20.0
vertex -8.333553314208984 -12.472043991088867 20.0
endloop
endfacet
facet normal -0.9569403377843428 -0.29028467048948303 0.0
outer loop
vertex -14.711779594421387 -2.9263548851013184 20.0
vertex -13.858193397521973 -5.740251541137695 -20.0
vertex -13.858193397521973 -5.740251541137695 20.0
endloop
endfacet
facet normal -0.8819211611615521 -0.47139692987487697 0.0
outer loop
vertex -13.858193397521973 -5.740251541137695 20.0
vertex -12.472043991088867 -8.333553314208984 -20.0
vertex -12.472043991088867 -8.333553314208984 20.0
endloop
endfacet
facet normal -0.9951847397348536 -0.09801700770209049 0.0
outer loop
vertex -15.0 1.8369700935892946e-15 20.0
vertex -14.711779594421387 -2.9263548851013184 -20.0
vertex -14.711779594421387 -2.9263548851013184 20.0
endloop
endfacet
facet normal 0.9569403304265128 0.2902846947449978 -0.0
outer loop
vertex -12.0104341506958 -4.974884510040283 -1.0
vertex -12.750208854675293 -2.5361742973327637 -1.0
vertex -12.750208854675293 -2.5361742973327637 20.0
endloop
endfacet
facet normal 0.995184735107454 0.09801705468492074 0.0
outer loop
vertex -13.0 1.7145054348005574e-15 -1.0
vertex -12.750208854675293 -2.5361742973327637 20.0
vertex -12.750208854675293 -2.5361742973327637 -1.0
endloop
endfacet
facet normal 0.8819212331391941 0.47139679521422634 0.0
outer loop
vertex -10.809104919433594 -7.222413063049316 20.0
vertex -10.809104919433594 -7.222413063049316 -1.0
vertex -12.0104341506958 -4.974884510040283 -1.0
endloop
endfacet
facet normal 0.8819212331391941 0.47139679521422634 0.0
outer loop
vertex -12.0104341506958 -4.974884510040283 20.0
vertex -10.809104919433594 -7.222413063049316 20.0
vertex -12.0104341506958 -4.974884510040283 -1.0
endloop
endfacet
facet normal 0.9569403304265128 0.2902846947449978 0.0
outer loop
vertex -12.0104341506958 -4.974884510040283 20.0
vertex -12.0104341506958 -4.974884510040283 -1.0
vertex -12.750208854675293 -2.5361742973327637 20.0
endloop
endfacet
facet normal -0.0 0.0 1.0
outer loop
vertex -13.858193397521973 -5.740251541137695 20.0
vertex -12.472043991088867 -8.333553314208984 20.0
vertex -12.0104341506958 -4.974884510040283 20.0
endloop
endfacet
facet normal 0.0 0.0 0.9999999999999999
outer loop
vertex -10.809104919433594 -7.222413063049316 20.0
vertex -12.0104341506958 -4.974884510040283 20.0
vertex -12.472043991088867 -8.333553314208984 20.0
endloop
endfacet
facet normal 0.0 -0.0 0.9999999999999999
outer loop
vertex -13.858193397521973 -5.740251541137695 20.0
vertex -12.0104341506958 -4.974884510040283 20.0
vertex -12.750208854675293 -2.5361742973327637 20.0
endloop
endfacet
facet normal 0.995184735107454 0.09801705468492074 -0.0
outer loop
vertex -13.0 1.7145054348005574e-15 -1.0
vertex -13.0 1.7145054348005574e-15 20.0
vertex -12.750208854675293 -2.5361742973327637 20.0
endloop
endfacet
facet normal -0.0 0.0 1.0
outer loop
vertex -14.711779594421387 -2.9263548851013184 20.0
vertex -13.858193397521973 -5.740251541137695 20.0
vertex -12.750208854675293 -2.5361742973327637 20.0
endloop
endfacet
facet normal -0.0 0.0 1.0
outer loop
vertex -15.0 1.8369700935892946e-15 20.0
vertex -14.711779594421387 -2.9263548851013184 20.0
vertex -12.750208854675293 -2.5361742973327637 20.0
endloop
endfacet
facet normal -0.0 -0.0 1.0
outer loop
vertex -15.0 1.8369700935892946e-15 20.0
vertex -12.750208854675293 -2.5361742973327637 20.0
vertex -13.0 1.7145054348005574e-15 20.0
endloop
endfacet
facet normal -0.47139692987487697 -0.8819211611615521 0.0
outer loop
vertex -8.333553314208984 -12.472043991088867 20.0
vertex -5.740251541137695 -13.858193397521973 -20.0
vertex -5.740251541137695 -13.858193397521973 20.0
endloop
endfacet
facet normal -0.29028467048948303 -0.9569403377843428 0.0
outer loop
vertex -5.740251541137695 -13.858193397521973 20.0
vertex -2.9263548851013184 -14.711779594421387 -20.0
vertex -2.9263548851013184 -14.711779594421387 20.0
endloop
endfacet
facet normal 0.47139679521422634 0.8819212331391941 -0.0
outer loop
vertex -4.974884510040283 -12.0104341506958 -1.0
vertex -7.222413063049316 -10.809104919433594 -1.0
vertex -7.222413063049316 -10.809104919433594 20.0
endloop
endfacet
facet normal 0.2902846947449978 0.9569403304265128 0.0
outer loop
vertex -2.5361742973327637 -12.750208854675293 20.0
vertex -2.5361742973327637 -12.750208854675293 -1.0
vertex -4.974884510040283 -12.0104341506958 -1.0
endloop
endfacet
facet normal -0.09801700770209064 -0.9951847397348537 0.0
outer loop
vertex -2.9263548851013184 -14.711779594421387 20.0
vertex -2.7554553521421787e-15 -15.0 -20.0
vertex -2.7554553521421787e-15 -15.0 20.0
endloop
endfacet
facet normal 0.09801705468492089 0.9951847351074539 0.0
outer loop
vertex -2.3880611640177303e-15 -13.0 20.0
vertex -2.3880611640177303e-15 -13.0 -1.0
vertex -2.5361742973327637 -12.750208854675293 -1.0
endloop
endfacet
facet normal 0.47139679521422634 0.8819212331391941 0.0
outer loop
vertex -4.974884510040283 -12.0104341506958 20.0
vertex -4.974884510040283 -12.0104341506958 -1.0
vertex -7.222413063049316 -10.809104919433594 20.0
endloop
endfacet
facet normal 0.2902846947449978 0.9569403304265128 -0.0
outer loop
vertex -4.974884510040283 -12.0104341506958 -1.0
vertex -4.974884510040283 -12.0104341506958 20.0
vertex -2.5361742973327637 -12.750208854675293 20.0
endloop
endfacet
facet normal 0.0 0.0 1.0
outer loop
vertex -7.222413063049316 -10.809104919433594 20.0
vertex -8.333553314208984 -12.472043991088867 20.0
vertex -5.740251541137695 -13.858193397521973 20.0
endloop
endfacet
facet normal -0.0 0.0 1.0
outer loop
vertex -7.222413063049316 -10.809104919433594 20.0
vertex -5.740251541137695 -13.858193397521973 20.0
vertex -4.974884510040283 -12.0104341506958 20.0
endloop
endfacet
facet normal 0.0 0.0 1.0
outer loop
vertex -4.974884510040283 -12.0104341506958 20.0
vertex -5.740251541137695 -13.858193397521973 20.0
vertex -2.9263548851013184 -14.711779594421387 20.0
endloop
endfacet
facet normal 0.09801705468492089 0.9951847351074539 -0.0
outer loop
vertex -2.5361742973327637 -12.750208854675293 -1.0
vertex -2.5361742973327637 -12.750208854675293 20.0
vertex -2.3880611640177303e-15 -13.0 20.0
endloop
endfacet
facet normal 0.0 0.0 1.0
outer loop
vertex -2.5361742973327637 -12.750208854675293 20.0
vertex -4.974884510040283 -12.0104341506958 20.0
vertex -2.9263548851013184 -14.711779594421387 20.0
endloop
endfacet
facet normal 0.0 0.0 0.9999999999999999
outer loop
vertex -2.5361742973327637 -12.750208854675293 20.0
vertex -2.9263548851013184 -14.711779594421387 20.0
vertex -2.7554553521421787e-15 -15.0 20.0
endloop
endfacet
facet normal 0.0 0.0 1.0
outer loop
vertex -2.3880611640177303e-15 -13.0 20.0
vertex -2.5361742973327637 -12.750208854675293 20.0
vertex -2.7554553521421787e-15 -15.0 20.0
endloop
endfacet
facet normal 0.0 0.0 -1.0
outer loop
vertex -13.0 1.5920408818909386e-15 -20.0
vertex -15.0 1.8369700935892946e-15 -20.0
vertex -14.711779594421387 2.9263548851013184 -20.0
endloop
endfacet
facet normal 0.0 0.0 -0.9999999999999999
outer loop
vertex -13.0 1.5920408818909386e-15 -20.0
vertex -14.711779594421387 2.9263548851013184 -20.0
vertex -12.750208854675293 2.5361742973327637 -20.0
endloop
endfacet
facet normal 0.0 0.0 -1.0
outer loop
vertex -12.750208854675293 2.5361742973327637 -20.0
vertex -14.711779594421387 2.9263548851013184 -20.0
vertex -13.858193397521973 5.740251541137695 -20.0
endloop
endfacet
facet normal 0.9951847351074539 -0.09801705468492086 0.0
outer loop
vertex -13.0 1.5920408818909386e-15 -20.0
vertex -12.750208854675293 2.5361742973327637 -20.0
vertex -13.0 1.6440883036426368e-15 -3.0
endloop
endfacet
facet normal 0.9569403304265127 -0.2902846947449978 0.0
outer loop
vertex -12.750208854675293 2.5361742973327637 -20.0
vertex -12.0104341506958 4.974884510040283 -20.0
vertex -12.750208854675293 2.5361742973327637 -3.0
endloop
endfacet
facet normal -0.0 -0.0 1.0
outer loop
vertex 12.0104341506958 4.974884510040283 20.0
vertex 15.0 0.0 20.0
vertex 8.333553314208984 12.472043991088867 20.0
endloop
endfacet
facet normal 0.0 0.0 -1.0
outer loop
vertex -12.0104341506958 4.974884510040283 -20.0
vertex -13.858193397521973 5.740251541137695 -20.0
vertex -12.472043991088867 8.333553314208984 -20.0
endloop
endfacet
facet normal 0.0 0.0 -0.9999999999999999
outer loop
vertex -12.0104341506958 4.974884510040283 -20.0
vertex -12.472043991088867 8.333553314208984 -20.0
vertex -10.809104919433594 7.222413063049316 -20.0
endloop
endfacet
facet normal 0.8819212331391941 -0.47139679521422634 0.0
outer loop
vertex -12.0104341506958 4.974884510040283 -20.0
vertex -10.809104919433594 7.222413063049316 -20.0
vertex -12.0104341506958 4.974884510040283 -3.0
endloop
endfacet
facet normal -0.9951847397348536 0.0980170077020906 0.0
outer loop
vertex -14.711779594421387 2.9263548851013184 -20.0
vertex -15.0 1.8369700935892946e-15 -20.0
vertex -14.711779594421387 2.9263548851013184 20.0
endloop
endfacet
facet normal 0.9951847351074539 -0.09801705468492086 0.0
outer loop
vertex -12.750208854675293 2.5361742973327637 -20.0
vertex -12.750208854675293 2.5361742973327637 -3.0
vertex -13.0 1.6440883036426368e-15 -3.0
endloop
endfacet
facet normal -0.9569403377843428 0.29028467048948303 0.0
outer loop
vertex -13.858193397521973 5.740251541137695 -20.0
vertex -14.711779594421387 2.9263548851013184 -20.0
vertex -13.858193397521973 5.740251541137695 20.0
endloop
endfacet
facet normal 0.9569403304265127 -0.2902846947449978 0.0
outer loop
vertex -12.0104341506958 4.974884510040283 -20.0
vertex -12.0104341506958 4.974884510040283 -3.0
vertex -12.750208854675293 2.5361742973327637 -3.0
endloop
endfacet
facet normal -0.8819211611615521 0.47139692987487697 0.0
outer loop
vertex -12.472043991088867 8.333553314208984 -20.0
vertex -13.858193397521973 5.740251541137695 -20.0
vertex -12.472043991088867 8.333553314208984 20.0
endloop
endfacet
facet normal 0.8819212331391941 -0.47139679521422634 0.0
outer loop
vertex -10.809104919433594 7.222413063049316 -20.0
vertex -10.809104919433594 7.222413063049316 -3.0
vertex -12.0104341506958 4.974884510040283 -3.0
endloop
endfacet
facet normal 0.0 -0.0 -1.0
outer loop
vertex -12.472043991088867 8.333553314208984 -20.0
vertex -10.60660171508789 10.60660171508789 -20.0
vertex -10.809104919433594 7.222413063049316 -20.0
endloop
endfacet
facet normal 0.0 -0.0 -1.0
outer loop
vertex -10.60660171508789 10.60660171508789 -20.0
vertex -9.192388534545898 9.192388534545898 -20.0
vertex -10.809104919433594 7.222413063049316 -20.0
endloop
endfacet
facet normal 0.0 0.0 -1.0
outer loop
vertex -9.192388534545898 9.192388534545898 -20.0
vertex -10.60660171508789 10.60660171508789 -20.0
vertex -8.333553314208984 12.472043991088867 -20.0
endloop
endfacet
facet normal 0.0 -0.0 -1.0
outer loop
vertex -8.333553314208984 12.472043991088867 -20.0
vertex -7.222413063049316 10.809104919433594 -20.0
vertex -9.192388534545898 9.192388534545898 -20.0
endloop
endfacet
facet normal 0.7730105886439769 -0.6343931193229418 0.0
outer loop
vertex -10.809104919433594 7.222413063049316 -20.0
vertex -9.192388534545898 9.192388534545898 -20.0
vertex -10.809104919433594 7.222413063049316 -3.0
endloop
endfacet
facet normal 0.6343931193229418 -0.7730105886439769 0.0
outer loop
vertex -9.192388534545898 9.192388534545898 -20.0
vertex -7.222413063049316 10.809104919433594 -20.0
vertex -9.192388534545898 9.192388534545898 -3.0
endloop
endfacet
facet normal 0.7730105886439769 -0.6343931193229418 0.0
outer loop
vertex -9.192388534545898 9.192388534545898 -20.0
vertex -9.192388534545898 9.192388534545898 -3.0
vertex -10.809104919433594 7.222413063049316 -3.0
endloop
endfacet
facet normal -0.7730105095858146 0.6343932156556211 0.0
outer loop
vertex -10.60660171508789 10.60660171508789 -20.0
vertex -12.472043991088867 8.333553314208984 -20.0
vertex -10.60660171508789 10.60660171508789 20.0
endloop
endfacet
facet normal 0.6343931193229418 -0.7730105886439769 0.0
outer loop
vertex -7.222413063049316 10.809104919433594 -20.0
vertex -7.222413063049316 10.809104919433594 -3.0
vertex -9.192388534545898 9.192388534545898 -3.0
endloop
endfacet
facet normal -0.6343932156556211 0.7730105095858146 0.0
outer loop
vertex -8.333553314208984 12.472043991088867 -20.0
vertex -10.60660171508789 10.60660171508789 -20.0
vertex -8.333553314208984 12.472043991088867 20.0
endloop
endfacet
facet normal 0.0 0.0 1.0
outer loop
vertex 15.0 0.0 20.0
vertex 12.472043991088867 8.333553314208984 20.0
vertex 10.60660171508789 10.60660171508789 20.0
endloop
endfacet
facet normal -0.0 -0.0 1.0
outer loop
vertex 12.472043991088867 8.333553314208984 20.0
vertex 15.0 0.0 20.0
vertex 13.858193397521973 5.740251541137695 20.0
endloop
endfacet
facet normal -0.6343931193229418 -0.773010588643977 0.0
outer loop
vertex 7.222413063049316 10.809104919433594 -1.0
vertex 9.192388534545898 9.192388534545898 -1.0
vertex 9.192388534545898 9.192388534545898 20.0
endloop
endfacet
facet normal -0.773010588643977 -0.6343931193229418 -0.0
outer loop
vertex 9.192388534545898 9.192388534545898 20.0
vertex 9.192388534545898 9.192388534545898 -1.0
vertex 10.809104919433594 7.222413063049316 -1.0
endloop
endfacet
facet normal 0.7730105095858146 0.6343932156556211 -0.0
outer loop
vertex 12.472043991088867 8.333553314208984 20.0
vertex 10.60660171508789 10.60660171508789 -20.0
vertex 10.60660171508789 10.60660171508789 20.0
endloop
endfacet
facet normal 0.6343932156556211 0.7730105095858146 -0.0
outer loop
vertex 10.60660171508789 10.60660171508789 20.0
vertex 8.333553314208984 12.472043991088867 -20.0
vertex 8.333553314208984 12.472043991088867 20.0
endloop
endfacet
facet normal -0.6343931193229418 -0.773010588643977 -0.0
outer loop
vertex 7.222413063049316 10.809104919433594 20.0
vertex 7.222413063049316 10.809104919433594 -1.0
vertex 9.192388534545898 9.192388534545898 20.0
endloop
endfacet
facet normal -0.773010588643977 -0.6343931193229418 0.0
outer loop
vertex 10.809104919433594 7.222413063049316 20.0
vertex 9.192388534545898 9.192388534545898 20.0
vertex 10.809104919433594 7.222413063049316 -1.0
endloop
endfacet
facet normal 0.0 0.0 1.0
outer loop
vertex 12.0104341506958 4.974884510040283 20.0
vertex 8.333553314208984 12.472043991088867 20.0
vertex 10.809104919433594 7.222413063049316 20.0
endloop
endfacet
facet normal -0.0 -0.0 1.0
outer loop
vertex 9.192388534545898 9.192388534545898 20.0
vertex 10.809104919433594 7.222413063049316 20.0
vertex 8.333553314208984 12.472043991088867 20.0
endloop
endfacet
facet normal 0.47139679521422634 -0.8819212331391941 0.0
outer loop
vertex -7.222413063049316 10.809104919433594 -20.0
vertex -4.974884510040283 12.0104341506958 -20.0
vertex -7.222413063049316 10.809104919433594 -3.0
endloop
endfacet
facet normal 0.0 0.0 -1.0
outer loop
vertex -7.222413063049316 10.809104919433594 -20.0
vertex -8.333553314208984 12.472043991088867 -20.0
vertex -5.740251541137695 13.858193397521973 -20.0
endloop
endfacet
facet normal 0.0 -0.0 -1.0
outer loop
vertex -5.740251541137695 13.858193397521973 -20.0
vertex -4.974884510040283 12.0104341506958 -20.0
vertex -7.222413063049316 10.809104919433594 -20.0
endloop
endfacet
facet normal 0.0 0.0 -1.0
outer loop
vertex -4.974884510040283 12.0104341506958 -20.0
vertex -5.740251541137695 13.858193397521973 -20.0
vertex -2.9263548851013184 14.711779594421387 -20.0
endloop
endfacet
facet normal 0.2902846947449978 -0.9569403304265127 0.0
outer loop
vertex -4.974884510040283 12.0104341506958 -3.0
vertex -4.974884510040283 12.0104341506958 -20.0
vertex -2.5361742973327637 12.750208854675293 -20.0
endloop
endfacet
facet normal 0.0 0.0 -1.0
outer loop
vertex -4.974884510040283 12.0104341506958 -20.0
vertex -2.9263548851013184 14.711779594421387 -20.0
vertex -2.5361742973327637 12.750208854675293 -20.0
endloop
endfacet
facet normal 0.0 0.0 -1.0
outer loop
vertex -2.5361742973327637 12.750208854675293 -20.0
vertex -2.9263548851013184 14.711779594421387 -20.0
vertex 9.184850467946473e-16 15.0 -20.0
endloop
endfacet
facet normal 0.0 -0.0 -0.9999999999999999
outer loop
vertex -2.5361742973327637 12.750208854675293 -20.0
vertex 9.184850467946473e-16 15.0 -20.0
vertex 7.960204409454693e-16 13.0 -20.0
endloop
endfacet
facet normal 0.09801705468492078 -0.995184735107454 0.0
outer loop
vertex -2.5361742973327637 12.750208854675293 -3.0
vertex -2.5361742973327637 12.750208854675293 -20.0
vertex 7.960204409454693e-16 13.0 -20.0
endloop
endfacet
facet normal 0.47139679521422634 -0.8819212331391941 0.0
outer loop
vertex -4.974884510040283 12.0104341506958 -20.0
vertex -4.974884510040283 12.0104341506958 -3.0
vertex -7.222413063049316 10.809104919433594 -3.0
endloop
endfacet
facet normal -0.47139692987487697 0.8819211611615521 0.0
outer loop
vertex -5.740251541137695 13.858193397521973 -20.0
vertex -8.333553314208984 12.472043991088867 -20.0
vertex -5.740251541137695 13.858193397521973 20.0
endloop
endfacet
facet normal -0.29028467048948303 0.9569403377843428 0.0
outer loop
vertex -2.9263548851013184 14.711779594421387 -20.0
vertex -5.740251541137695 13.858193397521973 -20.0
vertex -2.9263548851013184 14.711779594421387 20.0
endloop
endfacet
facet normal 0.0 0.0 1.0
outer loop
vertex 8.333553314208984 12.472043991088867 20.0
vertex 5.740251541137695 13.858193397521973 20.0
vertex 9.192388534545898 9.192388534545898 20.0
endloop
endfacet
facet normal -0.0 -0.0 1.0
outer loop
vertex 8.333553314208984 12.472043991088867 20.0
vertex 15.0 0.0 20.0
vertex 10.60660171508789 10.60660171508789 20.0
endloop
endfacet
facet normal 0.2902846947449978 -0.9569403304265127 0.0
outer loop
vertex -2.5361742973327637 12.750208854675293 -20.0
vertex -2.5361742973327637 12.750208854675293 -3.0
vertex -4.974884510040283 12.0104341506958 -3.0
endloop
endfacet
facet normal 0.09801705468492078 -0.995184735107454 0.0
outer loop
vertex 7.960204409454693e-16 13.0 -20.0
vertex 7.960204409454693e-16 13.0 -3.0
vertex -2.5361742973327637 12.750208854675293 -3.0
endloop
endfacet
facet normal -0.09801700770209053 0.9951847397348537 0.0
outer loop
vertex 9.184850467946473e-16 15.0 -20.0
vertex -2.9263548851013184 14.711779594421387 -20.0
vertex 9.184850467946473e-16 15.0 20.0
endloop
endfacet
facet normal -0.9951847397348536 0.0980170077020906 0.0
outer loop
vertex -14.711779594421387 2.9263548851013184 20.0
vertex -15.0 1.8369700935892946e-15 -20.0
vertex -15.0 1.8369700935892946e-15 20.0
endloop
endfacet
facet normal 0.9951847351074539 -0.09801705468492088 0.0
outer loop
vertex -12.750208854675293 2.5361742973327637 -1.0
vertex -13.0 1.7145054348005574e-15 20.0
vertex -13.0 1.7145054348005574e-15 -1.0
endloop
endfacet
facet normal 0.9569403304265128 -0.2902846947449978 0.0
outer loop
vertex -12.750208854675293 2.5361742973327637 20.0
vertex -12.750208854675293 2.5361742973327637 -1.0
vertex -12.0104341506958 4.974884510040283 -1.0
endloop
endfacet
facet normal -0.9569403377843428 0.29028467048948303 0.0
outer loop
vertex -13.858193397521973 5.740251541137695 20.0
vertex -14.711779594421387 2.9263548851013184 -20.0
vertex -14.711779594421387 2.9263548851013184 20.0
endloop
endfacet
facet normal -0.8819211611615521 0.47139692987487697 0.0
outer loop
vertex -12.472043991088867 8.333553314208984 20.0
vertex -13.858193397521973 5.740251541137695 -20.0
vertex -13.858193397521973 5.740251541137695 20.0
endloop
endfacet
facet normal 0.8819212331391941 -0.47139679521422634 0.0
outer loop
vertex -12.0104341506958 4.974884510040283 20.0
vertex -12.0104341506958 4.974884510040283 -1.0
vertex -10.809104919433594 7.222413063049316 -1.0
endloop
endfacet
facet normal 0.9951847351074539 -0.09801705468492088 0.0
outer loop
vertex -12.750208854675293 2.5361742973327637 -1.0
vertex -12.750208854675293 2.5361742973327637 20.0
vertex -13.0 1.7145054348005574e-15 20.0
endloop
endfacet
facet normal -0.0 0.0 1.0
outer loop
vertex -14.711779594421387 2.9263548851013184 20.0
vertex -15.0 1.8369700935892946e-15 20.0
vertex -12.750208854675293 2.5361742973327637 20.0
endloop
endfacet
facet normal 0.0 0.0 1.0
outer loop
vertex -12.750208854675293 2.5361742973327637 20.0
vertex -15.0 1.8369700935892946e-15 20.0
vertex -13.0 1.7145054348005574e-15 20.0
endloop
endfacet
facet normal 0.0 -0.0 1.0
outer loop
vertex -12.750208854675293 2.5361742973327637 20.0
vertex -12.0104341506958 4.974884510040283 20.0
vertex -14.711779594421387 2.9263548851013184 20.0
endloop
endfacet
facet normal 0.9569403304265128 -0.2902846947449978 0.0
outer loop
vertex -12.0104341506958 4.974884510040283 -1.0
vertex -12.0104341506958 4.974884510040283 20.0
vertex -12.750208854675293 2.5361742973327637 20.0
endloop
endfacet
facet normal -0.0 0.0 1.0
outer loop
vertex -13.858193397521973 5.740251541137695 20.0
vertex -14.711779594421387 2.9263548851013184 20.0
vertex -12.0104341506958 4.974884510040283 20.0
endloop
endfacet
facet normal 0.0 -0.0 1.0
outer loop
vertex -12.0104341506958 4.974884510040283 20.0
vertex -10.809104919433594 7.222413063049316 20.0
vertex -13.858193397521973 5.740251541137695 20.0
endloop
endfacet
facet normal -0.0 0.0 1.0
outer loop
vertex -12.472043991088867 8.333553314208984 20.0
vertex -13.858193397521973 5.740251541137695 20.0
vertex -10.809104919433594 7.222413063049316 20.0
endloop
endfacet
facet normal 0.8819212331391941 -0.47139679521422634 0.0
outer loop
vertex -10.809104919433594 7.222413063049316 -1.0
vertex -10.809104919433594 7.222413063049316 20.0
vertex -12.0104341506958 4.974884510040283 20.0
endloop
endfacet
facet normal -0.7730105095858146 0.6343932156556211 0.0
outer loop
vertex -10.60660171508789 10.60660171508789 20.0
vertex -12.472043991088867 8.333553314208984 -20.0
vertex -12.472043991088867 8.333553314208984 20.0
endloop
endfacet
facet normal 0.773010588643977 -0.6343931193229418 0.0
outer loop
vertex -10.809104919433594 7.222413063049316 20.0
vertex -10.809104919433594 7.222413063049316 -1.0
vertex -9.192388534545898 9.192388534545898 -1.0
endloop
endfacet
facet normal -0.6343932156556211 0.7730105095858146 0.0
outer loop
vertex -8.333553314208984 12.472043991088867 20.0
vertex -10.60660171508789 10.60660171508789 -20.0
vertex -10.60660171508789 10.60660171508789 20.0
endloop
endfacet
facet normal 0.6343931193229418 -0.773010588643977 0.0
outer loop
vertex -9.192388534545898 9.192388534545898 20.0
vertex -9.192388534545898 9.192388534545898 -1.0
vertex -7.222413063049316 10.809104919433594 -1.0
endloop
endfacet
facet normal 0.773010588643977 -0.6343931193229418 0.0
outer loop
vertex -9.192388534545898 9.192388534545898 -1.0
vertex -9.192388534545898 9.192388534545898 20.0
vertex -10.809104919433594 7.222413063049316 20.0
endloop
endfacet
facet normal 0.6343931193229418 -0.773010588643977 0.0
outer loop
vertex -7.222413063049316 10.809104919433594 -1.0
vertex -7.222413063049316 10.809104919433594 20.0
vertex -9.192388534545898 9.192388534545898 20.0
endloop
endfacet
facet normal -0.0 0.0 1.0
outer loop
vertex -12.472043991088867 8.333553314208984 20.0
vertex -10.809104919433594 7.222413063049316 20.0
vertex -9.192388534545898 9.192388534545898 20.0
endloop
endfacet
facet normal -0.0 0.0 1.0
outer loop
vertex -10.60660171508789 10.60660171508789 20.0
vertex -12.472043991088867 8.333553314208984 20.0
vertex -9.192388534545898 9.192388534545898 20.0
endloop
endfacet
facet normal 0.0 -0.0 1.0
outer loop
vertex -9.192388534545898 9.192388534545898 20.0
vertex -7.222413063049316 10.809104919433594 20.0
vertex -10.60660171508789 10.60660171508789 20.0
endloop
endfacet
facet normal -0.0 0.0 1.0
outer loop
vertex -8.333553314208984 12.472043991088867 20.0
vertex -10.60660171508789 10.60660171508789 20.0
vertex -7.222413063049316 10.809104919433594 20.0
endloop
endfacet
facet normal 0.47139679521422634 -0.8819212331391941 0.0
outer loop
vertex -7.222413063049316 10.809104919433594 20.0
vertex -7.222413063049316 10.809104919433594 -1.0
vertex -4.974884510040283 12.0104341506958 -1.0
endloop
endfacet
facet normal -0.47139692987487697 0.8819211611615521 0.0
outer loop
vertex -5.740251541137695 13.858193397521973 20.0
vertex -8.333553314208984 12.472043991088867 -20.0
vertex -8.333553314208984 12.472043991088867 20.0
endloop
endfacet
facet normal -0.29028467048948303 0.9569403377843428 0.0
outer loop
vertex -2.9263548851013184 14.711779594421387 20.0
vertex -5.740251541137695 13.858193397521973 -20.0
vertex -5.740251541137695 13.858193397521973 20.0
endloop
endfacet
facet normal 0.2902846947449978 -0.9569403304265128 0.0
outer loop
vertex -4.974884510040283 12.0104341506958 -1.0
vertex -2.5361742973327637 12.750208854675293 -1.0
vertex -2.5361742973327637 12.750208854675293 20.0
endloop
endfacet
facet normal -0.09801700770209053 0.9951847397348537 0.0
outer loop
vertex 9.184850467946473e-16 15.0 20.0
vertex -2.9263548851013184 14.711779594421387 -20.0
vertex -2.9263548851013184 14.711779594421387 20.0
endloop
endfacet
facet normal 0.09801705468492078 -0.9951847351074541 0.0
outer loop
vertex -2.5361742973327637 12.750208854675293 -1.0
vertex 7.960204409454693e-16 13.0 -1.0
vertex 7.960204409454693e-16 13.0 20.0
endloop
endfacet
facet normal 0.47139679521422634 -0.8819212331391941 0.0
outer loop
vertex -4.974884510040283 12.0104341506958 -1.0
vertex -4.974884510040283 12.0104341506958 20.0
vertex -7.222413063049316 10.809104919433594 20.0
endloop
endfacet
facet normal 0.2902846947449978 -0.9569403304265128 0.0
outer loop
vertex -4.974884510040283 12.0104341506958 20.0
vertex -4.974884510040283 12.0104341506958 -1.0
vertex -2.5361742973327637 12.750208854675293 20.0
endloop
endfacet
facet normal 0.0 -0.0 0.9999999999999999
outer loop
vertex -7.222413063049316 10.809104919433594 20.0
vertex -4.974884510040283 12.0104341506958 20.0
vertex -8.333553314208984 12.472043991088867 20.0
endloop
endfacet
facet normal 0.0 0.0 1.0
outer loop
vertex -5.740251541137695 13.858193397521973 20.0
vertex -8.333553314208984 12.472043991088867 20.0
vertex -4.974884510040283 12.0104341506958 20.0
endloop
endfacet
facet normal 0.0 -0.0 0.9999999999999999
outer loop
vertex -4.974884510040283 12.0104341506958 20.0
vertex -2.5361742973327637 12.750208854675293 20.0
vertex -5.740251541137695 13.858193397521973 20.0
endloop
endfacet
facet normal 0.09801705468492078 -0.9951847351074541 0.0
outer loop
vertex -2.5361742973327637 12.750208854675293 20.0
vertex -2.5361742973327637 12.750208854675293 -1.0
vertex 7.960204409454693e-16 13.0 20.0
endloop
endfacet
facet normal 0.0 0.0 1.0
outer loop
vertex -2.9263548851013184 14.711779594421387 20.0
vertex -5.740251541137695 13.858193397521973 20.0
vertex -2.5361742973327637 12.750208854675293 20.0
endloop
endfacet
facet normal -0.0 0.0 1.0
outer loop
vertex -2.9263548851013184 14.711779594421387 20.0
vertex -2.5361742973327637 12.750208854675293 20.0
vertex 7.960204409454693e-16 13.0 20.0
endloop
endfacet
facet normal 0.0 0.0 0.9999999999999999
outer loop
vertex 9.184850467946473e-16 15.0 20.0
vertex -2.9263548851013184 14.711779594421387 20.0
vertex 7.960204409454693e-16 13.0 20.0
endloop
endfacet
facet normal 0.0 -0.0 -1.0
outer loop
vertex -2.3880611640177303e-15 -13.0 -20.0
vertex 2.5361742973327637 -12.750208854675293 -20.0
vertex -2.7554553521421787e-15 -15.0 -20.0
endloop
endfacet
facet normal 0.0 0.0 -1.0
outer loop
vertex -2.7554553521421787e-15 -15.0 -20.0
vertex 2.5361742973327637 -12.750208854675293 -20.0
vertex 2.9263548851013184 -14.711779594421387 -20.0
endloop
endfacet
facet normal 0.0 -0.0 -1.0
outer loop
vertex 2.5361742973327637 -12.750208854675293 -20.0
vertex 4.974884510040283 -12.0104341506958 -20.0
vertex 2.9263548851013184 -14.711779594421387 -20.0
endloop
endfacet
facet normal -0.09801705468492071 0.9951847351074539 0.0
outer loop
vertex -2.3880611640177303e-15 -13.0 -20.0
vertex -2.3880611640177303e-15 -13.0 -3.0
vertex 2.5361742973327637 -12.750208854675293 -20.0
endloop
endfacet
facet normal -0.2902846947449978 0.9569403304265127 0.0
outer loop
vertex 2.5361742973327637 -12.750208854675293 -20.0
vertex 2.5361742973327637 -12.750208854675293 -3.0
vertex 4.974884510040283 -12.0104341506958 -20.0
endloop
endfacet
facet normal 0.0 0.0 -1.0
outer loop
vertex 2.9263548851013184 -14.711779594421387 -20.0
vertex 4.974884510040283 -12.0104341506958 -20.0
vertex 5.740251541137695 -13.858193397521973 -20.0
endloop
endfacet
facet normal 0.0 0.0 -1.0
outer loop
vertex 5.740251541137695 -13.858193397521973 -20.0
vertex 4.974884510040283 -12.0104341506958 -20.0
vertex 7.222413063049316 -10.809104919433594 -20.0
endloop
endfacet
facet normal 0.0 0.0 -1.0
outer loop
vertex 5.740251541137695 -13.858193397521973 -20.0
vertex 7.222413063049316 -10.809104919433594 -20.0
vertex 9.192388534545898 -9.192388534545898 -20.0
endloop
endfacet
facet normal -0.47139679521422634 0.8819212331391941 0.0
outer loop
vertex 4.974884510040283 -12.0104341506958 -20.0
vertex 7.222413063049316 -10.809104919433594 -3.0
vertex 7.222413063049316 -10.809104919433594 -20.0
endloop
endfacet
facet normal 0.09801700770209044 -0.9951847397348536 0.0
outer loop
vertex -2.7554553521421787e-15 -15.0 20.0
vertex -2.7554553521421787e-15 -15.0 -20.0
vertex 2.9263548851013184 -14.711779594421387 -20.0
endloop
endfacet
facet normal -0.09801705468492071 0.9951847351074539 0.0
outer loop
vertex -2.3880611640177303e-15 -13.0 -3.0
vertex 2.5361742973327637 -12.750208854675293 -3.0
vertex 2.5361742973327637 -12.750208854675293 -20.0
endloop
endfacet
facet normal 0.29028467048948303 -0.9569403377843428 0.0
outer loop
vertex 2.9263548851013184 -14.711779594421387 -20.0
vertex 5.740251541137695 -13.858193397521973 -20.0
vertex 2.9263548851013184 -14.711779594421387 20.0
endloop
endfacet
facet normal -0.2902846947449978 0.9569403304265127 0.0
outer loop
vertex 2.5361742973327637 -12.750208854675293 -3.0
vertex 4.974884510040283 -12.0104341506958 -3.0
vertex 4.974884510040283 -12.0104341506958 -20.0
endloop
endfacet
facet normal 0.47139692987487697 -0.8819211611615521 0.0
outer loop
vertex 5.740251541137695 -13.858193397521973 -20.0
vertex 8.333553314208984 -12.472043991088867 -20.0
vertex 5.740251541137695 -13.858193397521973 20.0
endloop
endfacet
facet normal -0.47139679521422634 0.8819212331391941 0.0
outer loop
vertex 4.974884510040283 -12.0104341506958 -20.0
vertex 4.974884510040283 -12.0104341506958 -3.0
vertex 7.222413063049316 -10.809104919433594 -3.0
endloop
endfacet
facet normal -0.0 0.0 -1.0
outer loop
vertex 8.333553314208984 -12.472043991088867 -20.0
vertex 5.740251541137695 -13.858193397521973 -20.0
vertex 9.192388534545898 -9.192388534545898 -20.0
endloop
endfacet
facet normal 0.0 0.0 -1.0
outer loop
vertex 8.333553314208984 -12.472043991088867 -20.0
vertex 9.192388534545898 -9.192388534545898 -20.0
vertex 10.809104919433594 -7.222413063049316 -20.0
endloop
endfacet
facet normal 0.0 -0.0 -0.9999999999999999
outer loop
vertex 8.333553314208984 -12.472043991088867 -20.0
vertex 10.809104919433594 -7.222413063049316 -20.0
vertex 10.60660171508789 -10.60660171508789 -20.0
endloop
endfacet
facet normal 0.0 0.0 -1.0
outer loop
vertex 10.60660171508789 -10.60660171508789 -20.0
vertex 10.809104919433594 -7.222413063049316 -20.0
vertex 12.0104341506958 -4.974884510040283 -20.0
endloop
endfacet
facet normal -0.6343931193229418 0.7730105886439769 0.0
outer loop
vertex 9.192388534545898 -9.192388534545898 -3.0
vertex 9.192388534545898 -9.192388534545898 -20.0
vertex 7.222413063049316 -10.809104919433594 -20.0
endloop
endfacet
facet normal -0.7730105886439769 0.6343931193229418 0.0
outer loop
vertex 9.192388534545898 -9.192388534545898 -20.0
vertex 9.192388534545898 -9.192388534545898 -3.0
vertex 10.809104919433594 -7.222413063049316 -20.0
endloop
endfacet
facet normal 0.6343932156556211 -0.7730105095858146 0.0
outer loop
vertex 8.333553314208984 -12.472043991088867 -20.0
vertex 10.60660171508789 -10.60660171508789 -20.0
vertex 8.333553314208984 -12.472043991088867 20.0
endloop
endfacet
facet normal -0.6343931193229418 0.7730105886439769 0.0
outer loop
vertex 7.222413063049316 -10.809104919433594 -20.0
vertex 7.222413063049316 -10.809104919433594 -3.0
vertex 9.192388534545898 -9.192388534545898 -3.0
endloop
endfacet
facet normal 0.7730105095858146 -0.6343932156556211 0.0
outer loop
vertex 10.60660171508789 -10.60660171508789 -20.0
vertex 12.472043991088867 -8.333553314208984 -20.0
vertex 10.60660171508789 -10.60660171508789 20.0
endloop
endfacet
facet normal -0.7730105886439769 0.6343931193229418 0.0
outer loop
vertex 9.192388534545898 -9.192388534545898 -3.0
vertex 10.809104919433594 -7.222413063049316 -3.0
vertex 10.809104919433594 -7.222413063049316 -20.0
endloop
endfacet
facet normal -0.8819212331391941 0.47139679521422634 0.0
outer loop
vertex 10.809104919433594 -7.222413063049316 -20.0
vertex 10.809104919433594 -7.222413063049316 -3.0
vertex 12.0104341506958 -4.974884510040283 -20.0
endloop
endfacet
facet normal 0.0 0.0 -1.0
outer loop
vertex 10.60660171508789 -10.60660171508789 -20.0
vertex 12.0104341506958 -4.974884510040283 -20.0
vertex 12.750208854675293 -2.5361742973327637 -20.0
endloop
endfacet
facet normal -0.0 0.0 -0.9999999999999999
outer loop
vertex 12.472043991088867 -8.333553314208984 -20.0
vertex 10.60660171508789 -10.60660171508789 -20.0
vertex 14.711779594421387 2.9263548851013184 -20.0
endloop
endfacet
facet normal -0.0 0.0 -1.0
outer loop
vertex 14.711779594421387 2.9263548851013184 -20.0
vertex 10.60660171508789 -10.60660171508789 -20.0
vertex 12.750208854675293 -2.5361742973327637 -20.0
endloop
endfacet
facet normal 0.0 -0.0 -1.0
outer loop
vertex 12.472043991088867 -8.333553314208984 -20.0
vertex 14.711779594421387 2.9263548851013184 -20.0
vertex 13.858193397521973 -5.740251541137695 -20.0
endloop
endfacet
facet normal 0.0 0.0 -1.0
outer loop
vertex 13.858193397521973 -5.740251541137695 -20.0
vertex 14.711779594421387 2.9263548851013184 -20.0
vertex 14.711779594421387 -2.9263548851013184 -20.0
endloop
endfacet
facet normal -0.9569403304265127 0.2902846947449978 0.0
outer loop
vertex 12.0104341506958 -4.974884510040283 -20.0
vertex 12.750208854675293 -2.5361742973327637 -3.0
vertex 12.750208854675293 -2.5361742973327637 -20.0
endloop
endfacet
facet normal -0.9951847351074539 0.0980170546849208 0.0
outer loop
vertex 13.0 0.0 -3.0
vertex 13.0 0.0 -20.0
vertex 12.750208854675293 -2.5361742973327637 -20.0
endloop
endfacet
facet normal -0.8819212331391941 0.47139679521422634 0.0
outer loop
vertex 10.809104919433594 -7.222413063049316 -3.0
vertex 12.0104341506958 -4.974884510040283 -3.0
vertex 12.0104341506958 -4.974884510040283 -20.0
endloop
endfacet
facet normal 0.8819211611615521 -0.47139692987487697 0.0
outer loop
vertex 12.472043991088867 -8.333553314208984 -20.0
vertex 13.858193397521973 -5.740251541137695 -20.0
vertex 12.472043991088867 -8.333553314208984 20.0
endloop
endfacet
facet normal -0.9569403304265127 0.2902846947449978 0.0
outer loop
vertex 12.0104341506958 -4.974884510040283 -20.0
vertex 12.0104341506958 -4.974884510040283 -3.0
vertex 12.750208854675293 -2.5361742973327637 -3.0
endloop
endfacet
facet normal 0.9569403377843428 -0.29028467048948303 0.0
outer loop
vertex 13.858193397521973 -5.740251541137695 -20.0
vertex 14.711779594421387 -2.9263548851013184 -20.0
vertex 13.858193397521973 -5.740251541137695 20.0
endloop
endfacet
facet normal -0.9951847351074539 0.0980170546849208 0.0
outer loop
vertex 12.750208854675293 -2.5361742973327637 -20.0
vertex 12.750208854675293 -2.5361742973327637 -3.0
vertex 13.0 0.0 -3.0
endloop
endfacet
facet normal 0.9951847397348536 -0.09801700770209054 0.0
outer loop
vertex 14.711779594421387 -2.9263548851013184 -20.0
vertex 15.0 0.0 -20.0
vertex 14.711779594421387 -2.9263548851013184 20.0
endloop
endfacet
facet normal -0.09801705468492072 0.995184735107454 0.0
outer loop
vertex 2.5361742973327637 -12.750208854675293 20.0
vertex 2.5361742973327637 -12.750208854675293 -1.0
vertex -2.3880611640177303e-15 -13.0 -1.0
endloop
endfacet
facet normal 0.09801700770209044 -0.9951847397348536 0.0
outer loop
vertex -2.7554553521421787e-15 -15.0 20.0
vertex 2.9263548851013184 -14.711779594421387 -20.0
vertex 2.9263548851013184 -14.711779594421387 20.0
endloop
endfacet
facet normal 0.29028467048948303 -0.9569403377843428 0.0
outer loop
vertex 2.9263548851013184 -14.711779594421387 20.0
vertex 5.740251541137695 -13.858193397521973 -20.0
vertex 5.740251541137695 -13.858193397521973 20.0
endloop
endfacet
facet normal -0.2902846947449978 0.9569403304265128 0.0
outer loop
vertex 2.5361742973327637 -12.750208854675293 -1.0
vertex 4.974884510040283 -12.0104341506958 20.0
vertex 4.974884510040283 -12.0104341506958 -1.0
endloop
endfacet
facet normal 0.47139692987487697 -0.8819211611615521 0.0
outer loop
vertex 5.740251541137695 -13.858193397521973 20.0
vertex 8.333553314208984 -12.472043991088867 -20.0
vertex 8.333553314208984 -12.472043991088867 20.0
endloop
endfacet
facet normal -0.47139679521422634 0.8819212331391941 0.0
outer loop
vertex 7.222413063049316 -10.809104919433594 20.0
vertex 7.222413063049316 -10.809104919433594 -1.0
vertex 4.974884510040283 -12.0104341506958 -1.0
endloop
endfacet
facet normal -0.09801705468492072 0.995184735107454 0.0
outer loop
vertex -2.3880611640177303e-15 -13.0 -1.0
vertex -2.3880611640177303e-15 -13.0 20.0
vertex 2.5361742973327637 -12.750208854675293 20.0
endloop
endfacet
facet normal -0.2902846947449978 0.9569403304265128 0.0
outer loop
vertex 2.5361742973327637 -12.750208854675293 -1.0
vertex 2.5361742973327637 -12.750208854675293 20.0
vertex 4.974884510040283 -12.0104341506958 20.0
endloop
endfacet
facet normal -0.0 0.0 1.0
outer loop
vertex -2.3880611640177303e-15 -13.0 20.0
vertex -2.7554553521421787e-15 -15.0 20.0
vertex 2.9263548851013184 -14.711779594421387 20.0
endloop
endfacet
facet normal 0.0 0.0 1.0
outer loop
vertex 2.5361742973327637 -12.750208854675293 20.0
vertex -2.3880611640177303e-15 -13.0 20.0
vertex 2.9263548851013184 -14.711779594421387 20.0
endloop
endfacet
facet normal 0.0 0.0 1.0
outer loop
vertex 4.974884510040283 -12.0104341506958 20.0
vertex 2.5361742973327637 -12.750208854675293 20.0
vertex 2.9263548851013184 -14.711779594421387 20.0
endloop
endfacet
facet normal -0.47139679521422634 0.8819212331391941 0.0
outer loop
vertex 4.974884510040283 -12.0104341506958 20.0
vertex 7.222413063049316 -10.809104919433594 20.0
vertex 4.974884510040283 -12.0104341506958 -1.0
endloop
endfacet
facet normal -0.0 0.0 1.0
outer loop
vertex 4.974884510040283 -12.0104341506958 20.0
vertex 2.9263548851013184 -14.711779594421387 20.0
vertex 5.740251541137695 -13.858193397521973 20.0
endloop
endfacet
facet normal 0.0 0.0 1.0
outer loop
vertex 7.222413063049316 -10.809104919433594 20.0
vertex 4.974884510040283 -12.0104341506958 20.0
vertex 5.740251541137695 -13.858193397521973 20.0
endloop
endfacet
facet normal -0.0 0.0 1.0
outer loop
vertex 7.222413063049316 -10.809104919433594 20.0
vertex 5.740251541137695 -13.858193397521973 20.0
vertex 8.333553314208984 -12.472043991088867 20.0
endloop
endfacet
facet normal -0.6343931193229418 0.773010588643977 0.0
outer loop
vertex 9.192388534545898 -9.192388534545898 20.0
vertex 9.192388534545898 -9.192388534545898 -1.0
vertex 7.222413063049316 -10.809104919433594 -1.0
endloop
endfacet
facet normal 0.6343932156556211 -0.7730105095858146 0.0
outer loop
vertex 8.333553314208984 -12.472043991088867 20.0
vertex 10.60660171508789 -10.60660171508789 -20.0
vertex 10.60660171508789 -10.60660171508789 20.0
endloop
endfacet
facet normal -0.773010588643977 0.6343931193229418 0.0
outer loop
vertex 9.192388534545898 -9.192388534545898 -1.0
vertex 10.809104919433594 -7.222413063049316 20.0
vertex 10.809104919433594 -7.222413063049316 -1.0
endloop
endfacet
facet normal 0.7730105095858146 -0.6343932156556211 0.0
outer loop
vertex 10.60660171508789 -10.60660171508789 20.0
vertex 12.472043991088867 -8.333553314208984 -20.0
vertex 12.472043991088867 -8.333553314208984 20.0
endloop
endfacet
facet normal -0.6343931193229418 0.773010588643977 0.0
outer loop
vertex 7.222413063049316 -10.809104919433594 -1.0
vertex 7.222413063049316 -10.809104919433594 20.0
vertex 9.192388534545898 -9.192388534545898 20.0
endloop
endfacet
facet normal -0.773010588643977 0.6343931193229418 0.0
outer loop
vertex 9.192388534545898 -9.192388534545898 -1.0
vertex 9.192388534545898 -9.192388534545898 20.0
vertex 10.809104919433594 -7.222413063049316 20.0
endloop
endfacet
facet normal 0.0 0.0 1.0
outer loop
vertex 9.192388534545898 -9.192388534545898 20.0
vertex 7.222413063049316 -10.809104919433594 20.0
vertex 8.333553314208984 -12.472043991088867 20.0
endloop
endfacet
facet normal 0.0 0.0 1.0
outer loop
vertex 10.809104919433594 -7.222413063049316 20.0
vertex 9.192388534545898 -9.192388534545898 20.0
vertex 8.333553314208984 -12.472043991088867 20.0
endloop
endfacet
facet normal -0.0 0.0 1.0
outer loop
vertex 10.809104919433594 -7.222413063049316 20.0
vertex 8.333553314208984 -12.472043991088867 20.0
vertex 12.0104341506958 -4.974884510040283 20.0
endloop
endfacet
facet normal 0.0 0.0 1.0
outer loop
vertex 8.333553314208984 -12.472043991088867 20.0
vertex 10.60660171508789 -10.60660171508789 20.0
vertex 15.0 0.0 20.0
endloop
endfacet
facet normal -0.8819212331391941 0.47139679521422634 0.0
outer loop
vertex 12.0104341506958 -4.974884510040283 20.0
vertex 12.0104341506958 -4.974884510040283 -1.0
vertex 10.809104919433594 -7.222413063049316 -1.0
endloop
endfacet
facet normal 0.8819211611615521 -0.47139692987487697 0.0
outer loop
vertex 12.472043991088867 -8.333553314208984 20.0
vertex 13.858193397521973 -5.740251541137695 -20.0
vertex 13.858193397521973 -5.740251541137695 20.0
endloop
endfacet
facet normal 0.9569403377843428 -0.29028467048948303 0.0
outer loop
vertex 13.858193397521973 -5.740251541137695 20.0
vertex 14.711779594421387 -2.9263548851013184 -20.0
vertex 14.711779594421387 -2.9263548851013184 20.0
endloop
endfacet
facet normal -0.9569403304265128 0.2902846947449978 0.0
outer loop
vertex 12.750208854675293 -2.5361742973327637 20.0
vertex 12.750208854675293 -2.5361742973327637 -1.0
vertex 12.0104341506958 -4.974884510040283 -1.0
endloop
endfacet
facet normal -0.995184735107454 0.09801705468492082 0.0
outer loop
vertex 13.0 0.0 20.0
vertex 13.0 0.0 -1.0
vertex 12.750208854675293 -2.5361742973327637 -1.0
endloop
endfacet
facet normal 0.9951847397348536 -0.09801700770209054 0.0
outer loop
vertex 14.711779594421387 -2.9263548851013184 20.0
vertex 15.0 0.0 -20.0
vertex 15.0 0.0 20.0
endloop
endfacet
facet normal -0.8819212331391941 0.47139679521422634 0.0
outer loop
vertex 10.809104919433594 -7.222413063049316 20.0
vertex 12.0104341506958 -4.974884510040283 20.0
vertex 10.809104919433594 -7.222413063049316 -1.0
endloop
endfacet
facet normal -0.9569403304265128 0.2902846947449978 0.0
outer loop
vertex 12.0104341506958 -4.974884510040283 -1.0
vertex 12.0104341506958 -4.974884510040283 20.0
vertex 12.750208854675293 -2.5361742973327637 20.0
endloop
endfacet
facet normal -0.0 0.0 1.0
outer loop
vertex 12.0104341506958 -4.974884510040283 20.0
vertex 8.333553314208984 -12.472043991088867 20.0
vertex 15.0 0.0 20.0
endloop
endfacet
facet normal -0.0 0.0 1.0
outer loop
vertex 15.0 0.0 20.0
vertex 10.60660171508789 -10.60660171508789 20.0
vertex 12.472043991088867 -8.333553314208984 20.0
endloop
endfacet
facet normal -0.0 0.0 1.0
outer loop
vertex 15.0 0.0 20.0
vertex 12.472043991088867 -8.333553314208984 20.0
vertex 13.858193397521973 -5.740251541137695 20.0
endloop
endfacet
facet normal -0.995184735107454 0.09801705468492082 0.0
outer loop
vertex 12.750208854675293 -2.5361742973327637 -1.0
vertex 12.750208854675293 -2.5361742973327637 20.0
vertex 13.0 0.0 20.0
endloop
endfacet
facet normal -0.0 0.0 1.0
outer loop
vertex 12.750208854675293 -2.5361742973327637 20.0
vertex 12.0104341506958 -4.974884510040283 20.0
vertex 15.0 0.0 20.0
endloop
endfacet
facet normal -0.0 0.0 1.0
outer loop
vertex 15.0 0.0 20.0
vertex 13.858193397521973 -5.740251541137695 20.0
vertex 14.711779594421387 -2.9263548851013184 20.0
endloop
endfacet
facet normal -0.0 0.0 1.0
outer loop
vertex 13.0 0.0 20.0
vertex 12.750208854675293 -2.5361742973327637 20.0
vertex 15.0 0.0 20.0
endloop
endfacet
facet normal 0.0 0.0 -1.0
outer loop
vertex 7.960204409454693e-16 13.0 -20.0
vertex 9.184850467946473e-16 15.0 -20.0
vertex 2.5361742973327637 12.750208854675293 -20.0
endloop
endfacet
facet normal 0.0 0.0 -1.0
outer loop
vertex 2.5361742973327637 12.750208854675293 -20.0
vertex 9.184850467946473e-16 15.0 -20.0
vertex 2.9263548851013184 14.711779594421387 -20.0
endloop
endfacet
facet normal 0.0 0.0 -1.0
outer loop
vertex 2.5361742973327637 12.750208854675293 -20.0
vertex 2.9263548851013184 14.711779594421387 -20.0
vertex 4.974884510040283 12.0104341506958 -20.0
endloop
endfacet
facet normal -0.09801705468492083 -0.9951847351074539 -0.0
outer loop
vertex 7.960204409454693e-16 13.0 -3.0
vertex 7.960204409454693e-16 13.0 -20.0
vertex 2.5361742973327637 12.750208854675293 -20.0
endloop
endfacet
facet normal -0.2902846947449978 -0.9569403304265127 0.0
outer loop
vertex 2.5361742973327637 12.750208854675293 -20.0
vertex 4.974884510040283 12.0104341506958 -20.0
vertex 2.5361742973327637 12.750208854675293 -3.0
endloop
endfacet
facet normal 0.0 0.0 -1.0
outer loop
vertex 4.974884510040283 12.0104341506958 -20.0
vertex 2.9263548851013184 14.711779594421387 -20.0
vertex 5.740251541137695 13.858193397521973 -20.0
endloop
endfacet
facet normal 0.0 0.0 -1.0
outer loop
vertex 7.222413063049316 10.809104919433594 -20.0
vertex 4.974884510040283 12.0104341506958 -20.0
vertex 5.740251541137695 13.858193397521973 -20.0
endloop
endfacet
facet normal 0.0 0.0 -1.0
outer loop
vertex 7.222413063049316 10.809104919433594 -20.0
vertex 5.740251541137695 13.858193397521973 -20.0
vertex 9.192388534545898 9.192388534545898 -20.0
endloop
endfacet
facet normal -0.47139679521422634 -0.8819212331391941 -0.0
outer loop
vertex 4.974884510040283 12.0104341506958 -3.0
vertex 4.974884510040283 12.0104341506958 -20.0
vertex 7.222413063049316 10.809104919433594 -20.0
endloop
endfacet
facet normal -0.09801705468492083 -0.9951847351074539 0.0
outer loop
vertex 7.960204409454693e-16 13.0 -3.0
vertex 2.5361742973327637 12.750208854675293 -20.0
vertex 2.5361742973327637 12.750208854675293 -3.0
endloop
endfacet
facet normal 0.09801700770209056 0.9951847397348536 0.0
outer loop
vertex 2.9263548851013184 14.711779594421387 -20.0
vertex 9.184850467946473e-16 15.0 -20.0
vertex 2.9263548851013184 14.711779594421387 20.0
endloop
endfacet
facet normal -0.47139679521422634 -0.8819212331391941 0.0
outer loop
vertex 7.222413063049316 10.809104919433594 -20.0
vertex 7.222413063049316 10.809104919433594 -3.0
vertex 4.974884510040283 12.0104341506958 -3.0
endloop
endfacet
facet normal -0.2902846947449978 -0.9569403304265127 0.0
outer loop
vertex 4.974884510040283 12.0104341506958 -20.0
vertex 4.974884510040283 12.0104341506958 -3.0
vertex 2.5361742973327637 12.750208854675293 -3.0
endloop
endfacet
facet normal 0.29028467048948303 0.9569403377843428 0.0
outer loop
vertex 5.740251541137695 13.858193397521973 -20.0
vertex 2.9263548851013184 14.711779594421387 -20.0
vertex 5.740251541137695 13.858193397521973 20.0
endloop
endfacet
facet normal 0.47139692987487697 0.8819211611615521 0.0
outer loop
vertex 5.740251541137695 13.858193397521973 -20.0
vertex 8.333553314208984 12.472043991088867 20.0
vertex 8.333553314208984 12.472043991088867 -20.0
endloop
endfacet
facet normal -0.8819212331391941 -0.47139679521422634 -0.0
outer loop
vertex 10.809104919433594 7.222413063049316 -3.0
vertex 10.809104919433594 7.222413063049316 -20.0
vertex 12.0104341506958 4.974884510040283 -20.0
endloop
endfacet
facet normal -0.0 0.0 -1.0
outer loop
vertex 14.711779594421387 2.9263548851013184 -20.0
vertex 12.750208854675293 -2.5361742973327637 -20.0
vertex 13.0 0.0 -20.0
endloop
endfacet
facet normal -0.0 0.0 -0.9999999999999999
outer loop
vertex 14.711779594421387 2.9263548851013184 -20.0
vertex 13.0 0.0 -20.0
vertex 12.750208854675293 2.5361742973327637 -20.0
endloop
endfacet
facet normal -0.0 0.0 -1.0
outer loop
vertex 15.0 0.0 -20.0
vertex 14.711779594421387 -2.9263548851013184 -20.0
vertex 14.711779594421387 2.9263548851013184 -20.0
endloop
endfacet
facet normal -0.0 0.0 -1.0
outer loop
vertex 14.711779594421387 2.9263548851013184 -20.0
vertex 12.750208854675293 2.5361742973327637 -20.0
vertex 12.0104341506958 4.974884510040283 -20.0
endloop
endfacet
facet normal -0.9951847351074539 -0.0980170546849208 -0.0
outer loop
vertex 12.750208854675293 2.5361742973327637 -3.0
vertex 12.750208854675293 2.5361742973327637 -20.0
vertex 13.0 0.0 -20.0
endloop
endfacet
facet normal -0.0 -0.0 -0.9999999999999999
outer loop
vertex 10.809104919433594 7.222413063049316 -20.0
vertex 14.711779594421387 2.9263548851013184 -20.0
vertex 12.0104341506958 4.974884510040283 -20.0
endloop
endfacet
facet normal 0.0 0.0 -1.0
outer loop
vertex 14.711779594421387 2.9263548851013184 -20.0
vertex 10.60660171508789 10.60660171508789 -20.0
vertex 12.472043991088867 8.333553314208984 -20.0
endloop
endfacet
facet normal 0.0 0.0 -0.9999999999999999
outer loop
vertex 14.711779594421387 2.9263548851013184 -20.0
vertex 12.472043991088867 8.333553314208984 -20.0
vertex 13.858193397521973 5.740251541137695 -20.0
endloop
endfacet
facet normal -0.9569403304265127 -0.2902846947449978 -0.0
outer loop
vertex 12.0104341506958 4.974884510040283 -3.0
vertex 12.0104341506958 4.974884510040283 -20.0
vertex 12.750208854675293 2.5361742973327637 -20.0
endloop
endfacet
facet normal -0.9951847351074539 -0.0980170546849208 0.0
outer loop
vertex 13.0 0.0 -20.0
vertex 13.0 0.0 -3.0
vertex 12.750208854675293 2.5361742973327637 -3.0
endloop
endfacet
facet normal -0.9569403304265127 -0.2902846947449978 0.0
outer loop
vertex 12.750208854675293 2.5361742973327637 -20.0
vertex 12.750208854675293 2.5361742973327637 -3.0
vertex 12.0104341506958 4.974884510040283 -3.0
endloop
endfacet
facet normal 0.9951847397348536 0.09801700770209054 0.0
outer loop
vertex 15.0 0.0 20.0
vertex 15.0 0.0 -20.0
vertex 14.711779594421387 2.9263548851013184 -20.0
endloop
endfacet
facet normal -0.8819212331391941 -0.47139679521422634 0.0
outer loop
vertex 12.0104341506958 4.974884510040283 -20.0
vertex 12.0104341506958 4.974884510040283 -3.0
vertex 10.809104919433594 7.222413063049316 -3.0
endloop
endfacet
facet normal 0.9569403377843428 0.29028467048948303 0.0
outer loop
vertex 14.711779594421387 2.9263548851013184 -20.0
vertex 13.858193397521973 5.740251541137695 -20.0
vertex 14.711779594421387 2.9263548851013184 20.0
endloop
endfacet
facet normal 0.8819211611615521 0.47139692987487697 0.0
outer loop
vertex 13.858193397521973 5.740251541137695 -20.0
vertex 12.472043991088867 8.333553314208984 -20.0
vertex 13.858193397521973 5.740251541137695 20.0
endloop
endfacet
facet normal 0.0 0.0 -1.0
outer loop
vertex 9.192388534545898 9.192388534545898 -20.0
vertex 5.740251541137695 13.858193397521973 -20.0
vertex 10.809104919433594 7.222413063049316 -20.0
endloop
endfacet
facet normal 0.0 0.0 -1.0
outer loop
vertex 14.711779594421387 2.9263548851013184 -20.0
vertex 10.809104919433594 7.222413063049316 -20.0
vertex 5.740251541137695 13.858193397521973 -20.0
endloop
endfacet
facet normal -0.0 -0.0 -1.0
outer loop
vertex 10.60660171508789 10.60660171508789 -20.0
vertex 14.711779594421387 2.9263548851013184 -20.0
vertex 8.333553314208984 12.472043991088867 -20.0
endloop
endfacet
facet normal 0.0 0.0 -1.0
outer loop
vertex 14.711779594421387 2.9263548851013184 -20.0
vertex 5.740251541137695 13.858193397521973 -20.0
vertex 8.333553314208984 12.472043991088867 -20.0
endloop
endfacet
facet normal -0.6343931193229418 -0.7730105886439769 -0.0
outer loop
vertex 7.222413063049316 10.809104919433594 -3.0
vertex 7.222413063049316 10.809104919433594 -20.0
vertex 9.192388534545898 9.192388534545898 -20.0
endloop
endfacet
facet normal -0.7730105886439769 -0.6343931193229418 0.0
outer loop
vertex 10.809104919433594 7.222413063049316 -20.0
vertex 10.809104919433594 7.222413063049316 -3.0
vertex 9.192388534545898 9.192388534545898 -20.0
endloop
endfacet
facet normal -0.6343931193229418 -0.7730105886439769 0.0
outer loop
vertex 7.222413063049316 10.809104919433594 -3.0
vertex 9.192388534545898 9.192388534545898 -20.0
vertex 9.192388534545898 9.192388534545898 -3.0
endloop
endfacet
facet normal -0.7730105886439769 -0.6343931193229418 -0.0
outer loop
vertex 10.809104919433594 7.222413063049316 -3.0
vertex 9.192388534545898 9.192388534545898 -3.0
vertex 9.192388534545898 9.192388534545898 -20.0
endloop
endfacet
facet normal 0.6343932156556211 0.7730105095858146 0.0
outer loop
vertex 10.60660171508789 10.60660171508789 -20.0
vertex 8.333553314208984 12.472043991088867 -20.0
vertex 10.60660171508789 10.60660171508789 20.0
endloop
endfacet
facet normal 0.7730105095858146 0.6343932156556211 0.0
outer loop
vertex 12.472043991088867 8.333553314208984 -20.0
vertex 10.60660171508789 10.60660171508789 -20.0
vertex 12.472043991088867 8.333553314208984 20.0
endloop
endfacet
facet normal -0.09801705468492083 -0.9951847351074538 0.0
outer loop
vertex 7.960204409454693e-16 13.0 -1.0
vertex 2.5361742973327637 12.750208854675293 -1.0
vertex 2.5361742973327637 12.750208854675293 20.0
endloop
endfacet
facet normal 0.09801700770209056 0.9951847397348536 -0.0
outer loop
vertex 2.9263548851013184 14.711779594421387 20.0
vertex 9.184850467946473e-16 15.0 -20.0
vertex 9.184850467946473e-16 15.0 20.0
endloop
endfacet
facet normal -0.2902846947449978 -0.9569403304265128 -0.0
outer loop
vertex 2.5361742973327637 12.750208854675293 20.0
vertex 2.5361742973327637 12.750208854675293 -1.0
vertex 4.974884510040283 12.0104341506958 -1.0
endloop
endfacet
facet normal 0.29028467048948303 0.9569403377843428 -0.0
outer loop
vertex 5.740251541137695 13.858193397521973 20.0
vertex 2.9263548851013184 14.711779594421387 -20.0
vertex 2.9263548851013184 14.711779594421387 20.0
endloop
endfacet
facet normal -0.47139679521422634 -0.8819212331391941 -0.0
outer loop
vertex 4.974884510040283 12.0104341506958 20.0
vertex 4.974884510040283 12.0104341506958 -1.0
vertex 7.222413063049316 10.809104919433594 -1.0
endloop
endfacet
facet normal 0.47139692987487697 0.8819211611615521 -0.0
outer loop
vertex 8.333553314208984 12.472043991088867 20.0
vertex 5.740251541137695 13.858193397521973 -20.0
vertex 5.740251541137695 13.858193397521973 20.0
endloop
endfacet
facet normal -0.09801705468492083 -0.9951847351074538 -0.0
outer loop
vertex 7.960204409454693e-16 13.0 20.0
vertex 7.960204409454693e-16 13.0 -1.0
vertex 2.5361742973327637 12.750208854675293 20.0
endloop
endfacet
facet normal 0.0 0.0 1.0
outer loop
vertex 9.184850467946473e-16 15.0 20.0
vertex 7.960204409454693e-16 13.0 20.0
vertex 2.5361742973327637 12.750208854675293 20.0
endloop
endfacet
facet normal 0.0 0.0 1.0
outer loop
vertex 2.9263548851013184 14.711779594421387 20.0
vertex 9.184850467946473e-16 15.0 20.0
vertex 2.5361742973327637 12.750208854675293 20.0
endloop
endfacet
facet normal 0.0 0.0 1.0
outer loop
vertex 2.9263548851013184 14.711779594421387 20.0
vertex 2.5361742973327637 12.750208854675293 20.0
vertex 4.974884510040283 12.0104341506958 20.0
endloop
endfacet
facet normal -0.47139679521422634 -0.8819212331391941 0.0
outer loop
vertex 7.222413063049316 10.809104919433594 -1.0
vertex 7.222413063049316 10.809104919433594 20.0
vertex 4.974884510040283 12.0104341506958 20.0
endloop
endfacet
facet normal -0.2902846947449978 -0.9569403304265128 0.0
outer loop
vertex 2.5361742973327637 12.750208854675293 20.0
vertex 4.974884510040283 12.0104341506958 -1.0
vertex 4.974884510040283 12.0104341506958 20.0
endloop
endfacet
facet normal -0.0 -0.0 0.9999999999999999
outer loop
vertex 4.974884510040283 12.0104341506958 20.0
vertex 7.222413063049316 10.809104919433594 20.0
vertex 2.9263548851013184 14.711779594421387 20.0
endloop
endfacet
facet normal 0.0 0.0 0.9999999999999999
outer loop
vertex 5.740251541137695 13.858193397521973 20.0
vertex 2.9263548851013184 14.711779594421387 20.0
vertex 7.222413063049316 10.809104919433594 20.0
endloop
endfacet
facet normal 0.0 0.0 1.0
outer loop
vertex 5.740251541137695 13.858193397521973 20.0
vertex 7.222413063049316 10.809104919433594 20.0
vertex 9.192388534545898 9.192388534545898 20.0
endloop
endfacet
facet normal -0.8819212331391941 -0.47139679521422634 -0.0
outer loop
vertex 10.809104919433594 7.222413063049316 20.0
vertex 10.809104919433594 7.222413063049316 -1.0
vertex 12.0104341506958 4.974884510040283 -1.0
endloop
endfacet
facet normal -0.995184735107454 -0.09801705468492082 -0.0
outer loop
vertex 12.750208854675293 2.5361742973327637 20.0
vertex 12.750208854675293 2.5361742973327637 -1.0
vertex 13.0 0.0 -1.0
endloop
endfacet
facet normal 0.9951847397348536 0.09801700770209054 -0.0
outer loop
vertex 15.0 0.0 20.0
vertex 14.711779594421387 2.9263548851013184 -20.0
vertex 14.711779594421387 2.9263548851013184 20.0
endloop
endfacet
facet normal -0.9569403304265128 -0.2902846947449978 -0.0
outer loop
vertex 12.0104341506958 4.974884510040283 20.0
vertex 12.0104341506958 4.974884510040283 -1.0
vertex 12.750208854675293 2.5361742973327637 -1.0
endloop
endfacet
facet normal 0.0 -0.0 1.0
outer loop
vertex -7.222413063049316 -10.809104919433594 -1.0
vertex 12.750208854675293 -2.5361742973327637 -1.0
vertex -9.192388534545898 -9.192388534545898 -1.0
endloop
endfacet
facet normal 0.0 0.0 1.0
outer loop
vertex 12.750208854675293 -2.5361742973327637 -1.0
vertex -12.750208854675293 -2.5361742973327637 -1.0
vertex -12.0104341506958 -4.974884510040283 -1.0
endloop
endfacet
facet normal 0.0 0.0 -1.0
outer loop
vertex -12.0104341506958 -4.974884510040283 -3.0
vertex -12.750208854675293 -2.5361742973327637 -3.0
vertex 12.750208854675293 2.5361742973327637 -3.0
endloop
endfacet
facet normal 0.0 0.0 1.0
outer loop
vertex 13.0 0.0 -1.0
vertex -13.0 1.7145054348005574e-15 -1.0
vertex -12.750208854675293 -2.5361742973327637 -1.0
endloop
endfacet
facet normal 0.0 0.0 0.9999999999999999
outer loop
vertex 12.750208854675293 -2.5361742973327637 -1.0
vertex -10.809104919433594 -7.222413063049316 -1.0
vertex -9.192388534545898 -9.192388534545898 -1.0
endloop
endfacet
facet normal 0.0 -0.0 -0.9999999999999999
outer loop
vertex -10.809104919433594 -7.222413063049316 -3.0
vertex 12.750208854675293 2.5361742973327637 -3.0
vertex -9.192388534545898 -9.192388534545898 -3.0
endloop
endfacet
facet normal 0.0 0.0 1.0
outer loop
vertex 12.750208854675293 -2.5361742973327637 -1.0
vertex -12.0104341506958 -4.974884510040283 -1.0
vertex -10.809104919433594 -7.222413063049316 -1.0
endloop
endfacet
facet normal 0.0 -0.0 -1.0
outer loop
vertex -12.0104341506958 -4.974884510040283 -3.0
vertex 12.750208854675293 2.5361742973327637 -3.0
vertex -10.809104919433594 -7.222413063049316 -3.0
endloop
endfacet
facet normal 0.0 -0.0 -0.9999999999999999
outer loop
vertex -9.192388534545898 -9.192388534545898 -3.0
vertex 12.750208854675293 2.5361742973327637 -3.0
vertex -7.222413063049316 -10.809104919433594 -3.0
endloop
endfacet
facet normal -0.0 0.0 -1.0
outer loop
vertex 12.750208854675293 2.5361742973327637 -3.0
vertex -12.750208854675293 -2.5361742973327637 -3.0
vertex -13.0 1.6440883036426368e-15 -3.0
endloop
endfacet
facet normal 0.0 0.0 1.0
outer loop
vertex -12.750208854675293 2.5361742973327637 -1.0
vertex -13.0 1.7145054348005574e-15 -1.0
vertex 13.0 0.0 -1.0
endloop
endfacet
facet normal -0.0 0.0 -0.9999999999999999
outer loop
vertex 12.0104341506958 4.974884510040283 -3.0
vertex -13.0 1.6440883036426368e-15 -3.0
vertex -12.750208854675293 2.5361742973327637 -3.0
endloop
endfacet
facet normal 0.0 0.0 1.0
outer loop
vertex -12.0104341506958 4.974884510040283 -1.0
vertex -12.750208854675293 2.5361742973327637 -1.0
vertex 13.0 0.0 -1.0
endloop
endfacet
facet normal 0.0 -0.0 -1.0
outer loop
vertex -12.0104341506958 4.974884510040283 -3.0
vertex 12.0104341506958 4.974884510040283 -3.0
vertex -12.750208854675293 2.5361742973327637 -3.0
endloop
endfacet
facet normal 0.0 0.0 1.0
outer loop
vertex -10.809104919433594 7.222413063049316 -1.0
vertex -12.0104341506958 4.974884510040283 -1.0
vertex 13.0 0.0 -1.0
endloop
endfacet
facet normal 0.0 0.0 1.0
outer loop
vertex -9.192388534545898 9.192388534545898 -1.0
vertex -10.809104919433594 7.222413063049316 -1.0
vertex 13.0 0.0 -1.0
endloop
endfacet
facet normal 0.0 0.0 -1.0
outer loop
vertex 12.0104341506958 4.974884510040283 -3.0
vertex -12.0104341506958 4.974884510040283 -3.0
vertex -10.809104919433594 7.222413063049316 -3.0
endloop
endfacet
facet normal -0.0 -0.0 -1.0
outer loop
vertex -9.192388534545898 9.192388534545898 -3.0
vertex 12.0104341506958 4.974884510040283 -3.0
vertex -10.809104919433594 7.222413063049316 -3.0
endloop
endfacet
facet normal 0.0 0.0 1.0
outer loop
vertex -7.222413063049316 10.809104919433594 -1.0
vertex -9.192388534545898 9.192388534545898 -1.0
vertex 13.0 0.0 -1.0
endloop
endfacet
facet normal -0.0 -0.0 -1.0
outer loop
vertex -7.222413063049316 10.809104919433594 -3.0
vertex 12.0104341506958 4.974884510040283 -3.0
vertex -9.192388534545898 9.192388534545898 -3.0
endloop
endfacet
facet normal 0.0 0.0 -1.0
outer loop
vertex 12.0104341506958 4.974884510040283 -3.0
vertex -7.222413063049316 10.809104919433594 -3.0
vertex -4.974884510040283 12.0104341506958 -3.0
endloop
endfacet
facet normal 0.0 0.0 -1.0
outer loop
vertex 10.809104919433594 7.222413063049316 -3.0
vertex 2.5361742973327637 12.750208854675293 -3.0
vertex 4.974884510040283 12.0104341506958 -3.0
endloop
endfacet
facet normal 0.0 0.0 1.0
outer loop
vertex 9.192388534545898 -9.192388534545898 -1.0
vertex 10.809104919433594 -7.222413063049316 -1.0
vertex 12.0104341506958 -4.974884510040283 -1.0
endloop
endfacet
facet normal -0.0 0.0 -0.9999999999999999
outer loop
vertex 10.809104919433594 -7.222413063049316 -3.0
vertex 9.192388534545898 -9.192388534545898 -3.0
vertex 13.0 0.0 -3.0
endloop
endfacet
facet normal 0.0 -0.0 -1.0
outer loop
vertex -7.222413063049316 -10.809104919433594 -3.0
vertex 12.750208854675293 2.5361742973327637 -3.0
vertex -4.974884510040283 -12.0104341506958 -3.0
endloop
endfacet
facet normal 0.0 -0.0 -1.0
outer loop
vertex -4.974884510040283 -12.0104341506958 -3.0
vertex 12.750208854675293 2.5361742973327637 -3.0
vertex -2.5361742973327637 -12.750208854675293 -3.0
endloop
endfacet
facet normal -0.0 0.0 -0.9999999999999999
outer loop
vertex 4.974884510040283 -12.0104341506958 -3.0
vertex 2.5361742973327637 -12.750208854675293 -3.0
vertex 12.750208854675293 2.5361742973327637 -3.0
endloop
endfacet
facet normal -0.0 0.0 1.0
outer loop
vertex 12.0104341506958 -4.974884510040283 -1.0
vertex 4.974884510040283 -12.0104341506958 -1.0
vertex 7.222413063049316 -10.809104919433594 -1.0
endloop
endfacet
facet normal -0.0 0.0 -1.0
outer loop
vertex 12.0104341506958 -4.974884510040283 -3.0
vertex 10.809104919433594 -7.222413063049316 -3.0
vertex 12.750208854675293 -2.5361742973327637 -3.0
endloop
endfacet
facet normal 0.0 -0.0 0.9999999999999999
outer loop
vertex 9.192388534545898 -9.192388534545898 -1.0
vertex 12.0104341506958 -4.974884510040283 -1.0
vertex 7.222413063049316 -10.809104919433594 -1.0
endloop
endfacet
facet normal -0.0 0.0 1.0
outer loop
vertex 13.0 0.0 -1.0
vertex -12.750208854675293 -2.5361742973327637 -1.0
vertex 12.750208854675293 -2.5361742973327637 -1.0
endloop
endfacet
facet normal 0.0 -0.0 -1.0
outer loop
vertex 12.0104341506958 4.974884510040283 -3.0
vertex 12.750208854675293 2.5361742973327637 -3.0
vertex -13.0 1.6440883036426368e-15 -3.0
endloop
endfacet
facet normal 0.0 -0.0 -1.0
outer loop
vertex 10.809104919433594 -7.222413063049316 -3.0
vertex 13.0 0.0 -3.0
vertex 12.750208854675293 -2.5361742973327637 -3.0
endloop
endfacet
facet normal 0.0 -0.0 -1.0
outer loop
vertex 12.750208854675293 2.5361742973327637 -3.0
vertex 13.0 0.0 -3.0
vertex 9.192388534545898 -9.192388534545898 -3.0
endloop
endfacet
facet normal 0.0 0.0 1.0
outer loop
vertex 12.750208854675293 -2.5361742973327637 -1.0
vertex -7.222413063049316 -10.809104919433594 -1.0
vertex -4.974884510040283 -12.0104341506958 -1.0
endloop
endfacet
facet normal -0.0 -0.0 1.0
outer loop
vertex 4.974884510040283 12.0104341506958 -1.0
vertex 13.0 0.0 -1.0
vertex 12.750208854675293 2.5361742973327637 -1.0
endloop
endfacet
facet normal -0.0 -0.0 1.0
outer loop
vertex 9.192388534545898 9.192388534545898 -1.0
vertex 12.0104341506958 4.974884510040283 -1.0
vertex 10.809104919433594 7.222413063049316 -1.0
endloop
endfacet
facet normal 0.0 -0.0 1.0
outer loop
vertex -2.5361742973327637 -12.750208854675293 -1.0
vertex 12.750208854675293 -2.5361742973327637 -1.0
vertex -4.974884510040283 -12.0104341506958 -1.0
endloop
endfacet
facet normal 0.0 -0.0 0.9999999999999999
outer loop
vertex -2.3880611640177303e-15 -13.0 -1.0
vertex 12.750208854675293 -2.5361742973327637 -1.0
vertex -2.5361742973327637 -12.750208854675293 -1.0
endloop
endfacet
facet normal 0.0 0.0 -1.0
outer loop
vertex -2.3880611640177303e-15 -13.0 -3.0
vertex -2.5361742973327637 -12.750208854675293 -3.0
vertex 12.750208854675293 2.5361742973327637 -3.0
endloop
endfacet
facet normal 0.0 -0.0 1.0
outer loop
vertex 2.5361742973327637 -12.750208854675293 -1.0
vertex 12.750208854675293 -2.5361742973327637 -1.0
vertex -2.3880611640177303e-15 -13.0 -1.0
endloop
endfacet
facet normal -0.0 0.0 -1.0
outer loop
vertex 2.5361742973327637 -12.750208854675293 -3.0
vertex -2.3880611640177303e-15 -13.0 -3.0
vertex 12.750208854675293 2.5361742973327637 -3.0
endloop
endfacet
facet normal 0.0 0.0 1.0
outer loop
vertex 2.5361742973327637 -12.750208854675293 -1.0
vertex 4.974884510040283 -12.0104341506958 -1.0
vertex 12.750208854675293 -2.5361742973327637 -1.0
endloop
endfacet
facet normal -0.0 -0.0 1.0
outer loop
vertex 9.192388534545898 9.192388534545898 -1.0
vertex 12.750208854675293 2.5361742973327637 -1.0
vertex 12.0104341506958 4.974884510040283 -1.0
endloop
endfacet
facet normal 0.0 0.0 1.0
outer loop
vertex -4.974884510040283 12.0104341506958 -1.0
vertex -7.222413063049316 10.809104919433594 -1.0
vertex 13.0 0.0 -1.0
endloop
endfacet
facet normal 0.0 0.0 1.0
outer loop
vertex -2.5361742973327637 12.750208854675293 -1.0
vertex -4.974884510040283 12.0104341506958 -1.0
vertex 13.0 0.0 -1.0
endloop
endfacet
facet normal -0.0 -0.0 -0.9999999999999999
outer loop
vertex -2.5361742973327637 12.750208854675293 -3.0
vertex 12.0104341506958 4.974884510040283 -3.0
vertex -4.974884510040283 12.0104341506958 -3.0
endloop
endfacet
facet normal 0.0 0.0 1.0
outer loop
vertex 7.960204409454693e-16 13.0 -1.0
vertex -2.5361742973327637 12.750208854675293 -1.0
vertex 13.0 0.0 -1.0
endloop
endfacet
facet normal 0.0 0.0 -0.9999999999999999
outer loop
vertex 12.0104341506958 4.974884510040283 -3.0
vertex -2.5361742973327637 12.750208854675293 -3.0
vertex 7.960204409454693e-16 13.0 -3.0
endloop
endfacet
facet normal 0.0 -0.0 -1.0
outer loop
vertex 4.974884510040283 -12.0104341506958 -3.0
vertex 12.750208854675293 2.5361742973327637 -3.0
vertex 7.222413063049316 -10.809104919433594 -3.0
endloop
endfacet
facet normal 0.0 0.0 -1.0
outer loop
vertex 12.750208854675293 2.5361742973327637 -3.0
vertex 9.192388534545898 -9.192388534545898 -3.0
vertex 7.222413063049316 -10.809104919433594 -3.0
endloop
endfacet
facet normal 0.0 0.0 1.0
outer loop
vertex 4.974884510040283 -12.0104341506958 -1.0
vertex 12.0104341506958 -4.974884510040283 -1.0
vertex 12.750208854675293 -2.5361742973327637 -1.0
endloop
endfacet
facet normal -0.0 -0.0 1.0
outer loop
vertex 7.960204409454693e-16 13.0 -1.0
vertex 13.0 0.0 -1.0
vertex 2.5361742973327637 12.750208854675293 -1.0
endloop
endfacet
facet normal -0.0 -0.0 -1.0
outer loop
vertex 10.809104919433594 7.222413063049316 -3.0
vertex 12.0104341506958 4.974884510040283 -3.0
vertex 2.5361742973327637 12.750208854675293 -3.0
endloop
endfacet
facet normal -0.0 -0.0 -1.0
outer loop
vertex 9.192388534545898 9.192388534545898 -3.0
vertex 10.809104919433594 7.222413063049316 -3.0
vertex 7.222413063049316 10.809104919433594 -3.0
endloop
endfacet
facet normal 0.0 0.0 1.0
outer loop
vertex 7.222413063049316 10.809104919433594 -1.0
vertex 4.974884510040283 12.0104341506958 -1.0
vertex 12.750208854675293 2.5361742973327637 -1.0
endloop
endfacet
facet normal 0.0 0.0 -1.0
outer loop
vertex 10.809104919433594 7.222413063049316 -3.0
vertex 4.974884510040283 12.0104341506958 -3.0
vertex 7.222413063049316 10.809104919433594 -3.0
endloop
endfacet
facet normal 0.0 0.0 1.0
outer loop
vertex 9.192388534545898 9.192388534545898 -1.0
vertex 7.222413063049316 10.809104919433594 -1.0
vertex 12.750208854675293 2.5361742973327637 -1.0
endloop
endfacet
facet normal 0.0 0.0 -0.9999999999999999
outer loop
vertex 12.0104341506958 4.974884510040283 -3.0
vertex 7.960204409454693e-16 13.0 -3.0
vertex 2.5361742973327637 12.750208854675293 -3.0
endloop
endfacet
facet normal 0.0 0.0 1.0
outer loop
vertex 4.974884510040283 12.0104341506958 -1.0
vertex 2.5361742973327637 12.750208854675293 -1.0
vertex 13.0 0.0 -1.0
endloop
endfacet

endsolid
