solid 
facet normal -0.0 -0.0 -1.0
outer loop
vertex -11.64057445526123 -7.77798318862915 -20.0
vertex -9.899495124816895 -9.899495124816895 -20.0
vertex -12.472043991088867 -8.333553314208984 -20.0
endloop
endfacet
facet normal -0.0 0.0 -1.0
outer loop
vertex -7.77798318862915 -11.64057445526123 -20.0
vertex -8.333553314208984 -12.472043991088867 -20.0
vertex -10.60660171508789 -10.60660171508789 -20.0
endloop
endfacet
facet normal -0.0 0.0 -1.0
outer loop
vertex -9.899495124816895 -9.899495124816895 -20.0
vertex -10.60660171508789 -10.60660171508789 -20.0
vertex -12.472043991088867 -8.333553314208984 -20.0
endloop
endfacet
facet normal -0.0 -0.0 -1.0
outer loop
vertex -9.899495124816895 -9.899495124816895 -20.0
vertex -7.77798318862915 -11.64057445526123 -20.0
vertex -10.60660171508789 -10.60660171508789 -20.0
endloop
endfacet
facet normal -0.7730105095858146 -0.6343932156556211 0.0
outer loop
vertex -12.472043991088867 -8.333553314208984 -20.0
vertex -10.60660171508789 -10.60660171508789 -20.0
vertex -12.472043991088867 -8.333553314208984 20.0
endloop
endfacet
facet normal -0.6343932156556211 -0.7730105095858146 -0.0
outer loop
vertex -8.333553314208984 -12.472043991088867 -20.0
vertex -10.60660171508789 -10.60660171508789 20.0
vertex -10.60660171508789 -10.60660171508789 -20.0
endloop
endfacet
facet normal 0.9951847397348536 0.09801700770209054 0.0
outer loop
vertex 15.0 0.0 20.0
vertex 15.0 0.0 -20.0
vertex 14.711779594421387 2.9263548851013184 -20.0
endloop
endfacet
facet normal 0.9569403377843428 0.29028467048948303 0.0
outer loop
vertex 14.711779594421387 2.9263548851013184 -20.0
vertex 13.858193397521973 5.740251541137695 -20.0
vertex 14.711779594421387 2.9263548851013184 20.0
endloop
endfacet
facet normal -0.0 0.0 -1.0
outer loop
vertex -13.73099422454834 -2.731264591217041 -20.0
vertex -13.858193397521973 -5.740251541137695 -20.0
vertex -14.711779594421387 -2.9263548851013184 -20.0
endloop
endfacet
facet normal 0.0 -0.0 -1.0
outer loop
vertex -13.73099422454834 -2.731264591217041 -20.0
vertex -12.934313774108887 -5.357568264007568 -20.0
vertex -13.858193397521973 -5.740251541137695 -20.0
endloop
endfacet
facet normal -0.0 0.0 -1.0
outer loop
vertex -11.64057445526123 -7.77798318862915 -20.0
vertex -12.472043991088867 -8.333553314208984 -20.0
vertex -13.858193397521973 -5.740251541137695 -20.0
endloop
endfacet
facet normal -0.0 -0.0 -1.0
outer loop
vertex -12.934313774108887 -5.357568264007568 -20.0
vertex -11.64057445526123 -7.77798318862915 -20.0
vertex -13.858193397521973 -5.740251541137695 -20.0
endloop
endfacet
facet normal 0.0 0.0 -1.0
outer loop
vertex -14.711779594421387 -2.9263548851013184 -20.0
vertex -15.0 1.8369700935892946e-15 -20.0
vertex -13.73099422454834 -2.731264591217041 -20.0
endloop
endfacet
facet normal 0.0 0.0 -1.0
outer loop
vertex -15.0 1.8369700935892946e-15 -20.0
vertex -14.0 1.7145055406796758e-15 -20.0
vertex -13.73099422454834 -2.731264591217041 -20.0
endloop
endfacet
facet normal -0.8819211611615521 -0.47139692987487697 -0.0
outer loop
vertex -12.472043991088867 -8.333553314208984 -20.0
vertex -13.858193397521973 -5.740251541137695 20.0
vertex -13.858193397521973 -5.740251541137695 -20.0
endloop
endfacet
facet normal -0.9569403377843428 -0.29028467048948303 -0.0
outer loop
vertex -13.858193397521973 -5.740251541137695 -20.0
vertex -14.711779594421387 -2.9263548851013184 20.0
vertex -14.711779594421387 -2.9263548851013184 -20.0
endloop
endfacet
facet normal 0.8819211611615521 0.47139692987487697 0.0
outer loop
vertex 13.858193397521973 5.740251541137695 -20.0
vertex 12.472043991088867 8.333553314208984 -20.0
vertex 13.858193397521973 5.740251541137695 20.0
endloop
endfacet
facet normal 0.0 0.0 -1.0
outer loop
vertex 9.899495124816895 9.899495124816895 -20.0
vertex 8.333553314208984 12.472043991088867 -20.0
vertex 10.60660171508789 10.60660171508789 -20.0
endloop
endfacet
facet normal -0.9951847397348536 -0.09801700770209049 -0.0
outer loop
vertex -14.711779594421387 -2.9263548851013184 -20.0
vertex -15.0 1.8369700935892946e-15 20.0
vertex -15.0 1.8369700935892946e-15 -20.0
endloop
endfacet
facet normal 0.0 0.0 -1.0
outer loop
vertex 11.64057445526123 7.77798318862915 -20.0
vertex 9.899495124816895 9.899495124816895 -20.0
vertex 10.60660171508789 10.60660171508789 -20.0
endloop
endfacet
facet normal -0.0 -0.0 -1.0
outer loop
vertex -7.77798318862915 -11.64057445526123 -20.0
vertex -5.357568264007568 -12.934313774108887 -20.0
vertex -8.333553314208984 -12.472043991088867 -20.0
endloop
endfacet
facet normal -0.0 0.0 -1.0
outer loop
vertex -5.357568264007568 -12.934313774108887 -20.0
vertex -5.740251541137695 -13.858193397521973 -20.0
vertex -8.333553314208984 -12.472043991088867 -20.0
endloop
endfacet
facet normal -0.0 0.0 -1.0
outer loop
vertex -2.731264591217041 -13.73099422454834 -20.0
vertex -2.9263548851013184 -14.711779594421387 -20.0
vertex -5.740251541137695 -13.858193397521973 -20.0
endloop
endfacet
facet normal 0.0 -0.0 -1.0
outer loop
vertex -5.357568264007568 -12.934313774108887 -20.0
vertex -2.731264591217041 -13.73099422454834 -20.0
vertex -5.740251541137695 -13.858193397521973 -20.0
endloop
endfacet
facet normal 0.0 -0.0 -1.0
outer loop
vertex -2.731264591217041 -13.73099422454834 -20.0
vertex -2.5717582580799545e-15 -14.0 -20.0
vertex -2.9263548851013184 -14.711779594421387 -20.0
endloop
endfacet
facet normal -0.0 0.0 -1.0
outer loop
vertex -2.5717582580799545e-15 -14.0 -20.0
vertex -2.7554553521421787e-15 -15.0 -20.0
vertex -2.9263548851013184 -14.711779594421387 -20.0
endloop
endfacet
facet normal -0.47139692987487697 -0.8819211611615521 0.0
outer loop
vertex -8.333553314208984 -12.472043991088867 -20.0
vertex -5.740251541137695 -13.858193397521973 -20.0
vertex -8.333553314208984 -12.472043991088867 20.0
endloop
endfacet
facet normal -0.0 -0.0 -1.0
outer loop
vertex 8.333553314208984 12.472043991088867 -20.0
vertex 9.899495124816895 9.899495124816895 -20.0
vertex 7.77798318862915 11.64057445526123 -20.0
endloop
endfacet
facet normal -0.29028467048948303 -0.9569403377843428 0.0
outer loop
vertex -5.740251541137695 -13.858193397521973 -20.0
vertex -2.9263548851013184 -14.711779594421387 -20.0
vertex -5.740251541137695 -13.858193397521973 20.0
endloop
endfacet
facet normal 0.6343932156556211 0.7730105095858146 0.0
outer loop
vertex 10.60660171508789 10.60660171508789 -20.0
vertex 8.333553314208984 12.472043991088867 -20.0
vertex 10.60660171508789 10.60660171508789 20.0
endloop
endfacet
facet normal -0.09801700770209064 -0.9951847397348537 0.0
outer loop
vertex -2.9263548851013184 -14.711779594421387 -20.0
vertex -2.7554553521421787e-15 -15.0 -20.0
vertex -2.9263548851013184 -14.711779594421387 20.0
endloop
endfacet
facet normal 0.7730105095858146 0.6343932156556211 0.0
outer loop
vertex 12.472043991088867 8.333553314208984 -20.0
vertex 10.60660171508789 10.60660171508789 -20.0
vertex 12.472043991088867 8.333553314208984 20.0
endloop
endfacet
facet normal -0.6343932156556211 -0.7730105095858146 0.0
outer loop
vertex -10.60660171508789 -10.60660171508789 20.0
vertex -8.333553314208984 -12.472043991088867 -20.0
vertex -8.333553314208984 -12.472043991088867 20.0
endloop
endfacet
facet normal -0.7730105095858146 -0.6343932156556211 0.0
outer loop
vertex -12.472043991088867 -8.333553314208984 20.0
vertex -10.60660171508789 -10.60660171508789 -20.0
vertex -10.60660171508789 -10.60660171508789 20.0
endloop
endfacet
facet normal 0.09801700770209056 0.9951847397348536 -0.0
outer loop
vertex 2.9263548851013184 14.711779594421387 20.0
vertex 9.184850467946473e-16 15.0 -20.0
vertex 9.184850467946473e-16 15.0 20.0
endloop
endfacet
facet normal 0.29028467048948303 0.9569403377843428 -0.0
outer loop
vertex 5.740251541137695 13.858193397521973 20.0
vertex 2.9263548851013184 14.711779594421387 -20.0
vertex 2.9263548851013184 14.711779594421387 20.0
endloop
endfacet
facet normal -0.0 -0.0 1.0
outer loop
vertex -12.472043991088867 -8.333553314208984 20.0
vertex -10.60660171508789 -10.60660171508789 20.0
vertex -11.64057445526123 -7.77798318862915 20.0
endloop
endfacet
facet normal 0.0 -0.0 1.0
outer loop
vertex -8.333553314208984 -12.472043991088867 20.0
vertex -7.77798318862915 -11.64057445526123 20.0
vertex -9.899495124816895 -9.899495124816895 20.0
endloop
endfacet
facet normal 0.0 -0.0 1.0
outer loop
vertex -10.60660171508789 -10.60660171508789 20.0
vertex -9.899495124816895 -9.899495124816895 20.0
vertex -11.64057445526123 -7.77798318862915 20.0
endloop
endfacet
facet normal -0.0 -0.0 1.0
outer loop
vertex -10.60660171508789 -10.60660171508789 20.0
vertex -8.333553314208984 -12.472043991088867 20.0
vertex -9.899495124816895 -9.899495124816895 20.0
endloop
endfacet
facet normal -0.9569403377843428 -0.29028467048948303 0.0
outer loop
vertex -14.711779594421387 -2.9263548851013184 20.0
vertex -13.858193397521973 -5.740251541137695 -20.0
vertex -13.858193397521973 -5.740251541137695 20.0
endloop
endfacet
facet normal 0.47139692987487697 0.8819211611615521 -0.0
outer loop
vertex 8.333553314208984 12.472043991088867 20.0
vertex 5.740251541137695 13.858193397521973 -20.0
vertex 5.740251541137695 13.858193397521973 20.0
endloop
endfacet
facet normal -0.8819211611615521 -0.47139692987487697 0.0
outer loop
vertex -13.858193397521973 -5.740251541137695 20.0
vertex -12.472043991088867 -8.333553314208984 -20.0
vertex -12.472043991088867 -8.333553314208984 20.0
endloop
endfacet
facet normal -0.0 -0.0 1.0
outer loop
vertex 8.572527703398379e-16 14.0 20.0
vertex 2.731264591217041 13.73099422454834 20.0
vertex 9.184850467946473e-16 15.0 20.0
endloop
endfacet
facet normal -0.9951847397348536 -0.09801700770209049 0.0
outer loop
vertex -15.0 1.8369700935892946e-15 20.0
vertex -14.711779594421387 -2.9263548851013184 -20.0
vertex -14.711779594421387 -2.9263548851013184 20.0
endloop
endfacet
facet normal 0.0 -0.0 1.0
outer loop
vertex 2.731264591217041 13.73099422454834 20.0
vertex 2.9263548851013184 14.711779594421387 20.0
vertex 9.184850467946473e-16 15.0 20.0
endloop
endfacet
facet normal -0.0 0.0 1.0
outer loop
vertex -14.711779594421387 -2.9263548851013184 20.0
vertex -13.858193397521973 -5.740251541137695 20.0
vertex -13.73099422454834 -2.731264591217041 20.0
endloop
endfacet
facet normal 0.0 -0.0 1.0
outer loop
vertex -13.858193397521973 -5.740251541137695 20.0
vertex -12.934313774108887 -5.357568264007568 20.0
vertex -13.73099422454834 -2.731264591217041 20.0
endloop
endfacet
facet normal 0.0 -0.0 1.0
outer loop
vertex -12.472043991088867 -8.333553314208984 20.0
vertex -11.64057445526123 -7.77798318862915 20.0
vertex -12.934313774108887 -5.357568264007568 20.0
endloop
endfacet
facet normal -0.0 -0.0 1.0
outer loop
vertex -13.858193397521973 -5.740251541137695 20.0
vertex -12.472043991088867 -8.333553314208984 20.0
vertex -12.934313774108887 -5.357568264007568 20.0
endloop
endfacet
facet normal 0.0 0.0 1.0
outer loop
vertex -13.73099422454834 -2.731264591217041 20.0
vertex -15.0 1.8369700935892946e-15 20.0
vertex -14.711779594421387 -2.9263548851013184 20.0
endloop
endfacet
facet normal 0.0 0.0 1.0
outer loop
vertex -13.73099422454834 -2.731264591217041 20.0
vertex -14.0 1.775737764194926e-15 20.0
vertex -15.0 1.8369700935892946e-15 20.0
endloop
endfacet
facet normal -0.47139692987487697 -0.8819211611615521 0.0
outer loop
vertex -8.333553314208984 -12.472043991088867 20.0
vertex -5.740251541137695 -13.858193397521973 -20.0
vertex -5.740251541137695 -13.858193397521973 20.0
endloop
endfacet
facet normal -0.0 -0.0 1.0
outer loop
vertex 2.731264591217041 13.73099422454834 20.0
vertex 5.357568264007568 12.934313774108887 20.0
vertex 2.9263548851013184 14.711779594421387 20.0
endloop
endfacet
facet normal -0.29028467048948303 -0.9569403377843428 0.0
outer loop
vertex -5.740251541137695 -13.858193397521973 20.0
vertex -2.9263548851013184 -14.711779594421387 -20.0
vertex -2.9263548851013184 -14.711779594421387 20.0
endloop
endfacet
facet normal 0.0 -0.0 1.0
outer loop
vertex 5.357568264007568 12.934313774108887 20.0
vertex 5.740251541137695 13.858193397521973 20.0
vertex 2.9263548851013184 14.711779594421387 20.0
endloop
endfacet
facet normal -0.09801700770209064 -0.9951847397348537 0.0
outer loop
vertex -2.9263548851013184 -14.711779594421387 20.0
vertex -2.7554553521421787e-15 -15.0 -20.0
vertex -2.7554553521421787e-15 -15.0 20.0
endloop
endfacet
facet normal -0.0 -0.0 1.0
outer loop
vertex 5.357568264007568 12.934313774108887 20.0
vertex 7.77798318862915 11.64057445526123 20.0
vertex 5.740251541137695 13.858193397521973 20.0
endloop
endfacet
facet normal -0.0 -0.0 1.0
outer loop
vertex -8.333553314208984 -12.472043991088867 20.0
vertex -5.740251541137695 -13.858193397521973 20.0
vertex -7.77798318862915 -11.64057445526123 20.0
endloop
endfacet
facet normal 0.0 -0.0 1.0
outer loop
vertex -5.740251541137695 -13.858193397521973 20.0
vertex -5.357568264007568 -12.934313774108887 20.0
vertex -7.77798318862915 -11.64057445526123 20.0
endloop
endfacet
facet normal -0.0 -0.0 1.0
outer loop
vertex -5.740251541137695 -13.858193397521973 20.0
vertex -2.9263548851013184 -14.711779594421387 20.0
vertex -5.357568264007568 -12.934313774108887 20.0
endloop
endfacet
facet normal 0.0 -0.0 1.0
outer loop
vertex -2.9263548851013184 -14.711779594421387 20.0
vertex -2.731264591217041 -13.73099422454834 20.0
vertex -5.357568264007568 -12.934313774108887 20.0
endloop
endfacet
facet normal -0.0 -0.0 0.9999999999999999
outer loop
vertex -2.9263548851013184 -14.711779594421387 20.0
vertex -2.7554553521421787e-15 -15.0 20.0
vertex -2.731264591217041 -13.73099422454834 20.0
endloop
endfacet
facet normal 0.0 -0.0 1.0
outer loop
vertex -2.7554553521421787e-15 -15.0 20.0
vertex -2.5717582580799545e-15 -14.0 20.0
vertex -2.731264591217041 -13.73099422454834 20.0
endloop
endfacet
facet normal 0.0 0.0 -1.0
outer loop
vertex -15.0 1.8369700935892946e-15 -20.0
vertex -14.711779594421387 2.9263548851013184 -20.0
vertex -14.0 1.7145055406796758e-15 -20.0
endloop
endfacet
facet normal 0.0 -0.0 -1.0
outer loop
vertex -14.711779594421387 2.9263548851013184 -20.0
vertex -13.73099422454834 2.731264591217041 -20.0
vertex -14.0 1.7145055406796758e-15 -20.0
endloop
endfacet
facet normal 0.0 0.0 -1.0
outer loop
vertex -14.711779594421387 2.9263548851013184 -20.0
vertex -13.858193397521973 5.740251541137695 -20.0
vertex -13.73099422454834 2.731264591217041 -20.0
endloop
endfacet
facet normal 0.0 -0.0 -1.0
outer loop
vertex -13.858193397521973 5.740251541137695 -20.0
vertex -12.934313774108887 5.357568264007568 -20.0
vertex -13.73099422454834 2.731264591217041 -20.0
endloop
endfacet
facet normal 0.0 -0.0 -1.0
outer loop
vertex -13.858193397521973 5.740251541137695 -20.0
vertex -12.472043991088867 8.333553314208984 -20.0
vertex -12.934313774108887 5.357568264007568 -20.0
endloop
endfacet
facet normal 0.0 -0.0 -1.0
outer loop
vertex -12.472043991088867 8.333553314208984 -20.0
vertex -11.64057445526123 7.77798318862915 -20.0
vertex -12.934313774108887 5.357568264007568 -20.0
endloop
endfacet
facet normal 0.0 -0.0 1.0
outer loop
vertex 7.77798318862915 11.64057445526123 20.0
vertex 8.333553314208984 12.472043991088867 20.0
vertex 5.740251541137695 13.858193397521973 20.0
endloop
endfacet
facet normal -0.9951847397348536 0.0980170077020906 0.0
outer loop
vertex -15.0 1.8369700935892946e-15 -20.0
vertex -14.711779594421387 2.9263548851013184 20.0
vertex -14.711779594421387 2.9263548851013184 -20.0
endloop
endfacet
facet normal -0.9569403377843428 0.29028467048948303 0.0
outer loop
vertex -14.711779594421387 2.9263548851013184 -20.0
vertex -13.858193397521973 5.740251541137695 20.0
vertex -13.858193397521973 5.740251541137695 -20.0
endloop
endfacet
facet normal 0.9951847397348536 0.09801700770209054 -0.0
outer loop
vertex 15.0 0.0 20.0
vertex 14.711779594421387 2.9263548851013184 -20.0
vertex 14.711779594421387 2.9263548851013184 20.0
endloop
endfacet
facet normal -0.8819211611615521 0.47139692987487697 0.0
outer loop
vertex -13.858193397521973 5.740251541137695 -20.0
vertex -12.472043991088867 8.333553314208984 20.0
vertex -12.472043991088867 8.333553314208984 -20.0
endloop
endfacet
facet normal 0.8819211611615521 0.47139692987487697 -0.0
outer loop
vertex 13.858193397521973 5.740251541137695 20.0
vertex 12.472043991088867 8.333553314208984 -20.0
vertex 12.472043991088867 8.333553314208984 20.0
endloop
endfacet
facet normal 0.0 -0.0 -1.0
outer loop
vertex -12.472043991088867 8.333553314208984 -20.0
vertex -10.60660171508789 10.60660171508789 -20.0
vertex -11.64057445526123 7.77798318862915 -20.0
endloop
endfacet
facet normal 0.0 -0.0 -1.0
outer loop
vertex -10.60660171508789 10.60660171508789 -20.0
vertex -9.899495124816895 9.899495124816895 -20.0
vertex -11.64057445526123 7.77798318862915 -20.0
endloop
endfacet
facet normal 0.0 -0.0 -1.0
outer loop
vertex -10.60660171508789 10.60660171508789 -20.0
vertex -8.333553314208984 12.472043991088867 -20.0
vertex -9.899495124816895 9.899495124816895 -20.0
endloop
endfacet
facet normal 0.0 -0.0 -1.0
outer loop
vertex -8.333553314208984 12.472043991088867 -20.0
vertex -7.77798318862915 11.64057445526123 -20.0
vertex -9.899495124816895 9.899495124816895 -20.0
endloop
endfacet
facet normal 0.9569403377843428 0.29028467048948303 -0.0
outer loop
vertex 14.711779594421387 2.9263548851013184 20.0
vertex 13.858193397521973 5.740251541137695 -20.0
vertex 13.858193397521973 5.740251541137695 20.0
endloop
endfacet
facet normal -0.7730105095858146 0.6343932156556211 0.0
outer loop
vertex -12.472043991088867 8.333553314208984 -20.0
vertex -10.60660171508789 10.60660171508789 20.0
vertex -10.60660171508789 10.60660171508789 -20.0
endloop
endfacet
facet normal 0.0 -0.0 1.0
outer loop
vertex 14.0 0.0 20.0
vertex 15.0 0.0 20.0
vertex 13.73099422454834 2.731264591217041 20.0
endloop
endfacet
facet normal -0.6343932156556211 0.7730105095858146 0.0
outer loop
vertex -10.60660171508789 10.60660171508789 -20.0
vertex -8.333553314208984 12.472043991088867 20.0
vertex -8.333553314208984 12.472043991088867 -20.0
endloop
endfacet
facet normal 0.0 -0.0 -1.0
outer loop
vertex -8.333553314208984 12.472043991088867 -20.0
vertex -5.740251541137695 13.858193397521973 -20.0
vertex -7.77798318862915 11.64057445526123 -20.0
endloop
endfacet
facet normal 0.0 -0.0 -1.0
outer loop
vertex -5.740251541137695 13.858193397521973 -20.0
vertex -5.357568264007568 12.934313774108887 -20.0
vertex -7.77798318862915 11.64057445526123 -20.0
endloop
endfacet
facet normal 0.0 -0.0 -1.0
outer loop
vertex -5.740251541137695 13.858193397521973 -20.0
vertex -2.9263548851013184 14.711779594421387 -20.0
vertex -5.357568264007568 12.934313774108887 -20.0
endloop
endfacet
facet normal 0.0 -0.0 -1.0
outer loop
vertex -2.9263548851013184 14.711779594421387 -20.0
vertex -2.731264591217041 13.73099422454834 -20.0
vertex -5.357568264007568 12.934313774108887 -20.0
endloop
endfacet
facet normal 0.0 -0.0 -1.0
outer loop
vertex -2.9263548851013184 14.711779594421387 -20.0
vertex 9.184850467946473e-16 15.0 -20.0
vertex -2.731264591217041 13.73099422454834 -20.0
endloop
endfacet
facet normal 0.0 0.0 -1.0
outer loop
vertex 9.184850467946473e-16 15.0 -20.0
vertex 8.572527703398379e-16 14.0 -20.0
vertex -2.731264591217041 13.73099422454834 -20.0
endloop
endfacet
facet normal -0.0 -0.0 1.0
outer loop
vertex 13.73099422454834 2.731264591217041 20.0
vertex 15.0 0.0 20.0
vertex 12.934313774108887 5.357568264007568 20.0
endloop
endfacet
facet normal -0.47139692987487697 0.8819211611615521 0.0
outer loop
vertex -8.333553314208984 12.472043991088867 -20.0
vertex -5.740251541137695 13.858193397521973 20.0
vertex -5.740251541137695 13.858193397521973 -20.0
endloop
endfacet
facet normal -0.29028467048948303 0.9569403377843428 0.0
outer loop
vertex -5.740251541137695 13.858193397521973 -20.0
vertex -2.9263548851013184 14.711779594421387 20.0
vertex -2.9263548851013184 14.711779594421387 -20.0
endloop
endfacet
facet normal 0.0 0.0 1.0
outer loop
vertex 14.711779594421387 2.9263548851013184 20.0
vertex 13.858193397521973 5.740251541137695 20.0
vertex 15.0 0.0 20.0
endloop
endfacet
facet normal -0.09801700770209053 0.9951847397348537 0.0
outer loop
vertex -2.9263548851013184 14.711779594421387 -20.0
vertex 9.184850467946473e-16 15.0 20.0
vertex 9.184850467946473e-16 15.0 -20.0
endloop
endfacet
facet normal 0.0 0.0 1.0
outer loop
vertex 15.0 0.0 20.0
vertex 12.472043991088867 8.333553314208984 20.0
vertex 12.934313774108887 5.357568264007568 20.0
endloop
endfacet
facet normal -0.9951847397348536 0.0980170077020906 0.0
outer loop
vertex -14.711779594421387 2.9263548851013184 20.0
vertex -15.0 1.8369700935892946e-15 -20.0
vertex -15.0 1.8369700935892946e-15 20.0
endloop
endfacet
facet normal -0.0 -0.0 1.0
outer loop
vertex 12.472043991088867 8.333553314208984 20.0
vertex 15.0 0.0 20.0
vertex 13.858193397521973 5.740251541137695 20.0
endloop
endfacet
facet normal 0.7730105095858146 0.6343932156556211 -0.0
outer loop
vertex 12.472043991088867 8.333553314208984 20.0
vertex 10.60660171508789 10.60660171508789 -20.0
vertex 10.60660171508789 10.60660171508789 20.0
endloop
endfacet
facet normal -0.9569403377843428 0.29028467048948303 0.0
outer loop
vertex -13.858193397521973 5.740251541137695 20.0
vertex -14.711779594421387 2.9263548851013184 -20.0
vertex -14.711779594421387 2.9263548851013184 20.0
endloop
endfacet
facet normal -0.8819211611615521 0.47139692987487697 0.0
outer loop
vertex -12.472043991088867 8.333553314208984 20.0
vertex -13.858193397521973 5.740251541137695 -20.0
vertex -13.858193397521973 5.740251541137695 20.0
endloop
endfacet
facet normal 0.6343932156556211 0.7730105095858146 -0.0
outer loop
vertex 10.60660171508789 10.60660171508789 20.0
vertex 8.333553314208984 12.472043991088867 -20.0
vertex 8.333553314208984 12.472043991088867 20.0
endloop
endfacet
facet normal -0.0 0.0 1.0
outer loop
vertex -15.0 1.8369700935892946e-15 20.0
vertex -14.0 1.775737764194926e-15 20.0
vertex -13.73099422454834 2.731264591217041 20.0
endloop
endfacet
facet normal -0.0 0.0 1.0
outer loop
vertex -14.711779594421387 2.9263548851013184 20.0
vertex -15.0 1.8369700935892946e-15 20.0
vertex -13.73099422454834 2.731264591217041 20.0
endloop
endfacet
facet normal 0.0 -0.0 1.0
outer loop
vertex -13.73099422454834 2.731264591217041 20.0
vertex -12.934313774108887 5.357568264007568 20.0
vertex -14.711779594421387 2.9263548851013184 20.0
endloop
endfacet
facet normal 0.0 0.0 1.0
outer loop
vertex -12.934313774108887 5.357568264007568 20.0
vertex -13.858193397521973 5.740251541137695 20.0
vertex -14.711779594421387 2.9263548851013184 20.0
endloop
endfacet
facet normal 0.0 -0.0 1.0
outer loop
vertex -12.934313774108887 5.357568264007568 20.0
vertex -11.64057445526123 7.77798318862915 20.0
vertex -13.858193397521973 5.740251541137695 20.0
endloop
endfacet
facet normal 0.0 0.0 1.0
outer loop
vertex -11.64057445526123 7.77798318862915 20.0
vertex -12.472043991088867 8.333553314208984 20.0
vertex -13.858193397521973 5.740251541137695 20.0
endloop
endfacet
facet normal -0.7730105095858146 0.6343932156556211 0.0
outer loop
vertex -10.60660171508789 10.60660171508789 20.0
vertex -12.472043991088867 8.333553314208984 -20.0
vertex -12.472043991088867 8.333553314208984 20.0
endloop
endfacet
facet normal 0.0 -0.0 1.0
outer loop
vertex 9.899495124816895 9.899495124816895 20.0
vertex 10.60660171508789 10.60660171508789 20.0
vertex 8.333553314208984 12.472043991088867 20.0
endloop
endfacet
facet normal -0.6343932156556211 0.7730105095858146 0.0
outer loop
vertex -8.333553314208984 12.472043991088867 20.0
vertex -10.60660171508789 10.60660171508789 -20.0
vertex -10.60660171508789 10.60660171508789 20.0
endloop
endfacet
facet normal -0.0 -0.0 1.0
outer loop
vertex 9.899495124816895 9.899495124816895 20.0
vertex 11.64057445526123 7.77798318862915 20.0
vertex 10.60660171508789 10.60660171508789 20.0
endloop
endfacet
facet normal 0.0 -0.0 1.0
outer loop
vertex -11.64057445526123 7.77798318862915 20.0
vertex -9.899495124816895 9.899495124816895 20.0
vertex -12.472043991088867 8.333553314208984 20.0
endloop
endfacet
facet normal 0.0 0.0 1.0
outer loop
vertex -9.899495124816895 9.899495124816895 20.0
vertex -10.60660171508789 10.60660171508789 20.0
vertex -12.472043991088867 8.333553314208984 20.0
endloop
endfacet
facet normal 0.0 -0.0 1.0
outer loop
vertex -9.899495124816895 9.899495124816895 20.0
vertex -7.77798318862915 11.64057445526123 20.0
vertex -10.60660171508789 10.60660171508789 20.0
endloop
endfacet
facet normal 0.0 0.0 1.0
outer loop
vertex -7.77798318862915 11.64057445526123 20.0
vertex -8.333553314208984 12.472043991088867 20.0
vertex -10.60660171508789 10.60660171508789 20.0
endloop
endfacet
facet normal -0.0 -0.0 1.0
outer loop
vertex 7.77798318862915 11.64057445526123 20.0
vertex 9.899495124816895 9.899495124816895 20.0
vertex 8.333553314208984 12.472043991088867 20.0
endloop
endfacet
facet normal -0.47139692987487697 0.8819211611615521 0.0
outer loop
vertex -5.740251541137695 13.858193397521973 20.0
vertex -8.333553314208984 12.472043991088867 -20.0
vertex -8.333553314208984 12.472043991088867 20.0
endloop
endfacet
facet normal -0.29028467048948303 0.9569403377843428 0.0
outer loop
vertex -2.9263548851013184 14.711779594421387 20.0
vertex -5.740251541137695 13.858193397521973 -20.0
vertex -5.740251541137695 13.858193397521973 20.0
endloop
endfacet
facet normal -0.0 -0.0 1.0
outer loop
vertex 11.64057445526123 7.77798318862915 20.0
vertex 12.934313774108887 5.357568264007568 20.0
vertex 10.60660171508789 10.60660171508789 20.0
endloop
endfacet
facet normal -0.09801700770209053 0.9951847397348537 0.0
outer loop
vertex 9.184850467946473e-16 15.0 20.0
vertex -2.9263548851013184 14.711779594421387 -20.0
vertex -2.9263548851013184 14.711779594421387 20.0
endloop
endfacet
facet normal 0.0 0.0 1.0
outer loop
vertex 12.472043991088867 8.333553314208984 20.0
vertex 10.60660171508789 10.60660171508789 20.0
vertex 12.934313774108887 5.357568264007568 20.0
endloop
endfacet
facet normal 0.0 -0.0 1.0
outer loop
vertex -7.77798318862915 11.64057445526123 20.0
vertex -5.357568264007568 12.934313774108887 20.0
vertex -8.333553314208984 12.472043991088867 20.0
endloop
endfacet
facet normal 0.0 0.0 1.0
outer loop
vertex -5.357568264007568 12.934313774108887 20.0
vertex -5.740251541137695 13.858193397521973 20.0
vertex -8.333553314208984 12.472043991088867 20.0
endloop
endfacet
facet normal 0.0 -0.0 1.0
outer loop
vertex -5.357568264007568 12.934313774108887 20.0
vertex -2.731264591217041 13.73099422454834 20.0
vertex -5.740251541137695 13.858193397521973 20.0
endloop
endfacet
facet normal 0.0 0.0 1.0
outer loop
vertex -2.731264591217041 13.73099422454834 20.0
vertex -2.9263548851013184 14.711779594421387 20.0
vertex -5.740251541137695 13.858193397521973 20.0
endloop
endfacet
facet normal 0.0 -0.0 1.0
outer loop
vertex -2.731264591217041 13.73099422454834 20.0
vertex 8.572527703398379e-16 14.0 20.0
vertex -2.9263548851013184 14.711779594421387 20.0
endloop
endfacet
facet normal 0.0 -0.0 0.9999999999999999
outer loop
vertex 8.572527703398379e-16 14.0 20.0
vertex 9.184850467946473e-16 15.0 20.0
vertex -2.9263548851013184 14.711779594421387 20.0
endloop
endfacet
facet normal 0.0 -0.0 -0.9999999999999999
outer loop
vertex -2.5717582580799545e-15 -14.0 -20.0
vertex 2.731264591217041 -13.73099422454834 -20.0
vertex -2.7554553521421787e-15 -15.0 -20.0
endloop
endfacet
facet normal 0.0 -0.0 -1.0
outer loop
vertex 2.731264591217041 -13.73099422454834 -20.0
vertex 2.9263548851013184 -14.711779594421387 -20.0
vertex -2.7554553521421787e-15 -15.0 -20.0
endloop
endfacet
facet normal 0.0 -0.0 -1.0
outer loop
vertex 2.731264591217041 -13.73099422454834 -20.0
vertex 5.357568264007568 -12.934313774108887 -20.0
vertex 2.9263548851013184 -14.711779594421387 -20.0
endloop
endfacet
facet normal 0.0 -0.0 -1.0
outer loop
vertex 5.357568264007568 -12.934313774108887 -20.0
vertex 5.740251541137695 -13.858193397521973 -20.0
vertex 2.9263548851013184 -14.711779594421387 -20.0
endloop
endfacet
facet normal 0.0 -0.0 -1.0
outer loop
vertex 5.357568264007568 -12.934313774108887 -20.0
vertex 7.77798318862915 -11.64057445526123 -20.0
vertex 5.740251541137695 -13.858193397521973 -20.0
endloop
endfacet
facet normal 0.0 -0.0 -1.0
outer loop
vertex 7.77798318862915 -11.64057445526123 -20.0
vertex 8.333553314208984 -12.472043991088867 -20.0
vertex 5.740251541137695 -13.858193397521973 -20.0
endloop
endfacet
facet normal 0.09801700770209044 -0.9951847397348536 0.0
outer loop
vertex -2.7554553521421787e-15 -15.0 20.0
vertex -2.7554553521421787e-15 -15.0 -20.0
vertex 2.9263548851013184 -14.711779594421387 -20.0
endloop
endfacet
facet normal 0.29028467048948303 -0.9569403377843428 0.0
outer loop
vertex 2.9263548851013184 -14.711779594421387 -20.0
vertex 5.740251541137695 -13.858193397521973 -20.0
vertex 2.9263548851013184 -14.711779594421387 20.0
endloop
endfacet
facet normal 0.47139692987487697 -0.8819211611615521 0.0
outer loop
vertex 5.740251541137695 -13.858193397521973 -20.0
vertex 8.333553314208984 -12.472043991088867 -20.0
vertex 5.740251541137695 -13.858193397521973 20.0
endloop
endfacet
facet normal 0.0 -0.0 -1.0
outer loop
vertex 7.77798318862915 -11.64057445526123 -20.0
vertex 9.899495124816895 -9.899495124816895 -20.0
vertex 8.333553314208984 -12.472043991088867 -20.0
endloop
endfacet
facet normal 0.0 -0.0 -1.0
outer loop
vertex 9.899495124816895 -9.899495124816895 -20.0
vertex 10.60660171508789 -10.60660171508789 -20.0
vertex 8.333553314208984 -12.472043991088867 -20.0
endloop
endfacet
facet normal 0.0 -0.0 -1.0
outer loop
vertex 9.899495124816895 -9.899495124816895 -20.0
vertex 11.64057445526123 -7.77798318862915 -20.0
vertex 10.60660171508789 -10.60660171508789 -20.0
endloop
endfacet
facet normal 0.0 -0.0 -1.0
outer loop
vertex 11.64057445526123 -7.77798318862915 -20.0
vertex 12.472043991088867 -8.333553314208984 -20.0
vertex 10.60660171508789 -10.60660171508789 -20.0
endloop
endfacet
facet normal 0.6343932156556211 -0.7730105095858146 0.0
outer loop
vertex 8.333553314208984 -12.472043991088867 -20.0
vertex 10.60660171508789 -10.60660171508789 -20.0
vertex 8.333553314208984 -12.472043991088867 20.0
endloop
endfacet
facet normal 0.7730105095858146 -0.6343932156556211 0.0
outer loop
vertex 10.60660171508789 -10.60660171508789 -20.0
vertex 12.472043991088867 -8.333553314208984 -20.0
vertex 10.60660171508789 -10.60660171508789 20.0
endloop
endfacet
facet normal 0.0 -0.0 -1.0
outer loop
vertex 11.64057445526123 -7.77798318862915 -20.0
vertex 12.934313774108887 -5.357568264007568 -20.0
vertex 12.472043991088867 -8.333553314208984 -20.0
endloop
endfacet
facet normal 0.0 -0.0 -1.0
outer loop
vertex 12.934313774108887 -5.357568264007568 -20.0
vertex 13.73099422454834 -2.731264591217041 -20.0
vertex 12.472043991088867 -8.333553314208984 -20.0
endloop
endfacet
facet normal -0.0 0.0 -1.0
outer loop
vertex 13.858193397521973 -5.740251541137695 -20.0
vertex 12.472043991088867 -8.333553314208984 -20.0
vertex 13.73099422454834 -2.731264591217041 -20.0
endloop
endfacet
facet normal 0.0 0.0 -1.0
outer loop
vertex 13.858193397521973 -5.740251541137695 -20.0
vertex 14.711779594421387 2.9263548851013184 -20.0
vertex 14.711779594421387 -2.9263548851013184 -20.0
endloop
endfacet
facet normal -0.0 0.0 -1.0
outer loop
vertex 14.711779594421387 2.9263548851013184 -20.0
vertex 13.858193397521973 -5.740251541137695 -20.0
vertex 13.73099422454834 -2.731264591217041 -20.0
endloop
endfacet
facet normal 0.8819211611615521 -0.47139692987487697 0.0
outer loop
vertex 12.472043991088867 -8.333553314208984 -20.0
vertex 13.858193397521973 -5.740251541137695 -20.0
vertex 12.472043991088867 -8.333553314208984 20.0
endloop
endfacet
facet normal 0.9569403377843428 -0.29028467048948303 0.0
outer loop
vertex 13.858193397521973 -5.740251541137695 -20.0
vertex 14.711779594421387 -2.9263548851013184 -20.0
vertex 13.858193397521973 -5.740251541137695 20.0
endloop
endfacet
facet normal 0.9951847397348536 -0.09801700770209054 0.0
outer loop
vertex 14.711779594421387 -2.9263548851013184 -20.0
vertex 15.0 0.0 -20.0
vertex 14.711779594421387 -2.9263548851013184 20.0
endloop
endfacet
facet normal 0.09801700770209044 -0.9951847397348536 0.0
outer loop
vertex -2.7554553521421787e-15 -15.0 20.0
vertex 2.9263548851013184 -14.711779594421387 -20.0
vertex 2.9263548851013184 -14.711779594421387 20.0
endloop
endfacet
facet normal 0.29028467048948303 -0.9569403377843428 0.0
outer loop
vertex 2.9263548851013184 -14.711779594421387 20.0
vertex 5.740251541137695 -13.858193397521973 -20.0
vertex 5.740251541137695 -13.858193397521973 20.0
endloop
endfacet
facet normal 0.47139692987487697 -0.8819211611615521 0.0
outer loop
vertex 5.740251541137695 -13.858193397521973 20.0
vertex 8.333553314208984 -12.472043991088867 -20.0
vertex 8.333553314208984 -12.472043991088867 20.0
endloop
endfacet
facet normal 0.0 -0.0 1.0
outer loop
vertex -2.7554553521421787e-15 -15.0 20.0
vertex 2.9263548851013184 -14.711779594421387 20.0
vertex -2.5717582580799545e-15 -14.0 20.0
endloop
endfacet
facet normal 0.0 0.0 1.0
outer loop
vertex 2.9263548851013184 -14.711779594421387 20.0
vertex 2.731264591217041 -13.73099422454834 20.0
vertex -2.5717582580799545e-15 -14.0 20.0
endloop
endfacet
facet normal 0.0 -0.0 1.0
outer loop
vertex 2.9263548851013184 -14.711779594421387 20.0
vertex 5.740251541137695 -13.858193397521973 20.0
vertex 2.731264591217041 -13.73099422454834 20.0
endloop
endfacet
facet normal 0.0 0.0 1.0
outer loop
vertex 5.740251541137695 -13.858193397521973 20.0
vertex 5.357568264007568 -12.934313774108887 20.0
vertex 2.731264591217041 -13.73099422454834 20.0
endloop
endfacet
facet normal 0.0 -0.0 1.0
outer loop
vertex 5.740251541137695 -13.858193397521973 20.0
vertex 8.333553314208984 -12.472043991088867 20.0
vertex 5.357568264007568 -12.934313774108887 20.0
endloop
endfacet
facet normal 0.0 0.0 1.0
outer loop
vertex 8.333553314208984 -12.472043991088867 20.0
vertex 7.77798318862915 -11.64057445526123 20.0
vertex 5.357568264007568 -12.934313774108887 20.0
endloop
endfacet
facet normal 0.6343932156556211 -0.7730105095858146 0.0
outer loop
vertex 8.333553314208984 -12.472043991088867 20.0
vertex 10.60660171508789 -10.60660171508789 -20.0
vertex 10.60660171508789 -10.60660171508789 20.0
endloop
endfacet
facet normal 0.7730105095858146 -0.6343932156556211 0.0
outer loop
vertex 10.60660171508789 -10.60660171508789 20.0
vertex 12.472043991088867 -8.333553314208984 -20.0
vertex 12.472043991088867 -8.333553314208984 20.0
endloop
endfacet
facet normal 0.0 -0.0 1.0
outer loop
vertex 8.333553314208984 -12.472043991088867 20.0
vertex 10.60660171508789 -10.60660171508789 20.0
vertex 7.77798318862915 -11.64057445526123 20.0
endloop
endfacet
facet normal 0.0 0.0 1.0
outer loop
vertex 10.60660171508789 -10.60660171508789 20.0
vertex 9.899495124816895 -9.899495124816895 20.0
vertex 7.77798318862915 -11.64057445526123 20.0
endloop
endfacet
facet normal 0.0 -0.0 1.0
outer loop
vertex 10.60660171508789 -10.60660171508789 20.0
vertex 11.64057445526123 -7.77798318862915 20.0
vertex 9.899495124816895 -9.899495124816895 20.0
endloop
endfacet
facet normal -0.0 0.0 1.0
outer loop
vertex 11.64057445526123 -7.77798318862915 20.0
vertex 10.60660171508789 -10.60660171508789 20.0
vertex 12.472043991088867 -8.333553314208984 20.0
endloop
endfacet
facet normal 0.8819211611615521 -0.47139692987487697 0.0
outer loop
vertex 12.472043991088867 -8.333553314208984 20.0
vertex 13.858193397521973 -5.740251541137695 -20.0
vertex 13.858193397521973 -5.740251541137695 20.0
endloop
endfacet
facet normal 0.9569403377843428 -0.29028467048948303 0.0
outer loop
vertex 13.858193397521973 -5.740251541137695 20.0
vertex 14.711779594421387 -2.9263548851013184 -20.0
vertex 14.711779594421387 -2.9263548851013184 20.0
endloop
endfacet
facet normal 0.9951847397348536 -0.09801700770209054 0.0
outer loop
vertex 14.711779594421387 -2.9263548851013184 20.0
vertex 15.0 0.0 -20.0
vertex 15.0 0.0 20.0
endloop
endfacet
facet normal 0.0 0.0 1.0
outer loop
vertex 12.934313774108887 -5.357568264007568 20.0
vertex 11.64057445526123 -7.77798318862915 20.0
vertex 12.472043991088867 -8.333553314208984 20.0
endloop
endfacet
facet normal -0.0 0.0 1.0
outer loop
vertex 15.0 0.0 20.0
vertex 12.472043991088867 -8.333553314208984 20.0
vertex 13.858193397521973 -5.740251541137695 20.0
endloop
endfacet
facet normal -0.0 0.0 1.0
outer loop
vertex 12.934313774108887 -5.357568264007568 20.0
vertex 12.472043991088867 -8.333553314208984 20.0
vertex 15.0 0.0 20.0
endloop
endfacet
facet normal -0.0 0.0 1.0
outer loop
vertex 13.73099422454834 -2.731264591217041 20.0
vertex 12.934313774108887 -5.357568264007568 20.0
vertex 15.0 0.0 20.0
endloop
endfacet
facet normal -0.0 0.0 1.0
outer loop
vertex 15.0 0.0 20.0
vertex 13.858193397521973 -5.740251541137695 20.0
vertex 14.711779594421387 -2.9263548851013184 20.0
endloop
endfacet
facet normal 0.0 -0.0 1.0
outer loop
vertex 13.73099422454834 -2.731264591217041 20.0
vertex 15.0 0.0 20.0
vertex 14.0 0.0 20.0
endloop
endfacet
facet normal 0.0 -0.0 -1.0
outer loop
vertex 9.184850467946473e-16 15.0 -20.0
vertex 2.9263548851013184 14.711779594421387 -20.0
vertex 8.572527703398379e-16 14.0 -20.0
endloop
endfacet
facet normal -0.0 0.0 -1.0
outer loop
vertex 2.9263548851013184 14.711779594421387 -20.0
vertex 2.731264591217041 13.73099422454834 -20.0
vertex 8.572527703398379e-16 14.0 -20.0
endloop
endfacet
facet normal -0.0 0.0 -1.0
outer loop
vertex 5.740251541137695 13.858193397521973 -20.0
vertex 5.357568264007568 12.934313774108887 -20.0
vertex 2.731264591217041 13.73099422454834 -20.0
endloop
endfacet
facet normal 0.0 -0.0 -1.0
outer loop
vertex 2.9263548851013184 14.711779594421387 -20.0
vertex 5.740251541137695 13.858193397521973 -20.0
vertex 2.731264591217041 13.73099422454834 -20.0
endloop
endfacet
facet normal -0.0 -0.0 -1.0
outer loop
vertex 5.740251541137695 13.858193397521973 -20.0
vertex 8.333553314208984 12.472043991088867 -20.0
vertex 5.357568264007568 12.934313774108887 -20.0
endloop
endfacet
facet normal -0.0 0.0 -1.0
outer loop
vertex 8.333553314208984 12.472043991088867 -20.0
vertex 7.77798318862915 11.64057445526123 -20.0
vertex 5.357568264007568 12.934313774108887 -20.0
endloop
endfacet
facet normal 0.09801700770209056 0.9951847397348536 0.0
outer loop
vertex 2.9263548851013184 14.711779594421387 -20.0
vertex 9.184850467946473e-16 15.0 -20.0
vertex 2.9263548851013184 14.711779594421387 20.0
endloop
endfacet
facet normal 0.29028467048948303 0.9569403377843428 0.0
outer loop
vertex 2.9263548851013184 14.711779594421387 -20.0
vertex 5.740251541137695 13.858193397521973 20.0
vertex 5.740251541137695 13.858193397521973 -20.0
endloop
endfacet
facet normal 0.47139692987487697 0.8819211611615521 0.0
outer loop
vertex 5.740251541137695 13.858193397521973 -20.0
vertex 8.333553314208984 12.472043991088867 20.0
vertex 8.333553314208984 12.472043991088867 -20.0
endloop
endfacet
facet normal 0.0 -0.0 -1.0
outer loop
vertex 14.0 0.0 -20.0
vertex 14.711779594421387 2.9263548851013184 -20.0
vertex 13.73099422454834 -2.731264591217041 -20.0
endloop
endfacet
facet normal -0.0 0.0 -1.0
outer loop
vertex 15.0 0.0 -20.0
vertex 14.711779594421387 -2.9263548851013184 -20.0
vertex 14.711779594421387 2.9263548851013184 -20.0
endloop
endfacet
facet normal 0.0 -0.0 -1.0
outer loop
vertex 12.934313774108887 5.357568264007568 -20.0
vertex 14.711779594421387 2.9263548851013184 -20.0
vertex 13.73099422454834 2.731264591217041 -20.0
endloop
endfacet
facet normal 0.0 -0.0 -1.0
outer loop
vertex 13.73099422454834 2.731264591217041 -20.0
vertex 14.711779594421387 2.9263548851013184 -20.0
vertex 14.0 0.0 -20.0
endloop
endfacet
facet normal 0.0 0.0 -1.0
outer loop
vertex 12.934313774108887 5.357568264007568 -20.0
vertex 11.64057445526123 7.77798318862915 -20.0
vertex 14.711779594421387 2.9263548851013184 -20.0
endloop
endfacet
facet normal 0.0 0.0 -1.0
outer loop
vertex 11.64057445526123 7.77798318862915 -20.0
vertex 10.60660171508789 10.60660171508789 -20.0
vertex 14.711779594421387 2.9263548851013184 -20.0
endloop
endfacet
facet normal 0.0 0.0 -1.0
outer loop
vertex 14.711779594421387 2.9263548851013184 -20.0
vertex 10.60660171508789 10.60660171508789 -20.0
vertex 12.472043991088867 8.333553314208984 -20.0
endloop
endfacet
facet normal 0.0 0.0 -0.9999999999999999
outer loop
vertex 14.711779594421387 2.9263548851013184 -20.0
vertex 12.472043991088867 8.333553314208984 -20.0
vertex 13.858193397521973 5.740251541137695 -20.0
endloop
endfacet
facet normal 0.7730105462913914 0.6343931709297357 -0.0
outer loop
vertex -9.899495124816895 -9.899495124816895 -20.0
vertex -11.64057445526123 -7.77798318862915 -20.0
vertex -11.64057445526123 -7.77798318862915 20.0
endloop
endfacet
facet normal 0.6343931709297357 0.7730105462913914 -0.0
outer loop
vertex -9.899495124816895 -9.899495124816895 -20.0
vertex -9.899495124816895 -9.899495124816895 20.0
vertex -7.77798318862915 -11.64057445526123 -20.0
endloop
endfacet
facet normal 0.8819211752754741 0.4713969034695989 -0.0
outer loop
vertex -11.64057445526123 -7.77798318862915 -20.0
vertex -12.934313774108887 -5.357568264007568 -20.0
vertex -12.934313774108887 -5.357568264007568 20.0
endloop
endfacet
facet normal 0.9569403416884968 0.29028465761921146 0.0
outer loop
vertex -13.73099422454834 -2.731264591217041 20.0
vertex -12.934313774108887 -5.357568264007568 -20.0
vertex -13.73099422454834 -2.731264591217041 -20.0
endloop
endfacet
facet normal 0.9951847375864181 0.09801702951554775 -1.5004501648992235e-19
outer loop
vertex -13.73099422454834 -2.731264591217041 -20.0
vertex -14.0 1.7145055406796758e-15 -20.0
vertex -14.0 1.775737764194926e-15 20.0
endloop
endfacet
facet normal 0.4713969034695989 0.8819211752754741 -0.0
outer loop
vertex -7.77798318862915 -11.64057445526123 -20.0
vertex -7.77798318862915 -11.64057445526123 20.0
vertex -5.357568264007568 -12.934313774108887 -20.0
endloop
endfacet
facet normal 0.29028465761921146 0.9569403416884968 -0.0
outer loop
vertex -5.357568264007568 -12.934313774108887 -20.0
vertex -5.357568264007568 -12.934313774108887 20.0
vertex -2.731264591217041 -13.73099422454834 -20.0
endloop
endfacet
facet normal 0.09801702951554793 0.9951847375864183 -0.0
outer loop
vertex -2.731264591217041 -13.73099422454834 -20.0
vertex -2.731264591217041 -13.73099422454834 20.0
vertex -2.5717582580799545e-15 -14.0 -20.0
endloop
endfacet
facet normal 0.7730105462913914 0.6343931709297357 0.0
outer loop
vertex -9.899495124816895 -9.899495124816895 20.0
vertex -9.899495124816895 -9.899495124816895 -20.0
vertex -11.64057445526123 -7.77798318862915 20.0
endloop
endfacet
facet normal 0.6343931709297357 0.7730105462913914 0.0
outer loop
vertex -9.899495124816895 -9.899495124816895 20.0
vertex -7.77798318862915 -11.64057445526123 20.0
vertex -7.77798318862915 -11.64057445526123 -20.0
endloop
endfacet
facet normal 0.9569403416884968 0.29028465761921146 0.0
outer loop
vertex -12.934313774108887 -5.357568264007568 20.0
vertex -12.934313774108887 -5.357568264007568 -20.0
vertex -13.73099422454834 -2.731264591217041 20.0
endloop
endfacet
facet normal 0.8819211752754741 0.4713969034695989 0.0
outer loop
vertex -11.64057445526123 -7.77798318862915 20.0
vertex -11.64057445526123 -7.77798318862915 -20.0
vertex -12.934313774108887 -5.357568264007568 20.0
endloop
endfacet
facet normal 0.9951847375864181 0.09801702951554775 0.0
outer loop
vertex -13.73099422454834 -2.731264591217041 -20.0
vertex -14.0 1.775737764194926e-15 20.0
vertex -13.73099422454834 -2.731264591217041 20.0
endloop
endfacet
facet normal 0.4713969034695989 0.8819211752754741 0.0
outer loop
vertex -7.77798318862915 -11.64057445526123 20.0
vertex -5.357568264007568 -12.934313774108887 20.0
vertex -5.357568264007568 -12.934313774108887 -20.0
endloop
endfacet
facet normal 0.29028465761921146 0.9569403416884968 0.0
outer loop
vertex -5.357568264007568 -12.934313774108887 20.0
vertex -2.731264591217041 -13.73099422454834 20.0
vertex -2.731264591217041 -13.73099422454834 -20.0
endloop
endfacet
facet normal 0.09801702951554793 0.9951847375864183 0.0
outer loop
vertex -2.731264591217041 -13.73099422454834 20.0
vertex -2.5717582580799545e-15 -14.0 20.0
vertex -2.5717582580799545e-15 -14.0 -20.0
endloop
endfacet
facet normal 0.9951847375864183 -0.0980170295155479 0.0
outer loop
vertex -14.0 1.7145055406796758e-15 -20.0
vertex -13.73099422454834 2.731264591217041 -20.0
vertex -13.73099422454834 2.731264591217041 20.0
endloop
endfacet
facet normal 0.9569403416884968 -0.29028465761921146 0.0
outer loop
vertex -13.73099422454834 2.731264591217041 -20.0
vertex -12.934313774108887 5.357568264007568 -20.0
vertex -12.934313774108887 5.357568264007568 20.0
endloop
endfacet
facet normal 0.8819211752754741 -0.4713969034695989 0.0
outer loop
vertex -12.934313774108887 5.357568264007568 -20.0
vertex -11.64057445526123 7.77798318862915 -20.0
vertex -11.64057445526123 7.77798318862915 20.0
endloop
endfacet
facet normal 0.7730105462913914 -0.6343931709297357 0.0
outer loop
vertex -11.64057445526123 7.77798318862915 -20.0
vertex -9.899495124816895 9.899495124816895 -20.0
vertex -9.899495124816895 9.899495124816895 20.0
endloop
endfacet
facet normal 0.6343931709297357 -0.7730105462913914 0.0
outer loop
vertex -9.899495124816895 9.899495124816895 -20.0
vertex -7.77798318862915 11.64057445526123 -20.0
vertex -7.77798318862915 11.64057445526123 20.0
endloop
endfacet
facet normal 0.4713969034695989 -0.8819211752754741 0.0
outer loop
vertex -7.77798318862915 11.64057445526123 -20.0
vertex -5.357568264007568 12.934313774108887 -20.0
vertex -5.357568264007568 12.934313774108887 20.0
endloop
endfacet
facet normal 0.29028465761921146 -0.9569403416884968 0.0
outer loop
vertex -5.357568264007568 12.934313774108887 -20.0
vertex -2.731264591217041 13.73099422454834 -20.0
vertex -2.731264591217041 13.73099422454834 20.0
endloop
endfacet
facet normal 0.0980170295155478 -0.9951847375864183 0.0
outer loop
vertex -2.731264591217041 13.73099422454834 -20.0
vertex 8.572527703398379e-16 14.0 -20.0
vertex 8.572527703398379e-16 14.0 20.0
endloop
endfacet
facet normal 0.9951847375864183 -0.0980170295155479 1.500450164899226e-19
outer loop
vertex -14.0 1.775737764194926e-15 20.0
vertex -14.0 1.7145055406796758e-15 -20.0
vertex -13.73099422454834 2.731264591217041 20.0
endloop
endfacet
facet normal 0.9569403416884968 -0.29028465761921146 0.0
outer loop
vertex -13.73099422454834 2.731264591217041 20.0
vertex -13.73099422454834 2.731264591217041 -20.0
vertex -12.934313774108887 5.357568264007568 20.0
endloop
endfacet
facet normal 0.8819211752754741 -0.4713969034695989 0.0
outer loop
vertex -12.934313774108887 5.357568264007568 20.0
vertex -12.934313774108887 5.357568264007568 -20.0
vertex -11.64057445526123 7.77798318862915 20.0
endloop
endfacet
facet normal 0.7730105462913914 -0.6343931709297357 0.0
outer loop
vertex -11.64057445526123 7.77798318862915 20.0
vertex -11.64057445526123 7.77798318862915 -20.0
vertex -9.899495124816895 9.899495124816895 20.0
endloop
endfacet
facet normal 0.6343931709297357 -0.7730105462913914 0.0
outer loop
vertex -9.899495124816895 9.899495124816895 20.0
vertex -9.899495124816895 9.899495124816895 -20.0
vertex -7.77798318862915 11.64057445526123 20.0
endloop
endfacet
facet normal 0.4713969034695989 -0.8819211752754741 0.0
outer loop
vertex -7.77798318862915 11.64057445526123 20.0
vertex -7.77798318862915 11.64057445526123 -20.0
vertex -5.357568264007568 12.934313774108887 20.0
endloop
endfacet
facet normal 0.29028465761921146 -0.9569403416884968 0.0
outer loop
vertex -5.357568264007568 12.934313774108887 20.0
vertex -5.357568264007568 12.934313774108887 -20.0
vertex -2.731264591217041 13.73099422454834 20.0
endloop
endfacet
facet normal 0.0980170295155478 -0.9951847375864183 0.0
outer loop
vertex -2.731264591217041 13.73099422454834 20.0
vertex -2.731264591217041 13.73099422454834 -20.0
vertex 8.572527703398379e-16 14.0 20.0
endloop
endfacet
facet normal -0.09801702951554785 -0.9951847375864182 -0.0
outer loop
vertex 2.731264591217041 13.73099422454834 20.0
vertex 8.572527703398379e-16 14.0 20.0
vertex 8.572527703398379e-16 14.0 -20.0
endloop
endfacet
facet normal -0.9569403416884968 0.29028465761921146 0.0
outer loop
vertex 13.73099422454834 -2.731264591217041 20.0
vertex 13.73099422454834 -2.731264591217041 -20.0
vertex 12.934313774108887 -5.357568264007568 20.0
endloop
endfacet
facet normal -0.29028465761921146 -0.9569403416884968 -0.0
outer loop
vertex 2.731264591217041 13.73099422454834 20.0
vertex 2.731264591217041 13.73099422454834 -20.0
vertex 5.357568264007568 12.934313774108887 20.0
endloop
endfacet
facet normal -0.4713969034695989 -0.8819211752754741 0.0
outer loop
vertex 5.357568264007568 12.934313774108887 -20.0
vertex 7.77798318862915 11.64057445526123 -20.0
vertex 7.77798318862915 11.64057445526123 20.0
endloop
endfacet
facet normal -0.4713969034695989 -0.8819211752754741 -0.0
outer loop
vertex 5.357568264007568 12.934313774108887 20.0
vertex 5.357568264007568 12.934313774108887 -20.0
vertex 7.77798318862915 11.64057445526123 20.0
endloop
endfacet
facet normal -0.9951847375864182 0.09801702951554782 0.0
outer loop
vertex 13.73099422454834 -2.731264591217041 20.0
vertex 14.0 0.0 20.0
vertex 14.0 0.0 -20.0
endloop
endfacet
facet normal -0.6343931709297357 0.7730105462913914 0.0
outer loop
vertex 9.899495124816895 -9.899495124816895 -20.0
vertex 7.77798318862915 -11.64057445526123 -20.0
vertex 7.77798318862915 -11.64057445526123 20.0
endloop
endfacet
facet normal -0.9951847375864182 0.09801702951554782 0.0
outer loop
vertex 14.0 0.0 -20.0
vertex 13.73099422454834 -2.731264591217041 -20.0
vertex 13.73099422454834 -2.731264591217041 20.0
endloop
endfacet
facet normal -0.09801702951554771 0.9951847375864181 0.0
outer loop
vertex -2.5717582580799545e-15 -14.0 20.0
vertex 2.731264591217041 -13.73099422454834 20.0
vertex 2.731264591217041 -13.73099422454834 -20.0
endloop
endfacet
facet normal -0.6343931709297357 0.7730105462913914 0.0
outer loop
vertex 7.77798318862915 -11.64057445526123 20.0
vertex 9.899495124816895 -9.899495124816895 20.0
vertex 9.899495124816895 -9.899495124816895 -20.0
endloop
endfacet
facet normal -0.4713969034695989 0.8819211752754741 0.0
outer loop
vertex 5.357568264007568 -12.934313774108887 -20.0
vertex 5.357568264007568 -12.934313774108887 20.0
vertex 7.77798318862915 -11.64057445526123 -20.0
endloop
endfacet
facet normal -0.7730105462913914 0.6343931709297357 0.0
outer loop
vertex 11.64057445526123 -7.77798318862915 -20.0
vertex 9.899495124816895 -9.899495124816895 20.0
vertex 11.64057445526123 -7.77798318862915 20.0
endloop
endfacet
facet normal -0.9951847375864182 -0.09801702951554782 -0.0
outer loop
vertex 14.0 0.0 20.0
vertex 13.73099422454834 2.731264591217041 20.0
vertex 13.73099422454834 2.731264591217041 -20.0
endloop
endfacet
facet normal -0.29028465761921146 0.9569403416884968 0.0
outer loop
vertex 2.731264591217041 -13.73099422454834 20.0
vertex 5.357568264007568 -12.934313774108887 20.0
vertex 5.357568264007568 -12.934313774108887 -20.0
endloop
endfacet
facet normal -0.8819211752754741 -0.4713969034695989 -0.0
outer loop
vertex 11.64057445526123 7.77798318862915 20.0
vertex 11.64057445526123 7.77798318862915 -20.0
vertex 12.934313774108887 5.357568264007568 20.0
endloop
endfacet
facet normal -0.7730105462913914 0.6343931709297357 0.0
outer loop
vertex 11.64057445526123 -7.77798318862915 -20.0
vertex 9.899495124816895 -9.899495124816895 -20.0
vertex 9.899495124816895 -9.899495124816895 20.0
endloop
endfacet
facet normal -0.9569403416884968 -0.29028465761921146 -0.0
outer loop
vertex 12.934313774108887 5.357568264007568 20.0
vertex 12.934313774108887 5.357568264007568 -20.0
vertex 13.73099422454834 2.731264591217041 20.0
endloop
endfacet
facet normal -0.9951847375864182 -0.09801702951554782 0.0
outer loop
vertex 13.73099422454834 2.731264591217041 -20.0
vertex 14.0 0.0 -20.0
vertex 14.0 0.0 20.0
endloop
endfacet
facet normal -0.8819211752754741 0.4713969034695989 0.0
outer loop
vertex 11.64057445526123 -7.77798318862915 20.0
vertex 12.934313774108887 -5.357568264007568 -20.0
vertex 11.64057445526123 -7.77798318862915 -20.0
endloop
endfacet
facet normal -0.9569403416884968 -0.29028465761921146 0.0
outer loop
vertex 12.934313774108887 5.357568264007568 -20.0
vertex 13.73099422454834 2.731264591217041 -20.0
vertex 13.73099422454834 2.731264591217041 20.0
endloop
endfacet
facet normal -0.8819211752754741 -0.4713969034695989 0.0
outer loop
vertex 11.64057445526123 7.77798318862915 -20.0
vertex 12.934313774108887 5.357568264007568 -20.0
vertex 12.934313774108887 5.357568264007568 20.0
endloop
endfacet
facet normal -0.4713969034695989 0.8819211752754741 0.0
outer loop
vertex 5.357568264007568 -12.934313774108887 20.0
vertex 7.77798318862915 -11.64057445526123 20.0
vertex 7.77798318862915 -11.64057445526123 -20.0
endloop
endfacet
facet normal -0.09801702951554771 0.9951847375864181 0.0
outer loop
vertex -2.5717582580799545e-15 -14.0 -20.0
vertex -2.5717582580799545e-15 -14.0 20.0
vertex 2.731264591217041 -13.73099422454834 -20.0
endloop
endfacet
facet normal -0.6343931709297357 -0.7730105462913914 -0.0
outer loop
vertex 7.77798318862915 11.64057445526123 20.0
vertex 7.77798318862915 11.64057445526123 -20.0
vertex 9.899495124816895 9.899495124816895 20.0
endloop
endfacet
facet normal -0.7730105462913914 -0.6343931709297357 0.0
outer loop
vertex 9.899495124816895 9.899495124816895 -20.0
vertex 11.64057445526123 7.77798318862915 20.0
vertex 9.899495124816895 9.899495124816895 20.0
endloop
endfacet
facet normal -0.8819211752754741 0.4713969034695989 0.0
outer loop
vertex 12.934313774108887 -5.357568264007568 20.0
vertex 12.934313774108887 -5.357568264007568 -20.0
vertex 11.64057445526123 -7.77798318862915 20.0
endloop
endfacet
facet normal -0.9569403416884968 0.29028465761921146 0.0
outer loop
vertex 13.73099422454834 -2.731264591217041 -20.0
vertex 12.934313774108887 -5.357568264007568 -20.0
vertex 12.934313774108887 -5.357568264007568 20.0
endloop
endfacet
facet normal -0.09801702951554785 -0.9951847375864182 0.0
outer loop
vertex 8.572527703398379e-16 14.0 -20.0
vertex 2.731264591217041 13.73099422454834 -20.0
vertex 2.731264591217041 13.73099422454834 20.0
endloop
endfacet
facet normal -0.6343931709297357 -0.7730105462913914 0.0
outer loop
vertex 9.899495124816895 9.899495124816895 20.0
vertex 7.77798318862915 11.64057445526123 -20.0
vertex 9.899495124816895 9.899495124816895 -20.0
endloop
endfacet
facet normal -0.7730105462913914 -0.6343931709297357 0.0
outer loop
vertex 9.899495124816895 9.899495124816895 -20.0
vertex 11.64057445526123 7.77798318862915 -20.0
vertex 11.64057445526123 7.77798318862915 20.0
endloop
endfacet
facet normal -0.29028465761921146 0.9569403416884968 0.0
outer loop
vertex 5.357568264007568 -12.934313774108887 -20.0
vertex 2.731264591217041 -13.73099422454834 -20.0
vertex 2.731264591217041 -13.73099422454834 20.0
endloop
endfacet
facet normal -0.29028465761921146 -0.9569403416884968 0.0
outer loop
vertex 2.731264591217041 13.73099422454834 -20.0
vertex 5.357568264007568 12.934313774108887 -20.0
vertex 5.357568264007568 12.934313774108887 20.0
endloop
endfacet

endsolid
